<svg width="24" height="24" fill="none" xmlns="http://www.w3.org/2000/svg"><path d="M13 3H8.2c-1.12 0-1.68 0-2.108.218a2 2 0 00-.874.874C5 4.52 5 5.08 5 6.2v11.6c0 1.12 0 1.68.218 2.108a2 2 0 00.874.874C6.52 21 7.08 21 8.2 21H10m3-18l6 6m-6-6v4.4c0 .56 0 .84.109 1.054a1 1 0 00.437.437C13.76 9 14.04 9 14.6 9H19m0 0v1M9 17h2.5M9 13h5M9 9h1m4 12l2.025-.405c.177-.035.265-.053.347-.085a.994.994 0 00.207-.111c.073-.05.136-.114.264-.242L21 16a1.414 1.414 0 10-2-2l-4.157 4.157a2.098 2.098 0 00-.242.264.994.994 0 00-.11.207c-.033.082-.05.17-.086.347L14 21z" stroke="#fff" stroke-width="2" stroke-linecap="round" stroke-linejoin="round"/></svg>