<svg width="50" height="50" fill="none" xmlns="http://www.w3.org/2000/svg"><path d="M2.588 1.025c-.234.225-.244.284-.244 1.563v1.318h-.537c-.45 0-.586.04-.782.244l-.244.235V17.49l.244.235c.196.205.332.244.782.244h.537V44.53h-.537c-.45 0-.586.04-.782.244-.244.235-.244.254-.244 2.1s0 1.865.244 2.1l.235.244h47.48l.235-.244c.244-.235.244-.254.244-2.1s0-1.865-.244-2.1c-.196-.205-.332-.244-.782-.244h-.537V17.97h.537c.45 0 .586-.04.782-.244l.244-.235V4.385l-.244-.235c-.196-.205-.332-.244-.782-.244h-.537V2.588c0-1.28-.01-1.338-.244-1.563l-.234-.244H2.822l-.234.244zm43.506 2.1v.781H3.906V2.344h42.188v.781zm1.562 7.813v5.468H2.344V5.468h45.312v5.47zm-1.562 7.812v.781H3.906V17.97h42.188v.781zM13.28 23.438v2.343H3.906V21.094h9.375v2.343zm10.938 0v2.343h-9.375V21.094h9.375v2.343zm10.937 0v2.343h-9.375V21.094h9.375v2.343zm10.938 0v2.343h-9.375V21.094h9.375v2.343zm0 12.5v8.593h-1.562V29.385l-.245-.235-.234-.244H32.51l-.235.244-.244.235V44.53h-3.125V29.385l-.244-.235-.234-.244H5.948l-.235.244-.244.235V44.53H3.907V27.344h42.187v8.593zM27.344 37.5v7.031h-1.562V32.51l-.245-.235-.234-.244H9.072l-.234.244-.244.235V44.53H7.03V30.47H27.344V37.5zm15.625 0v7.031h-9.375V30.47h9.375V37.5zm-26.563 1.563v5.468h-6.25V33.593h6.25v5.47zm7.813 0v5.468h-6.25V33.593h6.25v5.47zm23.437 7.812v.781H2.344v-1.562h45.312v.781z" fill="#271291"/><path d="M11.182 7.275l-.245.235v6.855l.245.235c.234.244.253.244 2.109.244 2.246 0 2.5-.059 3.164-.733.85-.85.977-1.963.322-2.91-.185-.264-.185-.264 0-.537.655-.937.528-2.05-.322-2.9-.664-.674-.918-.733-3.164-.733-1.856 0-1.875 0-2.11.244zm4.199 1.563a.761.761 0 01.244.537c0 .186-.088.39-.244.537-.225.234-.283.244-1.563.244H12.5V8.594h1.318c1.28 0 1.338.01 1.563.244zm0 3.125a.761.761 0 01.244.537c0 .185-.088.39-.244.537-.225.234-.283.244-1.563.244H12.5V11.72h1.318c1.28 0 1.338.01 1.563.244zM21.145 7.12a3.301 3.301 0 00-2.1 1.718c-.244.478-.244.537-.274 3.242l-.029 2.764h1.572V12.5h3.126v2.344h1.572l-.03-2.764-.029-2.754-.264-.498c-.39-.732-.683-1.045-1.337-1.396-.635-.332-1.602-.479-2.207-.313zm1.591 1.737c.498.372.645.674.684 1.397l.039.684h-3.145v-.528c0-.85.293-1.396.928-1.68.39-.185 1.162-.117 1.494.127zM26.807 7.275l-.244.235v7.334h1.562l.02-2.315.029-2.314 1.69 2.256c.927 1.24 1.757 2.285 1.835 2.314a.795.795 0 00.87-.185l.243-.235V7.031H31.25l-.02 2.315-.029 2.314-1.69-2.256c-.927-1.24-1.757-2.285-1.835-2.314a.795.795 0 00-.87.185zM34.375 10.938v3.906h1.553l.029-1.328.03-1.329.458.4c.498.45.918 1.192 1.016 1.837l.068.42H39.092l-.069-.537c-.127-1.133-.869-2.442-1.709-3.037-.214-.157-.4-.303-.4-.332 0-.03.186-.176.4-.333.84-.595 1.583-1.904 1.71-3.037l.068-.537H37.53l-.07.41c-.097.655-.517 1.397-1.015 1.846l-.459.4-.029-1.328-.03-1.328h-1.552v3.907zM35.4 32.275l-.244.235V37.803l.244.234.235.244H40.928l.234-.244.244-.234V32.51l-.244-.235-.234-.244H35.635l-.235.244zm4.444 2.881v1.563h-3.125v-3.125h3.125v1.562z" fill="#271291"/></svg>