<svg width="120" height="33" fill="none" xmlns="http://www.w3.org/2000/svg"><path d="M35.117 7.061h1.663l5.204 6.764 5.032-6.764h1.618v13.452h-1.806V10.079l-4.678 6.187h-.432l-4.816-6.187v10.434h-1.785V7.06zM56.482 7.023h1.413l6.013 13.49h-1.862l-1.53-3.404H53.8l-1.507 3.403H50.47l6.013-13.49zm-2.017 8.553h5.386l-2.699-6.112-2.688 6.112zM76.718 18.321c-1.037 1.42-3.093 2.365-5.326 2.365-4.328 0-7.072-2.718-7.072-6.9 0-3.86 2.683-6.9 6.933-6.9 2.467 0 4.345 1.017 5.27 2.23l-1.158 1.087a5.365 5.365 0 00-1.858-1.244 5.451 5.451 0 00-2.215-.387c-3.192 0-5.11 2.175-5.11 5.225s2.134 5.226 5.326 5.226c.791.02 1.576-.132 2.3-.444a5.37 5.37 0 001.89-1.362l1.02 1.104zM90.077 18.321c-1.036 1.42-3.092 2.365-5.326 2.365-4.328 0-7.071-2.718-7.071-6.9 0-3.86 2.682-6.9 6.933-6.9 2.466 0 4.35 1.017 5.27 2.23l-1.158 1.087a5.364 5.364 0 00-1.858-1.244 5.451 5.451 0 00-2.215-.387c-3.192 0-5.11 2.175-5.11 5.225s2.133 5.226 5.326 5.226c.79.02 1.576-.131 2.3-.443a5.363 5.363 0 001.89-1.363l1.019 1.104zM96.654 7.023h1.413l5.991 13.49h-1.862l-1.53-3.404h-6.695l-1.507 3.403h-1.823l6.013-13.49zm-2.017 8.553h5.386l-2.704-6.112-2.683 6.112zM105.938 20.513V7.06h5.325c4.583 0 5.625 2.175 5.625 4.225 0 2.175-1.451 4.268-5.642 4.268h-3.524v4.959h-1.784zm1.784-11.82v5.246h3.486c2.682 0 3.835-1.087 3.835-2.67 0-1.5-.976-2.577-3.702-2.577h-3.619z" fill="#271291"/><path d="M39.254 26.303h-3.22v5.154h-.698V25.64h4.66v5.817h-.72l-.022-5.154zM40.945 25.64h4.872v.663h-2.078v5.154h-.721v-5.154h-2.073v-.663zM50.923 30.892a2.803 2.803 0 01-1.873.674 2.914 2.914 0 01-1.184-.187 2.871 2.871 0 01-1.002-.647 2.805 2.805 0 01-.644-.992 2.763 2.763 0 01-.174-1.164c-.028-.392.03-.785.166-1.154.138-.37.353-.706.631-.989.279-.282.615-.504.986-.651A2.91 2.91 0 0149 25.58a2.808 2.808 0 011.807.544l-.332.544c-.425-.3-.94-.452-1.463-.43-.305 0-.607.06-.886.179-.28.118-.531.292-.74.51a2.136 2.136 0 00-.592 1.637 2.14 2.14 0 00.626 1.675c.22.22.483.392.775.505.291.112.603.163.916.148.55.003 1.084-.18 1.514-.516l.299.516zM53.96 31.457V25.64h.721v4.654l3.603-4.654h.637v5.817h-.72v-4.654l-3.603 4.654h-.637zM64.674 28.848h-3.258v2.61h-.72V25.64h.72v2.517h3.258V25.64h.72v5.817h-.72v-2.61zM66.54 25.64h.842l2.344 2.784-2.438 3.033h-.843l2.494-3.034-2.4-2.783zm3.325 0h.72v5.817h-.72V25.64zm1.662 2.773l2.489 3.044h-.831l-2.44-3.034 2.345-2.783h.837l-2.4 2.773zM75.078 31.457V25.64h.715v4.654l3.603-4.654h.631v5.817h-.72v-4.654l-3.597 4.654h-.632zM85.773 28.848H82.51v2.61h-.72V25.64h.72v2.517h3.263V25.64h.721v5.817h-.72v-2.61zM88.281 31.457V25.64h.721v4.654l3.602-4.654h.632v5.817h-.72v-4.654l-3.598 4.654h-.637zM95.016 31.457V25.64h1.551c1.696 0 2.217.902 2.217 1.805 0 .902-.687 1.832-2.134 1.832-.238 0-.593 0-.892-.033v2.213h-.742zm.72-5.154v2.245c.288 0 .554.039.864.039.876 0 1.397-.44 1.397-1.17 0-.728-.421-1.13-1.363-1.13-.233 0-.615.005-.887.016h-.011zM100.07 31.457V25.64h.721v4.654l3.602-4.654h.638v5.817h-.721v-4.654l-3.575 4.654h-.665zM110.78 28.848h-3.259v2.61h-.693V25.64h.721v2.517h3.259V25.64h.72v5.817h-.72l-.028-2.61zM113.273 25.64h3.326v.663h-2.588v5.154h-.721l-.017-5.817z" fill="#E20613"/><path d="M19.676 18.531c2.08 1.179 4.741.48 5.942-1.56 1.2-2.04.487-4.65-1.594-5.828L8.118 2.133c-2.08-1.178-4.74-.48-5.941 1.56-1.2 2.04-.487 4.65 1.593 5.829l15.906 9.01z" fill="url(#paint0_linear_428_6915)"/><path d="M3.849 20.147c-2.081 1.179-2.795 3.788-1.594 5.828 1.2 2.04 3.86 2.739 5.941 1.56l15.83-8.966c2.08-1.178 2.793-3.788 1.593-5.828-1.2-2.04-3.86-2.738-5.942-1.56L3.85 20.147z" fill="#E20613"/><path d="M5.913 28.206c2.424 0 4.389-1.928 4.389-4.306s-1.965-4.306-4.39-4.306c-2.423 0-4.389 1.928-4.389 4.306s1.966 4.306 4.39 4.306z" fill="#271291"/><defs><linearGradient id="paint0_linear_428_6915" x1="1.595" y1="10.333" x2="26.202" y2="10.333" gradientUnits="userSpaceOnUse"><stop stop-color="#E20613"/><stop offset=".14" stop-color="#C0082A"/><stop offset=".44" stop-color="#7F0C56"/><stop offset=".7" stop-color="#4F0F76"/><stop offset=".89" stop-color="#32118A"/><stop offset="1" stop-color="#271291"/></linearGradient></defs></svg>