<svg width="36" height="36" fill="none" xmlns="http://www.w3.org/2000/svg"><g clip-path="url(#clip0_218_820)"><path d="M36 18c0-9.941-8.059-18-18-18S0 8.059 0 18s8.059 18 18 18 18-8.059 18-18z" fill="#05A0EB"/><path d="M16.628 19.398l-.238 3.133c.34 0 .488-.136.665-.302l1.591-1.428 3.299 2.267c.605.316 1.03.15 1.195-.523l2.166-9.526c.193-.837-.322-1.165-.911-.957l-12.729 4.576c-.869.315-.855.77-.149.976l3.254.948 7.56-4.44c.355-.22.678-.1.41.124l-6.11 5.153h-.003z" fill="#fff"/></g><defs><clipPath id="clip0_218_820"><path fill="#fff" d="M0 0h36v36H0z"/></clipPath></defs></svg>