<svg width="60" height="60" fill="none" xmlns="http://www.w3.org/2000/svg"><path d="M2.813 1.09c-.574.187-1.558 1.195-1.734 1.793-.2.703-.2 36.656 0 37.36.188.644 1.16 1.616 1.805 1.804.363.105 2.637.14 8.918.14h8.425l.633.891c.739 1.031 2.157 2.484 3.176 3.27.879.68 2.602 1.71 3.328 1.992l.551.21-1.5 1.5-1.512 1.513h-3.339v-1.594c0-.914-.06-1.805-.141-2.086-.188-.645-1.16-1.617-1.805-1.805-.691-.2-12.293-.2-12.984 0-.645.188-1.617 1.16-1.805 1.805-.2.68-.2 8.554 0 9.234.188.645 1.16 1.617 1.805 1.805.691.2 12.293.2 12.984 0 .645-.188 1.617-1.16 1.805-1.805.082-.281.14-1.172.14-2.086v-1.593h4.149l2.121-2.11 2.121-2.121.879.2c1.113.257 4.36.292 5.613.058 1.676-.293 4.043-1.172 5.227-1.91l.48-.305 1.207 1.207 1.207 1.207-.257.316c-.13.176-.247.493-.247.692 0 .316.41.773 3.598 3.95 3.938 3.913 4.172 4.089 5.707 4.358 3.246.551 6.164-2.367 5.613-5.613-.27-1.535-.445-1.77-4.359-5.707-3.176-3.176-3.633-3.597-3.95-3.597-.198 0-.515.117-.69.246l-.317.257-1.184-1.195-1.195-1.184h4.7c5.425 0 5.46 0 6.292-.937.282-.305.575-.773.645-1.031.2-.668.2-36.645 0-37.313-.07-.258-.363-.726-.645-1.031C57.353.844 60.095.938 29.954.949c-19.137.012-26.848.047-27.14.14zm54.083 2.015l.292.282v36.351l-.293.282-.28.292H52.43c-3.926 0-4.172-.011-4.09-.21.363-.809.785-2.168 1.02-3.2.34-1.57.374-4.511.058-6.105-.961-4.84-4.148-9.082-8.438-11.25l-.703-.352 2.332-2.332 2.332-2.332.035 1.172.036 1.172h1.863v-2.52c0-3.375.27-3.105-3.105-3.105h-2.52v1.875h2.402l-2.672 2.672-2.683 2.683-.88-.21a20.547 20.547 0 00-2.015-.34c-.62-.07-1.148-.164-1.195-.211-.035-.047-1.031-1.64-2.215-3.54-1.172-1.898-2.25-3.55-2.367-3.667-.211-.176-.504-.2-2.274-.2h-2.038V8.72c0-1.91-.118-2.344-.786-3.094-.855-.96-.714-.938-7.629-.938-4.394 0-6.164.036-6.515.141-.645.188-1.617 1.16-1.805 1.805-.2.68-.2 8.555 0 9.234.188.645 1.16 1.617 1.805 1.805.351.105 2.12.14 6.515.14 6.915 0 6.774.024 7.63-.937.667-.75.785-1.184.785-3.094v-1.594h3.246l1.77 2.836c1.394 2.239 1.733 2.86 1.57 2.883-4.044.703-6.762 2.016-9.294 4.5l-.925.914-.492-.55c-.985-1.102-1.125-1.207-1.465-1.207-.176 0-.399.046-.47.093-.081.059-2.495 2.649-5.366 5.778l-5.215 5.671.68.61c.363.34.69.61.726.61.035 0 2.191-2.333 4.805-5.192l4.746-5.203.457.445.457.445-.422.68a16.054 16.054 0 00-2.027 5.285c-.223 1.125-.293 3.785-.13 5.04l.095.737H6.563V11.25H4.688v13.29c0 12.901.012 13.288.223 13.558l.223.28 6.703.06 6.703.058.27.703c.14.387.304.797.351.903.082.199-.34.21-7.84.21H3.388l-.282-.292-.293-.282V3.387l.293-.282.282-.292h53.226l.282.292zm-33.75 3.75l.293.282v8.226l-.294.282-.28.293H10.887l-.282-.293-.293-.282V7.137l.293-.282.282-.293h11.976l.281.293zm13.652 13.172c4.851 1.102 8.789 4.676 10.3 9.352.516 1.617.657 2.52.657 4.371 0 .973-.07 2.05-.164 2.52-1.137 5.718-5.274 9.937-11.051 11.273-1.184.27-4.371.27-5.578 0-5.73-1.3-9.926-5.578-11.05-11.273-.247-1.208-.212-4.09.058-5.333.902-4.183 3.586-7.734 7.3-9.632 1.594-.82 2.93-1.242 4.899-1.547.797-.117 3.656.047 4.629.27zm10.488 24.856l1.055 1.054-1.207 1.208-1.196 1.195-1.078-1.078-1.066-1.067 1.16-1.183c.633-.645 1.184-1.172 1.219-1.184.035 0 .539.48 1.113 1.055zm6.41 4.535c3.246 3.258 3.48 3.574 3.492 4.676 0 1.77-1.324 3.093-3.093 3.093-1.114 0-1.5-.292-4.758-3.562l-2.988-3 2.109-2.11c1.16-1.16 2.133-2.109 2.168-2.109.035 0 1.418 1.36 3.07 3.012zm-34.3-1.313l.293.282v8.226l-.294.282-.28.292H7.137l-.282-.292-.293-.282v-8.226l.293-.282.282-.292h11.976l.281.292z" fill="#E20613"/><path d="M12.188 9.375v.938h9.375V8.437h-9.376v.938zM12.188 13.125v.938h9.375v-1.876h-9.376v.938zM31.736 21.738c-4.336.727-8.063 3.867-9.48 8.004-.88 2.531-.891 5.39-.047 7.863 1.383 4.067 4.851 7.16 9.023 8.051 1.219.258 2.906.328 4.09.176 5.402-.727 9.68-4.969 10.488-10.406.446-3.012-.422-6.457-2.25-8.895-.633-.832-2.144-2.297-2.918-2.836-2.508-1.722-5.883-2.46-8.906-1.957zm-1.441 4.758l-3.047 3.047-.844-.914c-.469-.504-.855-.961-.855-1.008 0-.223.902-1.184 1.734-1.851.914-.739 2.226-1.454 3.281-1.805.61-.2 2.074-.492 2.543-.516.153-.012-.797 1.02-2.812 3.047zm7.172-2.355c1.956.75 3.902 2.367 5.003 4.136 2.555 4.114 1.97 9.328-1.453 12.739-3.726 3.738-9.515 4.054-13.676.773-.937-.75-2.085-2.074-2.507-2.906l-.223-.446h11.016v-1.875H23.802l-.152-.68c-.223-.984-.187-3.538.059-4.476.258-.949.668-1.992.785-1.992.058 0 .562.527 1.137 1.172 1.03 1.172 1.324 1.371 1.828 1.242.14-.035 2.074-1.887 4.3-4.113 4.618-4.63 3.997-4.242 5.708-3.574zM8.438 50.625v.938h9.375v-1.876H8.437v.938zM8.438 54.375v.938h9.375v-1.876H8.437v.938z" fill="#E20613"/></svg>