<svg width="60" height="60" fill="none" xmlns="http://www.w3.org/2000/svg"><path d="M27.89 1.113c-2.952.504-5.859 2.11-7.734 4.278-4.582 5.332-4.324 13.019.586 17.93 4.946 4.944 12.668 5.155 18.012.503 1.547-1.348 3.047-3.644 3.703-5.672 1.98-6.07-.715-12.726-6.34-15.668-2.578-1.347-5.52-1.828-8.226-1.37zm4.864 2.051c2.121.574 3.563 1.406 5.156 2.988 1.594 1.594 2.414 3.012 3.012 5.215.375 1.383.375 3.938 0 5.367-.539 2.074-1.5 3.75-3 5.25s-3.176 2.461-5.25 3c-1.43.375-3.984.375-5.367 0-2.203-.597-3.621-1.418-5.215-3.012-1.594-1.605-2.414-3.035-3-5.214-.352-1.29-.387-3.95-.07-5.203.527-2.098 1.5-3.832 3.011-5.356 1.723-1.758 3.61-2.766 6.012-3.223 1.184-.222 3.492-.128 4.711.188z" fill="#E20613"/><path d="M29.762 4.77c-.41.152-.68.574-1.887 2.988l-1.277 2.554H21.195l-.28.293c-.352.34-.388.868-.083 1.207.105.13 1.113.95 2.227 1.84 1.101.88 2.015 1.664 2.015 1.746 0 .07-.363 1.243-.82 2.59-.445 1.348-.82 2.578-.82 2.73 0 .376.503.845.902.845.223 0 1.16-.551 2.988-1.782l2.672-1.77 2.672 1.77c1.828 1.23 2.766 1.782 2.988 1.782.399 0 .903-.47.903-.844 0-.153-.364-1.383-.82-2.73-.446-1.348-.821-2.52-.821-2.59 0-.083.914-.868 2.027-1.747 1.102-.89 2.11-1.71 2.227-1.84.293-.34.258-.867-.094-1.207l-.281-.293H33.395L32.047 7.63c-1.207-2.414-1.383-2.695-1.711-2.813-.211-.07-.375-.128-.387-.117-.012 0-.094.035-.187.07zm1.289 5.085c.55 1.102 1.101 2.075 1.23 2.168.164.118.657.165 1.864.165h1.628l-1.43 1.136c-.925.739-1.452 1.242-1.5 1.43-.046.2.106.844.47 1.922l.539 1.617-.317-.2c-.176-.116-.972-.644-1.781-1.183-.867-.574-1.582-.973-1.758-.973-.176 0-.89.399-1.758.973-.808.54-1.605 1.067-1.781 1.184l-.316.199.539-1.617c.375-1.125.515-1.723.468-1.934-.058-.21-.527-.668-1.511-1.43l-1.418-1.124h1.629c1.207 0 1.699-.047 1.863-.165.129-.093.68-1.066 1.23-2.168.54-1.101 1.02-2.003 1.055-2.003.035 0 .516.902 1.055 2.003zM10.617 19.957c-.199.211-.281.457-.34 1.078a4.723 4.723 0 01-4.254 4.242c-.937.082-1.335.375-1.335.973s.398.89 1.335.973a4.723 4.723 0 014.254 4.242c.082.95.375 1.348.973 1.348s.89-.399.973-1.348a4.723 4.723 0 014.254-4.242c.937-.082 1.335-.375 1.335-.973s-.398-.89-1.335-.973a4.723 4.723 0 01-4.254-4.242c-.082-.95-.375-1.348-.973-1.348a.94.94 0 00-.633.27zm1.149 4.758a5.25 5.25 0 001.02 1.02c.316.245.573.48.573.515 0 .035-.257.27-.574.516a5.25 5.25 0 00-1.02 1.02c-.245.316-.48.573-.515.573-.035 0-.27-.257-.516-.574a5.25 5.25 0 00-1.02-1.02c-.316-.245-.573-.48-.573-.515 0-.035.257-.27.574-.516a5.25 5.25 0 001.02-1.02c.245-.316.48-.573.515-.573.035 0 .27.257.516.574zM48.117 19.957c-.199.211-.281.457-.34 1.078a4.723 4.723 0 01-4.254 4.242c-.937.082-1.336.375-1.336.973s.399.89 1.336.973a4.723 4.723 0 014.254 4.242c.082.95.375 1.348.973 1.348s.89-.399.973-1.348a4.723 4.723 0 014.254-4.242c.937-.082 1.336-.375 1.336-.973s-.399-.89-1.336-.973a4.723 4.723 0 01-4.254-4.242c-.082-.95-.375-1.348-.973-1.348a.94.94 0 00-.633.27zm1.149 4.758a5.25 5.25 0 001.02 1.02c.316.245.573.48.573.515 0 .035-.257.27-.574.516a5.25 5.25 0 00-1.02 1.02c-.245.316-.48.573-.515.573-.035 0-.27-.257-.516-.574a5.25 5.25 0 00-1.02-1.02c-.316-.245-.573-.48-.573-.515 0-.035.257-.27.574-.516a5.25 5.25 0 001.02-1.02c.245-.316.48-.573.515-.573.035 0 .27.257.516.574z" fill="#E20613"/><path d="M19.043 29.355l-.293.282v6.926H3.387l-.282.292-.292.282v14.426h-.645c-.54 0-.703.046-.938.292l-.292.282v6.351l.292.282.282.292h56.976l.282-.292.292-.282v-6.351l-.292-.282c-.235-.246-.399-.292-.938-.292h-.645V37.136l-.292-.282-.282-.292H41.25v-6.926l-.293-.282-.281-.293H19.324l-.281.293zM39.375 41.25v10.313h-18.75V30.936h18.75V41.25zM18.75 39.375v.938H4.688v-1.876H18.75v.938zm36.563 0v.938H41.25v-1.876H55.313v.938zm-36.563 7.5v4.688H4.688v-9.376H18.75v4.688zm36.563 0v4.688H41.25v-9.376H55.313v4.688zm1.874 8.438v1.874H2.813v-3.75h54.376v1.876z" fill="#E20613"/><path d="M27.145 35.273l-1.536 1.524.668.668.68.68 1.266-1.266c.843-.844 1.347-1.254 1.523-1.254h.258V47.812h1.875V34.325l-.293-.281c-.27-.281-.352-.293-1.594-.293H28.68l-1.535 1.523z" fill="#E20613"/></svg>