<svg width="60" height="59" fill="none" xmlns="http://www.w3.org/2000/svg"><path d="M10.605 1.23c-.28.27-.293.34-.293 1.876v1.582h-8.8l-.282.293-.292.28v49.477l.292.282.282.293h28.887l.82.562c2.18 1.5 4.64 2.473 7.312 2.906 1.594.258 4.23.223 5.836-.07 7.266-1.313 12.774-6.715 14.367-14.098.364-1.71.364-5.109 0-6.832-.539-2.484-1.64-5.027-3.047-7.02-.902-1.253-2.789-3.116-4.101-4.042-2.883-2.027-6.035-3.106-9.54-3.246l-1.733-.07V5.261l-.294-.281-.28-.293h-8.802V3.106c0-1.536-.011-1.606-.293-1.875l-.28-.293H10.886l-.282.293zm18.457 4.395v2.813H12.188V2.813h16.876v2.812zm-18.75 2.52c0 1.535.012 1.605.293 1.875l.282.293h19.476l.282-.293c.28-.27.293-.34.293-1.875V6.563h7.5V23.637l-.669.14c-.374.07-.796.165-.937.2l-.27.07V12.762l-.292-.282-.282-.292H5.262l-.282.292-.293.282v36.351l.293.282.282.293h20.343l.329.585c.293.528 1.242 1.829 2.027 2.778l.316.387H2.813V6.563h7.5v1.582zm24.376 11.214v5.309l-.891.399c-1.16.527-2.695 1.488-3.762 2.367l-.855.691H17.813V30H27.41l-.668.938-.668.937h-8.262v1.875h3.645c2.871 0 3.633.035 3.586.14-.492 1.184-.715 1.77-.95 2.579l-.28.972-3 .036-3 .023v1.875h5.777l-.082.363c-.035.2-.07.621-.07.938v.574h-5.626v1.875H23.496l.258 1.313c.14.726.41 1.78.61 2.343l.34 1.032H6.562v-33.75h28.125v5.296zm9.117 6.13c3.972.644 7.746 2.917 10.172 6.14.925 1.219 2.168 3.691 2.554 5.074 1.594 5.602.153 11.426-3.867 15.563-1.781 1.828-3.879 3.187-6.21 3.996-3.294 1.136-7.067 1.148-10.36.023-8.04-2.754-12.48-11.332-10.125-19.582.386-1.383 1.629-3.844 2.554-5.074 2.403-3.188 6.106-5.438 10.09-6.129 1.266-.223 3.844-.223 5.192-.012z" fill="#E20613"/><path d="M14.063 5.625v.938h1.875V4.687h-1.876v.938zM25.313 5.625v.938h1.875V4.687h-1.876v.938zM15.352 17.05l-.75.762H9.01l-.28.293-.293.282v6.351l.292.282.282.293h6.351l.282-.293.293-.282V19.15l.761-.75c.422-.41.762-.81.762-.88 0-.152-1.078-1.23-1.242-1.23-.059 0-.457.34-.867.762zm-3.2 3.2c-.304.305-.55.61-.539.668.012.07.305.375.645.691l.644.586.575-.574.585-.574v2.39h-3.75v-3.75h2.391l-.55.563zM17.813 19.688v.937h15V18.75h-15v.938zM17.813 23.438v.937h11.25V22.5h-11.25v.938zM30.938 23.438v.937h1.875V22.5h-1.876v.938zM15.352 26.426l-.75.762H9.01l-.28.293-.293.28v6.352l.292.282.282.292h6.351l.282-.292.293-.282v-5.589l.761-.75c.422-.41.762-.81.762-.88 0-.152-1.078-1.23-1.242-1.23-.059 0-.457.34-.867.762zm-3.2 3.199c-.304.305-.55.61-.539.668.012.07.305.375.645.691l.644.586.575-.574.585-.574v2.39h-3.75v-3.749h2.391l-.55.562zM15.352 35.8l-.75.763H9.01l-.28.292-.293.282v6.351l.292.282.282.292h6.351l.282-.292.293-.282V37.9l.761-.75c.422-.41.762-.81.762-.88 0-.152-1.078-1.23-1.242-1.23-.059 0-.457.34-.867.762zm-3.2 3.2c-.304.305-.55.61-.539.668.012.07.305.375.645.691l.644.586.575-.574.585-.574v2.391h-3.75v-3.75h2.391l-.55.562zM31.733 31.606c-1.407 1.406-2.59 2.672-2.625 2.812-.035.14-.035.375.011.528.094.304 4.196 4.5 4.91 5.027.399.305.551.34 1.29.34.832 0 .855.011 1.3.468l.457.47-.504.515-.492.504-1.101-.059c-.88-.047-1.242-.012-1.887.188-2.86.879-4.582 3.843-3.855 6.644.234.867.55 1.23 1.078 1.23.351 0 .562-.152 1.664-1.23l1.265-1.23h1.442V49.278l-1.23 1.23c-1.102 1.101-1.231 1.266-1.231 1.652 0 .621.363.89 1.476 1.125 3.54.715 6.832-2.226 6.575-5.894-.07-.903-.059-.973.222-1.23l.282-.27 3.726 3.703c2.332 2.332 3.832 3.738 4.031 3.785.164.047.422.012.586-.058.352-.188 3.54-3.317 3.973-3.915.187-.246.34-.597.34-.761 0-.235-.785-1.079-3.774-4.079l-3.773-3.785.316-.328c.317-.328.34-.328 1.008-.222.856.14 2.227-.118 3.164-.586 2.262-1.149 3.504-3.856 2.883-6.305-.117-.445-.293-.797-.48-.973-.551-.48-.786-.375-2.215 1.032l-1.301 1.289H47.81v-1.442l1.23-1.265c1.149-1.172 1.23-1.29 1.23-1.735 0-.351-.07-.515-.292-.703-.657-.515-2.578-.633-3.832-.246-2.543.785-4.114 3.117-3.914 5.812l.07.938-.527.516-.528.515-.468-.457-.47-.457v-1.887l-2.613-2.601c-2.378-2.39-2.636-2.613-3.011-2.613-.364 0-.621.222-2.953 2.543zm14.93.082l-.727.75V35.883l.34.34.34.34h1.628c1.817 0 1.793 0 2.754-.914l.551-.54-.117.47c-.211.75-.528 1.253-1.102 1.792-.984.903-2.156 1.219-3.375.89-.375-.093-.761-.175-.855-.175-.106 0-.492.293-.88.656-.597.575-.75.668-1.16.68-.41.012-.538-.059-.96-.48l-.48-.493.843-.902.856-.89-.07-.61c-.212-1.629-.212-1.805-.024-2.45.105-.363.363-.878.574-1.16.574-.75 1.688-1.44 2.414-1.488.094-.011-.164.328-.55.739zm-10.079 1.558l1.852 1.852v.82c0 .574.058.914.187 1.113.106.165.961 1.067 1.91 2.028l1.711 1.722-.726.727-.739.738-1.91-1.91-1.91-1.898h-1.863l-1.875-1.875-1.875-1.875 1.64-1.641c.903-.902 1.665-1.64 1.7-1.64.035 0 .89.831 1.898 1.84zm11.051 11.988l3.516 3.516-1.207 1.196-1.196 1.207-3.539-3.54-3.55-3.55 1.171-1.172c.645-.645 1.196-1.172 1.23-1.172.036 0 1.641 1.582 3.575 3.515zm-8.613-2.168c.328.34.41.516.41.915.012.445-.059.562-.633 1.16l-.633.668.094.68c.281 1.933.012 3.011-1.008 3.96-.586.551-1.383.985-1.805.997-.187 0-.14-.094.247-.505.867-.902.867-.89.867-2.753 0-1.617-.012-1.688-.293-1.957-.27-.282-.328-.293-2.051-.293h-1.781l-.762.726c-.703.692-.75.715-.68.387.153-.668.657-1.559 1.114-1.98.832-.75 1.336-.938 2.46-.938.551 0 1.243.047 1.536.094l.55.094.856-.833c.48-.445.926-.832.996-.832.059 0 .293.188.516.41z" fill="#E20613"/></svg>