<svg width="60" height="60" fill="none" xmlns="http://www.w3.org/2000/svg"><path d="M19.981 1.23c-.293.282-.293.305-.293 2.52s0 2.238.293 2.52c.234.246.398.293.938.293h.644V20.625h-6.094l.328-.445c.176-.258.422-.68.54-.938l.222-.492h.82c1.172 0 1.688-.188 2.38-.879.421-.422.632-.75.738-1.148.246-.88.023-1.934-.575-2.602-.164-.187-.222-.527-.27-1.875-.046-1.312-.116-1.816-.35-2.543-.446-1.383-1.055-2.379-2.122-3.445-1.055-1.055-2.05-1.676-3.445-2.133-.785-.258-1.102-.305-2.484-.305-1.383 0-1.7.047-2.485.305-1.394.457-2.39 1.078-3.445 2.133C4.254 7.324 3.645 8.32 3.2 9.703c-.235.727-.305 1.23-.352 2.543-.058 1.371-.094 1.676-.281 1.875-.34.375-.692 1.254-.692 1.746 0 .809.247 1.383.88 2.004.68.692 1.195.879 2.367.879h.82l.223.492a7.1 7.1 0 00.527.914l.316.446-1.265.046c-1.184.047-1.348.082-2.145.48-1.055.517-1.723 1.208-2.226 2.286l-.375.785-.036 6.797c-.023 5.145 0 6.926.106 7.324.105.364.328.703.738 1.114.668.668 1.207.879 2.227.879h.656v13.335l-.352.141c-.492.2-1.218 1.055-1.382 1.617-.082.258-.141 1.055-.141 1.77 0 1.23.012 1.324.293 1.593l.281.294h15.727l.281-.294c.281-.269.293-.363.293-1.593 0-.715-.059-1.512-.14-1.77-.165-.562-.891-1.418-1.383-1.617l-.352-.14V27.187h3.75v1.875h-.644c-.54 0-.704.046-.938.293-.293.28-.293.304-.293 2.519 0 2.215 0 2.238.293 2.52l.281.292H38.438v3.024l-.352.14c-.796.329-1.523 1.512-1.523 2.485 0 .95.691 2.062 1.559 2.52.48.246 1.453.316 2.062.152 1.055-.281 2.004-1.547 2.004-2.672 0-.973-.727-2.156-1.523-2.484l-.352-.141V34.688H58.489l.281-.294c.293-.28.293-.304.293-2.519 0-2.215 0-2.238-.293-2.52-.234-.246-.398-.293-.938-.293h-.644v-22.5h.645c.539 0 .703-.046.937-.292.293-.282.293-.305.293-2.52s0-2.238-.293-2.52l-.281-.292H20.262l-.281.292zm37.207 2.52v.938H21.563V2.812h35.625v.938zM12.493 5.754c.375.07 1.125.328 1.652.586 2.262 1.09 3.668 3.398 3.668 6.047v.738h-.469c-.34 0-.469-.047-.469-.176 0-.293-.539-.761-.867-.761-.164 0-.691.187-1.16.421l-.867.434-1.277-.434c-.704-.234-1.395-.421-1.536-.421-.152 0-.468.187-.726.41l-.457.41-1.758-.434c-1.969-.48-2.273-.457-2.52.2-.117.304-.187.351-.574.351h-.445v-.738c0-2.649 1.371-4.91 3.668-6.047 1.383-.68 2.637-.856 4.137-.586zm42.82 12.058v11.25H23.438v-1.875h.445c1.782 0 3.305-1.511 3.305-3.28 0-1.77-1.523-3.282-3.305-3.282h-.445V6.563h31.875v11.25zM14.086 15c.13 0 .387-.082.586-.188l.352-.187-.047 1.629c-.047 1.57-.059 1.64-.445 2.355-.434.82-.809 1.172-1.688 1.641-.504.258-.75.305-1.593.305-.915.011-1.055-.024-1.735-.387-.808-.434-1.289-.938-1.687-1.77-.223-.457-.258-.773-.305-2.308l-.047-1.77 1.324.34c.739.188 1.453.34 1.606.34.14 0 .457-.176.691-.398l.434-.387 1.172.387c.644.222 1.265.398 1.382.398zm-8.46.938v.937H4.98c-.785 0-1.23-.34-1.23-.938 0-.597.445-.937 1.23-.937h.644v.938zm12.831-.645a.913.913 0 01.293.645c0 .597-.445.937-1.23.937h-.645V15h.645c.54 0 .703.047.938.293zM7.56 23.051c.176 1.207.844 2.144 1.957 2.742.68.363.82.398 1.735.398.914 0 1.054-.035 1.734-.398.41-.223.867-.563 1.031-.75.445-.527.832-1.371.926-1.992l.082-.551h4.664V25.313h-1.582c-1.535 0-1.606.011-1.875.293l-.293.28v8.802H6.563V26.25H4.688V34.687H2.813v-4.874c0-3.493.035-5.016.14-5.368.176-.597 1.16-1.605 1.735-1.793.223-.07.95-.129 1.594-.14l1.195-.012.082.55zm5.52-.176c-.082.457-.364.867-.82 1.195-.458.34-1.56.34-2.016 0-.457-.328-.739-.738-.82-1.195l-.07-.375h3.808l-.082.375zm11.789.07c.328.328.386.457.386.961s-.058.633-.386.961l-.375.387-1.465.035-1.465.047v-2.86l1.465.047 1.465.036.375.386zm32.32 8.93v.938H21.563v-1.876h35.625v.938zM4.688 37.5v.938h-.645c-.914 0-1.23-.317-1.23-1.231v-.645h1.875v.938zm11.25 7.5v8.438h-3.75V40.312h-1.875v13.126h-3.75V36.561h9.375V45zm24.082-5.332c.586.574.176 1.582-.645 1.582-.48 0-.937-.457-.937-.938 0-.48.457-.937.938-.937.222 0 .468.105.644.293zM10.313 56.25v.938H4.688v-.645c0-.54.047-.703.293-.938.281-.292.281-.292 2.812-.292h2.52v.937zm7.207-.645c.246.235.293.399.293.938v.645h-5.625v-1.876h2.52c2.53 0 2.53 0 2.812.294z" fill="#E20613"/><path d="M47.777 8.414c-.304.305-.55.61-.55.668 0 .059.246.363.55.668l.551.563H39.95l-.281.293c-.293.28-.293.304-.293 2.437v2.168l-.352.14c-.796.329-1.523 1.512-1.523 2.462 0 .949.727 2.132 1.523 2.46l.352.141v3.024h-2.45c-2.378 0-2.46-.012-2.53-.246-.13-.387-.762-1.032-1.278-1.313-.668-.352-1.816-.352-2.484.012-.621.316-1.254 1.054-1.43 1.652-.328 1.055-.082 1.945.738 2.766.903.914 1.946 1.113 3.047.597.598-.27 1.266-.914 1.407-1.347.07-.246.14-.246 3.175-.246h3.106l.281-.293c.293-.282.293-.305.293-2.438v-2.168l.352-.14c.796-.329 1.523-1.512 1.523-2.461 0-.95-.727-2.133-1.523-2.461l-.352-.141V12.188H48.328l-.574.585-.586.587.68.68.668.667 1.523-1.535c2.004-2.016 2.004-1.828.035-3.82-.82-.82-1.547-1.5-1.617-1.5-.07 0-.375.257-.68.562zm-6.82 8.754a.914.914 0 01.293.645.913.913 0 01-.293.644.913.913 0 01-.645.293.913.913 0 01-.644-.293.913.913 0 01-.293-.644c0-.223.105-.47.293-.645a.913.913 0 01.645-.293c.222 0 .468.106.644.293zm-8.438 6.563a.914.914 0 01.294.644.913.913 0 01-.294.645.913.913 0 01-.644.293.913.913 0 01-.645-.293.913.913 0 01-.293-.645c0-.223.106-.469.293-.644a.913.913 0 01.645-.293c.223 0 .469.105.645.293zM29.965 10.29c-.305.304-.55.608-.55.667 0 .059.245.363.55.668l.55.563-.55.562c-.305.305-.55.61-.54.668.012.07.305.375.645.691l.645.586.574-.574.586-.574.586.574.574.574.645-.586c.34-.316.633-.62.644-.691.012-.059-.234-.363-.539-.668l-.55-.563.55-.562c.305-.305.55-.61.55-.68 0-.14-1.077-1.218-1.23-1.218-.058 0-.363.246-.667.55l-.563.551-.563-.55c-.304-.305-.609-.551-.68-.551-.058 0-.363.257-.667.562zM46.84 22.477c-.305.304-.55.609-.55.668 0 .058.245.363.55.668l.55.562-.55.563c-.305.304-.55.609-.54.668.013.07.306.374.645.69l.645.587.574-.574.586-.575.586.575.574.574.645-.586c.34-.317.633-.621.644-.692.012-.058-.234-.363-.539-.668l-.55-.562.55-.563c.305-.304.55-.609.55-.68 0-.14-1.077-1.218-1.23-1.218-.058 0-.363.246-.667.55l-.563.552-.563-.551c-.304-.305-.609-.55-.68-.55-.058 0-.362.257-.667.562z" fill="#E20613"/></svg>