<svg width="164" height="45" fill="none" xmlns="http://www.w3.org/2000/svg"><g clip-path="url(#clip0_417_6172)"><path d="M49.11 10.065h2.325l7.277 9.641 7.037-9.641h2.263v19.174h-2.526V14.366l-6.542 8.82h-.604l-6.735-8.82V29.24h-2.496V10.065zM78.995 10.01h1.976l8.41 19.229h-2.605l-2.139-4.852h-9.393l-2.108 4.852h-2.55l8.409-19.228zm-2.821 12.192h7.533l-3.774-8.711-3.76 8.71zM107.29 26.115c-1.449 2.023-4.324 3.372-7.448 3.372-6.053 0-9.889-3.876-9.889-9.835 0-5.503 3.751-9.836 9.696-9.836 3.449 0 6.076 1.45 7.37 3.178l-1.62 1.55a7.494 7.494 0 00-5.696-2.325c-4.464 0-7.146 3.1-7.146 7.448 0 4.348 2.984 7.448 7.448 7.448a7.526 7.526 0 005.859-2.573l1.426 1.573zM125.962 26.115c-1.449 2.023-4.324 3.372-7.448 3.372-6.052 0-9.889-3.876-9.889-9.835 0-5.503 3.751-9.836 9.696-9.836 3.449 0 6.084 1.45 7.37 3.178l-1.62 1.55a7.494 7.494 0 00-5.696-2.325c-4.464 0-7.146 3.1-7.146 7.448 0 4.348 2.984 7.448 7.448 7.448a7.513 7.513 0 005.859-2.573l1.426 1.573zM135.167 10.01h1.976l8.378 19.229h-2.604l-2.139-4.852h-9.362l-2.108 4.852h-2.55l8.409-19.228zm-2.821 12.192h7.533l-3.782-8.711-3.751 8.71zM148.148 29.239V10.065h7.448c6.409 0 7.866 3.1 7.866 6.022 0 3.1-2.03 6.084-7.89 6.084h-4.929v7.068h-2.495zm2.495-16.849v7.479h4.875c3.751 0 5.363-1.55 5.363-3.805 0-2.14-1.364-3.674-5.177-3.674h-5.061z" fill="#fff"/><path d="M54.901 37.493h-4.503v7.347h-.976v-8.293h6.518v8.293h-1.008l-.03-7.347zM57.258 36.547h6.812v.946h-2.906v7.347h-1.008v-7.347h-2.898v-.946zM71.212 44.034a3.875 3.875 0 01-2.62.96 4.006 4.006 0 01-4.2-4.262 4 4 0 014.131-4.27 3.875 3.875 0 012.527.775l-.465.775a3.263 3.263 0 00-2.046-.612 3.102 3.102 0 00-3.1 3.317 3.101 3.101 0 003.239 3.317 3.356 3.356 0 002.116-.736l.418.736zM75.469 44.84v-8.293h1.007v6.635l5.038-6.635h.891v8.293h-1.007v-6.634L76.36 44.84h-.891zM90.448 41.12H85.89v3.72h-1.007v-8.293h1.007v3.589h4.558v-3.589h1.007v8.293h-1.007v-3.72zM93.061 36.547h1.178l3.279 3.969-3.41 4.324H92.93l3.487-4.325-3.356-3.968zm4.65 0h1.008v8.293h-1.007v-8.293zm2.325 3.953l3.48 4.34h-1.162l-3.41-4.325 3.278-3.968h1.17l-3.356 3.953zM104.992 44.84v-8.293h1v6.635l5.038-6.635h.883v8.293h-1.007v-6.634l-5.03 6.634h-.884zM119.947 41.12h-4.564v3.72h-1.008v-8.293h1.008v3.589h4.564v-3.589h1.008v8.293h-1.008v-3.72zM123.469 44.84v-8.293h1.008v6.635l5.037-6.635h.884v8.293h-1.008v-6.634l-5.03 6.634h-.891zM132.875 44.84v-8.293h2.17c2.371 0 3.1 1.287 3.1 2.573 0 1.287-.961 2.612-2.984 2.612-.333 0-.829 0-1.248-.046v3.154h-1.038zm1.007-7.347v3.2c.403 0 .775.055 1.209.055 1.225 0 1.953-.628 1.953-1.666 0-1.039-.589-1.612-1.906-1.612-.326 0-.86.007-1.24.023h-.016zM139.938 44.84v-8.293h1.007v6.635l5.037-6.635h.892v8.293h-1.007v-6.634l-5 6.634h-.929zM154.917 41.12h-4.557v3.72h-.969v-8.293h1.008v3.589h4.557v-3.589h1.008v8.293h-1.008l-.039-3.72zM158.406 36.547h4.65v.946h-3.619v7.347h-1.008l-.023-8.293z" fill="#E20613"/><path d="M27.514 26.415a6.082 6.082 0 008.309-2.223 6.082 6.082 0 00-2.23-8.308L11.352 3.042a6.082 6.082 0 00-8.31 2.224 6.082 6.082 0 002.23 8.307l22.243 12.842z" fill="url(#paint0_linear_417_6172)"/><path d="M5.38 28.718a6.082 6.082 0 00-2.229 8.307 6.082 6.082 0 008.309 2.224l22.136-12.78a6.082 6.082 0 002.229-8.308 6.082 6.082 0 00-8.31-2.223L5.38 28.718z" fill="#E20613"/><path d="M8.271 40.206a6.138 6.138 0 100-12.277 6.138 6.138 0 000 12.277z" fill="#271291"/></g><defs><linearGradient id="paint0_linear_417_6172" x1="2.228" y1="14.729" x2="36.639" y2="14.729" gradientUnits="userSpaceOnUse"><stop stop-color="#E20613"/><stop offset=".14" stop-color="#C0082A"/><stop offset=".44" stop-color="#7F0C56"/><stop offset=".7" stop-color="#4F0F76"/><stop offset=".89" stop-color="#32118A"/><stop offset="1" stop-color="#271291"/></linearGradient><clipPath id="clip0_417_6172"><path fill="#fff" d="M0 0h164v45H0z"/></clipPath></defs></svg>