<svg width="73" height="40" fill="none" xmlns="http://www.w3.org/2000/svg"><path d="M23.627.683c-.568.75-1.827 1.76-2.855 2.28-1.11.573-2.057.846-4.358 1.283-1.204.218-2.395.491-2.652.6-.73.3-1.286.86-1.448 1.407-.176.682-.176 3.03.013 3.03.082 0 .352-.164.596-.355.96-.737 1.88-.9 5.156-.955 3.153-.055 3.87-.164 4.71-.751.527-.369.987-.997 1.271-1.789.23-.668.42-5.433.203-5.433-.067 0-.352.3-.636.683zM8.796 16.792H0v21.843h8.796V40h6.767v-1.365h8.796V16.792h-8.796V9.966H8.796v6.826zm0 17.065h-4.06V21.57h4.06v12.287zm10.826 0h-4.06V21.57h4.06v12.287zM31.665 19.524h-2.571v5.46h2.557l.041.574.04.587.718.04.704.042v-1.243h2.706v-5.46h-2.706V18.43h-1.489v1.093zm.149 3.959h-1.232v-2.608l.582.041.569.041.08 2.526zm2.571 0h-1.231v-2.608l.581.041.569.041.081 2.526zM37.431 19.14c-.081.438-.622 6.199-.622 6.499 0 .11.27.164.744.164.73 0 .744-.014.744-.396 0-.218.04-.587.081-.82.082-.409.109-.422.867-.422.866 0 .947.082.947 1.119v.519h.744c.61 0 .744-.041.744-.232 0-.383-.554-6.226-.622-6.567-.054-.287-.108-.3-1.813-.3h-1.746l-.068.437zm2.355 1.366c0 .177.04.723.094 1.229l.082.928h-1.435l.095-.833c.04-.464.081-1.024.081-1.229 0-.368.04-.395.541-.395.474 0 .542.04.542.3zM43.035 25.803h4.601v-4.369h-3.112v-1.229h3.112v-1.501h-4.6v7.099zm3.113-1.502h-1.624v-1.365h1.624V24.3zM49.258 25.803h1.475l.081-2.116 3.18-.082v-4.901h-4.736v7.099zm3.248-3.686h-1.76v-1.912h1.76v1.912zM55.617 25.817l1.516-.082.907-1.939c.487-1.065.933-1.98 1.001-2.034.054-.055.095.833.095 1.966v2.075h1.488v-7.1h-1.57l-.933 2.049-.948 2.061-.08-4.11h-1.476v7.114zM62.25 25.803h1.489v-1.434c0-1.406 0-1.433.31-1.433.271 0 .42.218.989 1.433l.663 1.42.839.014h.852l-.906-1.83-.907-1.842.84-1.707.825-1.72h-1.57l-.623 1.365c-.555 1.201-.663 1.365-.974 1.365h-.338v-2.73H62.25v7.099zM68.693 19.14c-.081.465-.623 6.199-.623 6.485 0 .123.244.178.745.178.73 0 .744-.014.744-.396 0-.218.04-.587.081-.82.081-.409.108-.422.866-.422.866 0 .948.082.948 1.119v.519h.744c.609 0 .744-.041.744-.232 0-.383-.555-6.226-.622-6.567-.054-.287-.109-.3-1.814-.3H68.76l-.067.437zm2.355 1.366c0 .177.04.723.094 1.229l.081.928H69.79l.095-.833c.04-.464.08-1.024.08-1.229 0-.368.041-.395.542-.395.474 0 .541.04.541.3zM30.258 29.514c-.041.178-.163 1.27-.285 2.43-.284 2.922-.297 3.004-.609 3.004-.243 0-.27.095-.27.819v.819h1.745l.082-.437c.08-.532.609-4.956.609-5.16 0-.069.243-.137.541-.137h.541v5.734h1.489v-7.372h-1.895c-1.854 0-1.894 0-1.948.3zM35.727 36.6l1.542-.082.948-2.116.96-2.116.082 4.3h1.475V29.2l-1.53.082-.987 2.185-1.002 2.184v-4.437h-1.488V36.6zM42.914 31.632c-.42 3.372-.406 3.317-.704 3.317-.23 0-.257.123-.257 1.297v1.297h1.353v-.956h2.707v.956h1.489v-1.297c0-1.201-.014-1.297-.271-1.297s-.27-.095-.27-2.867v-2.867h-3.736l-.311 2.417zm2.558 3.317h-.745c-.88 0-.839.191-.514-2.293l.23-1.802h1.029v4.095zM48.852 36.586h4.6v-7.372h-4.6v7.372zm3.112-1.638H50.34v-4.096h1.624v4.096zM55.078 36.586h4.737v-2.935l-.433-.369-.447-.382.447-.355.433-.341v-2.99h-4.737v7.372zm3.248-5.351c0 .587-.514 1.01-1.164.955-.528-.04-.528-.04-.568-.696l-.04-.642h.879c.893 0 .893 0 .893.383zm-.311 2.648c.176.177.311.45.311.682 0 .383 0 .383-.88.383h-.88v-.587c0-.328.041-.642.095-.683.203-.218 1.042-.082 1.354.205z" fill="#fff"/></svg>