<svg width="100" height="100" fill="none" xmlns="http://www.w3.org/2000/svg"><path d="M23.043 1.875c-1.29.469-2.422 1.328-3.066 2.305-.391.605-.899 1.015-1.758 1.465-3.106 1.62-4.805 5.449-3.907 8.808.293 1.055.293 1.055-.253 1.758-1.172 1.484-1.465 2.324-1.465 4.102 0 1.367.097 1.835.488 2.636.605 1.25 1.777 2.422 3.027 3.028 1.387.683 3.848.683 5.274 0 2.012-.977 3.34-2.91 3.555-5.157.097-1.21.117-1.23.957-1.68 1.152-.605 2.324-1.913 3.027-3.378.312-.664.566-1.309.566-1.426 0-.117.43-.274.938-.352 2.168-.273 4.375-2.07 5.039-4.082.742-2.246.273-4.55-1.309-6.27C32.79 2.13 31.617 1.66 29.488 1.72c-2.636.078-2.754.078-4.199-.04-1.016-.097-1.602-.038-2.246.196zm3.379 3.145c.879.312.976.312 1.914-.02 1.64-.605 2.969-.215 3.965 1.133.566.762.566 2.597 0 3.36-.86 1.152-1.328 1.347-3.164 1.308-1.485-.04-1.739 0-2.13.37-.312.294-.448.645-.448 1.192 0 1.367-.41 2.325-1.465 3.38-.684.683-1.25 1.054-1.895 1.23-1.191.332-1.62.82-1.543 1.738.215 2.754.059 3.262-1.23 4.219-.762.566-2.598.566-3.36 0-.859-.625-1.289-1.328-1.386-2.266-.137-1.21.351-2.187 1.543-3.027 1.23-.88 1.347-1.367.644-2.754-1.094-2.168-.84-4.004.762-5.606.664-.664 1.328-1.093 2.031-1.328.899-.312 1.074-.469 1.504-1.308.918-1.797 2.285-2.325 4.258-1.621zM54.293 1.875c-1.29.469-2.422 1.328-3.066 2.305-.391.605-.899 1.015-1.758 1.465-3.106 1.62-4.805 5.449-3.907 8.808.294 1.055.294 1.055-.253 1.758-1.172 1.484-1.465 2.324-1.465 4.102 0 1.367.097 1.835.488 2.636.605 1.25 1.777 2.422 3.027 3.028 1.387.683 3.848.683 5.274 0 2.011-.977 3.34-2.91 3.554-5.157.098-1.21.118-1.23.958-1.68 1.152-.605 2.324-1.913 3.027-3.378.312-.664.566-1.309.566-1.426 0-.117.43-.274.938-.352 2.168-.273 4.375-2.07 5.039-4.082.742-2.246.273-4.55-1.309-6.27C64.04 2.13 62.867 1.66 60.738 1.72c-2.636.078-2.754.078-4.199-.04-1.016-.097-1.602-.038-2.246.196zm3.379 3.145c.879.312.976.312 1.914-.02 1.64-.605 2.969-.215 3.965 1.133.566.762.566 2.597 0 3.36-.86 1.152-1.328 1.347-3.164 1.308-1.485-.04-1.739 0-2.13.37-.312.294-.448.645-.448 1.192 0 1.367-.41 2.325-1.465 3.38-.684.683-1.25 1.054-1.895 1.23-1.191.332-1.62.82-1.543 1.738.215 2.754.059 3.262-1.23 4.219-.762.566-2.598.566-3.36 0-.859-.625-1.289-1.328-1.386-2.266-.137-1.21.351-2.187 1.543-3.027 1.23-.88 1.347-1.367.644-2.754-1.094-2.168-.84-4.004.762-5.606.664-.664 1.328-1.093 2.031-1.328.899-.312 1.074-.469 1.504-1.308.918-1.797 2.285-2.325 4.258-1.621zM85.543 1.875c-1.29.469-2.422 1.328-3.066 2.305-.391.605-.899 1.015-1.758 1.465-3.106 1.62-4.805 5.449-3.906 8.808.293 1.055.293 1.055-.254 1.758-1.172 1.484-1.465 2.324-1.465 4.102 0 1.367.097 1.835.488 2.636.606 1.25 1.777 2.422 3.027 3.028 1.387.683 3.848.683 5.274 0 2.011-.977 3.34-2.91 3.555-5.157.097-1.21.117-1.23.956-1.68 1.153-.605 2.325-1.913 3.028-3.378.312-.664.566-1.309.566-1.426 0-.117.45-.274.996-.352 1.114-.156 2.52-.8 3.438-1.562.312-.274.879-1.035 1.25-1.719.605-1.133.664-1.367.664-2.89 0-1.524-.059-1.758-.664-2.891-.723-1.348-1.563-2.129-2.95-2.813-.722-.351-1.171-.43-2.578-.39-.957.02-2.011.058-2.343.058-.352.02-1.25-.039-2.012-.097-1.016-.098-1.602-.04-2.246.195zm3.379 3.145c.879.312.976.312 1.914-.02 1.64-.605 2.969-.215 3.965 1.133.566.762.566 2.597 0 3.36-.86 1.152-1.328 1.347-3.164 1.308-1.485-.04-1.739 0-2.13.37-.312.294-.448.645-.448 1.192 0 1.367-.41 2.325-1.465 3.38-.684.683-1.25 1.054-1.895 1.23-1.191.332-1.62.82-1.543 1.738.215 2.754.059 3.262-1.23 4.219-.762.566-2.598.566-3.36 0-.859-.625-1.289-1.328-1.386-2.266-.137-1.21.351-2.187 1.543-3.027 1.23-.88 1.347-1.367.644-2.754-1.094-2.168-.84-4.004.762-5.606.664-.664 1.328-1.093 2.031-1.328.899-.312 1.074-.469 1.504-1.308.918-1.797 2.285-2.325 4.258-1.621zM13.066 28.496l-.468.371L12.5 45.82l-.098 16.953-5.078 1.524c-3.672 1.113-5.176 1.64-5.41 1.934-.332.39-.351 1.425-.351 15.84v15.41l.488.468.469.489h94.96l.47-.489.487-.468V57.207l-.488-.469c-.254-.273-.664-.488-.898-.488-.332 0-4.551 1.21-9.2 2.656-.332.098-.351-.703-.351-14.863V29.082l-.488-.469-.469-.488h-5.254c-4.902 0-5.293.02-5.723.371l-.468.371L75 45.82l-.098 16.953-3.71 1.133c-2.032.625-3.77 1.133-3.848 1.133-.098 0-.156-1.758-.156-3.906 0-3.906 0-3.926-.489-4.395-.254-.273-.664-.488-.898-.488-.332 0-4.551 1.21-9.2 2.656-.331.098-.351-.703-.351-14.863V29.082l-.488-.469-.469-.488h-5.254c-4.902 0-5.293.02-5.723.371l-.468.371-.098 16.953-.098 16.953-3.71 1.133c-2.032.625-3.77 1.133-3.848 1.133-.098 0-.157-1.758-.157-3.906 0-3.906 0-3.926-.488-4.395-.254-.273-.664-.488-.898-.488-.332 0-4.551 1.21-9.2 2.656-.331.098-.351-.703-.351-14.863V29.082l-.488-.469-.469-.488h-5.254c-4.902 0-5.293.02-5.723.371zm8.809 4.317v1.562h-6.25V31.25h6.25v1.563zm31.25 0v1.562h-6.25V31.25h6.25v1.563zm31.25 0v1.562h-6.25V31.25h6.25v1.563zm-62.5 15.898v11.23l-1.7.508c-.956.293-2.284.684-2.968.899-.684.195-1.309.37-1.406.37-.098 0-.176-5.116-.176-12.109V37.5h6.25v11.21zm31.25 0v11.23l-1.7.508c-.956.293-2.284.684-2.968.899-.684.195-1.309.37-1.406.37-.098 0-.176-5.116-.176-12.109V37.5h6.25v11.21zm31.25 0v11.23l-1.7.508c-.956.293-2.284.684-2.968.899-.684.195-1.309.37-1.406.37-.098 0-.176-5.116-.176-12.109V37.5h6.25v11.21zM32.812 77.637v17.675H4.688V68.38l1.407-.43c6.484-1.972 26.465-7.968 26.582-7.968.078-.02.136 7.93.136 17.656zm31.25 0v17.675H35.938V68.38l1.426-.43c6.465-1.972 26.446-7.968 26.563-7.968.078-.02.136 7.93.136 17.656zm31.25 0v17.675H67.188V68.38l1.426-.43c6.465-1.972 26.446-7.968 26.563-7.968.078-.02.136 7.93.136 17.656z" fill="#ECEDF2"/><path d="M8.3 70.8l-.488.47v16.836l.489.468c.469.489.508.489 4.199.489s3.73 0 4.2-.489l.488-.468V71.269l-.489-.468c-.469-.489-.508-.489-4.199-.489s-3.73 0-4.2.489zm5.762 8.888v6.25h-3.125v-12.5h3.126v6.25zM20.8 70.8l-.488.47v16.836l.489.468c.469.489.508.489 4.199.489s3.73 0 4.2-.489l.488-.468V71.269l-.489-.468c-.469-.489-.508-.489-4.199-.489s-3.73 0-4.2.489zm5.762 8.888v6.25h-3.125v-12.5h3.126v6.25zM39.55 70.8l-.487.47v16.836l.488.468c.468.489.508.489 4.199.489s3.73 0 4.2-.489l.487-.468V71.269l-.488-.468c-.468-.489-.508-.489-4.199-.489s-3.73 0-4.2.489zm5.763 8.888v6.25h-3.126v-12.5h3.126v6.25zM52.05 70.8l-.487.47v16.836l.488.468c.468.489.508.489 4.199.489s3.73 0 4.2-.489l.487-.468V71.269l-.488-.468c-.468-.489-.508-.489-4.199-.489s-3.73 0-4.2.489zm5.763 8.888v6.25h-3.126v-12.5h3.126v6.25zM70.8 70.8l-.487.47v16.836l.488.468c.468.489.508.489 4.199.489s3.73 0 4.2-.489l.487-.468V71.269l-.488-.468c-.468-.489-.508-.489-4.199-.489s-3.73 0-4.2.489zm5.763 8.888v6.25h-3.126v-12.5h3.126v6.25zM83.3 70.8l-.487.47v16.836l.488.468c.468.489.508.489 4.199.489s3.73 0 4.2-.489l.487-.468V71.269l-.488-.468c-.468-.489-.508-.489-4.199-.489s-3.73 0-4.2.489zm5.763 8.888v6.25h-3.126v-12.5h3.126v6.25z" fill="#ECEDF2"/></svg>