<svg width="100" height="100" fill="none" xmlns="http://www.w3.org/2000/svg"><path d="M25.781 16.602c-13.047 8.28-23.847 15.195-23.965 15.37-.566.743-.293 1.31 2.286 4.766 1.406 1.875 2.695 3.516 2.87 3.633.45.332 1.27.313 1.739-.039.195-.156.43-.293.527-.293.078 0 .137 12.441.137 27.637v27.636H1.562v3.126h96.876v-3.126h-7.911v-3.125h3.223v-3.125h-3.125v-4.199c0-4.219 0-4.219-.488-4.687-.45-.469-.567-.489-3.125-.489h-2.637v-4.199c0-4.219 0-4.219-.488-4.687-.39-.41-.664-.489-1.563-.489H81.25V49.395l-.488-.47-.469-.487H19.707l-.469.488-.488.468v45.918H12.5V37.97L31.094 26.25c10.234-6.426 18.75-11.7 18.925-11.7.176 0 8.672 5.274 18.907 11.7L87.5 37.95v38.613h3.125V58.3c0-10.04.059-18.262.156-18.262.078 0 .313.137.508.293.469.352 1.29.371 1.738.04.176-.118 1.465-1.759 2.871-3.634 2.657-3.574 2.891-4.062 2.188-4.863-.176-.215-6.973-4.59-15.078-9.727C69.473 13.594 61.484 8.555 53.516 3.477 51.719 2.344 50.293 1.563 50 1.563c-.313.019-9.355 5.625-24.219 15.039zm46.328 2.363c12.07 7.637 22.051 13.984 22.188 14.12.195.196-.04.606-1.074 2.032-.742.977-1.426 1.758-1.543 1.7-.118-.04-9.395-5.84-20.606-12.91-11.21-7.071-20.625-12.891-20.918-12.93-.449-.059-4.218 2.226-21.054 12.832C17.812 30.918 8.477 36.777 8.34 36.816c-.313.118-2.93-3.437-2.695-3.672.351-.351 44.062-28.027 44.296-28.046.118-.02 10.098 6.23 22.168 13.867zm6.016 34.16v1.563h-56.25v-3.126h56.25v1.563zm0 6.25v1.563h-56.25v-3.126h56.25v1.563zm0 7.813v3.124h-4.2c-5.624 0-5.175-.449-5.175 5.176v4.2h-3.125V68.144l-.488-.468c-.469-.489-.528-.489-3.907-.489h-3.417v3.126H62.5V91.23l.488.468c.39.41.664.489 1.602.489h1.133v3.125H59.375v-4.2c0-4.219 0-4.219-.488-4.687l-.469-.489H46.875v-4.199c0-4.219 0-4.219-.488-4.687l-.469-.489H34.375v-4.199c0-4.219 0-4.219-.488-4.687l-.469-.489H21.875v-3.125h56.25v3.126zM25 71.874v1.563h3.125v-3.126h3.125v6.25h-9.375v-6.25H25v1.563zM75 75v1.563h3.125v-3.126h3.125v6.25h-9.375v-6.25H75V75zm-50 6.25v1.563h3.125v-3.126h3.125v6.25h-9.375v-6.25H25v1.563zm12.5 0v1.563h3.125v-3.126h3.125v6.25h-9.375v-6.25H37.5v1.563zm31.25 3.125v1.563h3.125v-3.126H75v6.25h-9.375v-6.25h3.125v1.563zm12.5 0v1.563h3.125v-3.126H87.5v6.25h-9.375v-6.25h3.125v1.563zM25 90.625v1.563h3.125v-3.126h3.125v6.25h-9.375v-6.25H25v1.563zm12.5 0v1.563h3.125v-3.126h3.125v6.25h-9.375v-6.25H37.5v1.563zm12.5 0v1.563h3.125v-3.126h3.125v6.25h-9.375v-6.25H50v1.563zm21.387 2.05c.976.958.293 2.638-1.075 2.638-.8 0-1.562-.762-1.562-1.563 0-.8.762-1.563 1.563-1.563.37 0 .78.176 1.074.489zm9.96 1.075v1.563h-6.445v-3.126h6.446v1.563zm5.665-1.074c.976.957.293 2.636-1.075 2.636-.8 0-1.562-.761-1.562-1.562 0-.8.762-1.563 1.563-1.563.37 0 .78.176 1.074.489z" fill="#ECEDF2"/><path d="M30.176 33.3l-.488.47V44.355l.488.468.469.489h38.711l.468-.489.489-.468V33.77l-.489-.47-.468-.487H30.645l-.47.488zm37.012 5.763v3.124H32.812v-6.25h34.376v3.126z" fill="#ECEDF2"/></svg>