<svg width="100" height="100" fill="none" xmlns="http://www.w3.org/2000/svg"><path d="M47.813 1.758c-1.192.215-2.774.722-3.77 1.23C41.68 4.16 20.938 15.918 20.664 16.25c-.293.332-.352.82-.352 3.32 0 2.832.02 2.93.489 3.38.449.468.566.488 3.125.488h2.637v15.625H2.52l-.47.488-.487.468V97.48l.488.47.469.487h94.96l.47-.488.487-.468V40.02l-.488-.47-.468-.487H73.438V23.437h2.636c2.559 0 2.676-.019 3.125-.488.469-.449.489-.547.489-3.379 0-2.5-.06-2.988-.332-3.32-.293-.332-20.43-11.777-23.243-13.184-2.324-1.171-5.937-1.757-8.3-1.308zm4.355 3.203c1.64.351 2.207.644 14.297 7.441l10.078 5.664.02 1.114v1.133H23.437V19.18l.02-1.114 10.273-5.761C39.376 9.14 44.57 6.25 45.273 5.898c2.207-1.132 4.473-1.445 6.895-.937zm18.145 41.914v23.438h-2.637c-2.559 0-2.676.019-3.125.488l-.489.468v14.669h-3.125V61.894l-.488-.468-.468-.489H40.02l-.47.489-.487.468v24.043h-3.126V71.27l-.488-.468c-.449-.469-.566-.489-3.125-.489h-2.636V23.438h40.625v23.438zm-43.75-1.563v3.126H4.686v-6.25h21.876v3.124zm68.75 0v3.126H73.436v-6.25h21.876v3.124zm-68.75 15.626v9.374H4.686v-18.75h21.876v9.376zm68.75 0v9.374H73.436v-18.75h21.876v9.376zM57.813 75v10.938H42.187V64.061h15.626V75zm-25 4.688v6.25H4.686v-12.5h28.126v6.25zm62.5 0v6.25H67.186v-12.5h28.126v6.25zm0 12.5v3.124H4.686v-6.25h90.626v3.126z" fill="#ECEDF2"/><path d="M33.3 27.05l-.487.47v10.585l.488.47c.468.487.508.487 4.199.487s3.73 0 4.2-.488l.487-.468V27.52l-.488-.47c-.468-.488-.508-.488-4.199-.488s-3.73 0-4.2.489zm5.763 5.762v3.126h-3.126v-6.25h3.126v3.125zM45.8 27.05l-.487.47v10.585l.488.47c.468.487.508.487 4.199.487s3.73 0 4.2-.488l.487-.468V27.52l-.488-.47c-.468-.488-.508-.488-4.199-.488s-3.73 0-4.2.489zm5.763 5.762v3.126h-3.126v-6.25h3.126v3.125zM58.3 27.05l-.487.47v10.585l.488.47c.468.487.508.487 4.199.487s3.73 0 4.2-.488l.487-.468V27.52l-.488-.47c-.468-.488-.508-.488-4.199-.488s-3.73 0-4.2.489zm5.763 5.762v3.126h-3.126v-6.25h3.126v3.125zM33.3 42.676l-.487.468V53.73l.488.47c.468.487.508.487 4.199.487s3.73 0 4.2-.488l.487-.468V43.145l-.488-.47c-.468-.487-.508-.487-4.199-.487s-3.73 0-4.2.488zm5.763 5.761v3.126h-3.126v-6.25h3.126v3.124zM45.8 42.676l-.487.468V53.73l.488.47c.468.487.508.487 4.199.487s3.73 0 4.2-.488l.487-.468V43.145l-.488-.47c-.468-.487-.508-.487-4.199-.487s-3.73 0-4.2.488zm5.763 5.761v3.126h-3.126v-6.25h3.126v3.124zM58.3 42.676l-.487.468V53.73l.488.47c.468.487.508.487 4.199.487s3.73 0 4.2-.488l.487-.468V43.145l-.488-.47c-.468-.487-.508-.487-4.199-.487s-3.73 0-4.2.488zm5.763 5.761v3.126h-3.126v-6.25h3.126v3.124zM11.426 55.176l-.489.468v10.587l.489.468c.469.489.508.489 4.199.489s3.73 0 4.2-.489l.488-.468V55.644l-.489-.468c-.469-.489-.508-.489-4.199-.489s-3.73 0-4.2.489zm5.761 5.761v3.126h-3.125v-6.25h3.126v3.124zM80.176 55.176l-.489.468v10.587l.489.468c.468.489.508.489 4.199.489s3.73 0 4.2-.489l.487-.468V55.644l-.488-.468c-.468-.489-.508-.489-4.199-.489s-3.73 0-4.2.489zm5.761 5.761v3.126h-3.125v-6.25h3.126v3.124z" fill="#ECEDF2"/></svg>