<svg width="100" height="100" fill="none" xmlns="http://www.w3.org/2000/svg"><path d="M5.176 2.05c-.469.45-.489.567-.489 3.126v2.636H3.614c-.898 0-1.172.079-1.562.489l-.489.469v26.21l.489.47c.39.41.664.487 1.562.487h1.075v53.126H3.612c-.898 0-1.172.078-1.562.488-.489.468-.489.508-.489 4.199s0 3.73.489 4.2l.469.487h94.96l.47-.488c.487-.468.487-.508.487-4.199s0-3.73-.488-4.2c-.39-.41-.664-.487-1.562-.487h-1.075V35.937h1.075c.898 0 1.172-.078 1.562-.488l.489-.468V8.77l-.489-.47c-.39-.41-.664-.488-1.562-.488h-1.075V5.176c0-2.559-.019-2.676-.488-3.125l-.468-.489H5.645l-.47.489zm87.011 4.2v1.563H7.813V4.687h84.376V6.25zm3.126 15.625v10.938H4.686V10.936h90.626v10.938zM92.186 37.5v1.563H7.813v-3.126h84.376V37.5zm-65.624 9.375v4.688H7.813v-9.376h18.75v4.688zm21.875 0v4.688h-18.75v-9.376H48.437v4.688zm21.874 0v4.688h-18.75v-9.376h18.75v4.688zm21.876 0v4.688h-18.75v-9.376h18.75v4.688zm0 25v17.188h-3.126V58.769l-.488-.468-.468-.489H65.019l-.468.489-.489.468v30.293h-6.25V58.77l-.488-.468-.468-.489H11.895l-.47.489-.488.468v30.293H7.813V54.688h84.376v17.188zM54.688 75v14.063h-3.126V65.019l-.488-.468-.468-.489H18.145l-.47.489-.488.468v24.043h-3.125V60.938h40.626V75zm31.25 0v14.063h-18.75V60.936h18.75V75zm-53.126 3.125v10.938h-12.5V67.186h12.5v10.938zm15.626 0v10.938h-12.5V67.186h12.5v10.938zM95.311 93.75v1.563H4.688v-3.126h90.626v1.563z" fill="#ECEDF2"/><path d="M22.363 14.55l-.488.47v13.71l.488.47c.469.488.508.488 4.219.488 4.492 0 5-.118 6.328-1.465 1.7-1.7 1.953-3.926.645-5.82-.371-.528-.371-.528 0-1.075 1.308-1.875 1.054-4.101-.645-5.8-1.328-1.348-1.836-1.466-6.328-1.466-3.71 0-3.75 0-4.219.489zm8.399 3.126c.312.293.488.703.488 1.074 0 .371-.176.781-.488 1.074-.45.469-.567.488-3.125.488H25v-3.125h2.637c2.558 0 2.675.02 3.125.489zm0 6.25c.312.293.488.703.488 1.074 0 .371-.176.781-.488 1.074-.45.469-.567.488-3.125.488H25v-3.125h2.637c2.558 0 2.675.02 3.125.489zM42.29 14.238a6.602 6.602 0 00-4.2 3.438c-.488.957-.488 1.074-.547 6.484l-.059 5.527h3.145V25h6.25V29.687h3.144l-.058-5.527-.059-5.508-.527-.996c-.781-1.465-1.367-2.09-2.676-2.793-1.27-.664-3.203-.957-4.414-.625zm3.183 3.477c.996.742 1.289 1.348 1.367 2.793l.078 1.367h-6.289V20.82c0-1.699.586-2.793 1.855-3.36.782-.37 2.325-.233 2.989.255zM53.613 14.55l-.488.47v14.668h3.125l.04-4.63.058-4.628 3.379 4.511c1.855 2.48 3.515 4.57 3.671 4.63.625.234 1.29.097 1.739-.372l.488-.469V14.063H62.5l-.04 4.63-.058 4.628-3.379-4.511c-1.855-2.48-3.515-4.57-3.671-4.63-.625-.234-1.29-.097-1.739.372zM68.75 21.875v7.813h3.106l.058-2.657.059-2.656.918.8c.996.9 1.836 2.384 2.03 3.673l.138.84h3.125l-.137-1.075c-.254-2.265-1.738-4.883-3.418-6.074-.43-.312-.8-.605-.8-.664 0-.059.37-.352.8-.664 1.68-1.191 3.164-3.809 3.418-6.074l.137-1.075h-3.125l-.137.82c-.195 1.31-1.035 2.794-2.031 3.692l-.918.801-.059-2.656-.058-2.657H68.75v7.813zM70.8 64.55l-.487.47v10.586l.488.468.468.489h10.587l.468-.489.489-.468V65.019l-.489-.468-.468-.489H71.269l-.468.489zm8.888 5.763v3.124h-6.25v-6.25h6.25v3.126z" fill="#ECEDF2"/></svg>