<svg width="100" height="100" fill="none" xmlns="http://www.w3.org/2000/svg"><path d="M21.484 8.125c-.722.273-1.933 1.367-6.699 6.113-3.203 3.184-6.055 6.153-6.308 6.602-1.348 2.246-.508 5.273 1.816 6.64 1.21.704 3.223.782 4.492.137l.82-.41 2.461 2.48 2.48 2.481-.663.273c-1.367.547-4.63 2.95-6.25 4.57-8.535 8.536-9.785 21.66-3.027 31.739.546.8 1.914 2.402 3.046 3.535 2.715 2.715 5.664 4.649 8.926 5.84l1.192.43-.743 1.425c-.41.801-.8 1.758-.879 2.13l-.117.703H2.52l-.47.488c-.487.468-.487.508-.487 4.199s0 3.73.488 4.2l.469.487h57.46l.47-.488c.487-.468.487-.508.487-4.199s0-3.73-.488-4.2l-.468-.487H40.468l-.117-.704c-.079-.37-.47-1.328-.88-2.128l-.742-1.426 1.192-.43c3.125-1.133 5.879-2.89 8.457-5.332 2.031-1.953 3.203-3.418 4.512-5.664l.879-1.504h3.105c4.297 0 4.063.273 4.063-4.688 0-3.69 0-3.73-.489-4.199l-.468-.488H33.77l-.47.488c-.487.469-.487.508-.487 4.2 0 4.96-.235 4.687 4.12 4.687h3.184l-.683.508c-1.016.742-3.243 1.797-4.668 2.168-1.72.468-5.313.468-7.032 0-.703-.176-2.011-.703-2.93-1.153-2.363-1.171-4.843-3.671-6.015-6.015-1.875-3.79-2.09-7.696-.605-11.543 1.035-2.696 3.515-5.625 5.8-6.875l.938-.508 1.308.664c1.485.762 3.047 1.016 4.493.742l1.015-.175 2.559 2.5c3.008 2.949 3.223 3.027 4.687 1.68l.88-.802 2.402 2.364c3.222 3.203 2.87 3.222 6.504-.41 3.632-3.633 3.613-3.282.41-6.504l-2.364-2.403.801-.879c1.524-1.66 2.227-.761-9.804-12.812L27.187 15.527l.372-.703c1.171-2.187.312-5.058-1.895-6.347-1.113-.665-2.89-.801-4.18-.352zm2.95 3.379c.39.41.566.762.566 1.23 0 .586-.527 1.172-5.82 6.446-5.274 5.293-5.86 5.82-6.446 5.82-.898 0-1.796-.898-1.796-1.797 0-.586.527-1.172 5.82-6.445 5.273-5.293 5.86-5.82 6.445-5.82.469 0 .82.175 1.23.566zm10.43 16.23l9.765 9.766-3.555 3.555-3.574 3.574-1.348-1.348-1.367-1.347.762-.899c2.129-2.558 2.52-5.625 1.074-8.535-2.266-4.61-8.008-5.762-12.031-2.422l-.899.742-2.91-2.91-2.91-2.91 3.516-3.516C23.32 19.551 24.94 17.97 25 17.97c.059 0 4.492 4.394 9.863 9.765zm-3.731 3.75c1.074.313 2.695 1.934 3.008 3.008.547 1.836.156 3.301-1.23 4.668-.997 1.016-1.993 1.465-3.224 1.465-2.421 0-4.687-2.266-4.687-4.688 0-1.23.45-2.226 1.465-3.222 1.367-1.387 2.832-1.758 4.668-1.23zM22.44 38.77c.235.508.391.958.372.958-.88.449-2.696 1.855-3.692 2.832-2.207 2.226-3.613 4.648-4.512 7.773-.625 2.188-.625 6.523 0 8.711 1.211 4.258 3.575 7.539 7.07 9.883 6.212 4.16 14.083 3.886 20.079-.703.781-.606 1.719-1.426 2.07-1.856l.645-.761 2.851.058 2.852.059-.801 1.171c-2.852 4.18-7.324 7.442-12.031 8.75l-1.64.47-1.192-.508c-1.035-.43-1.504-.508-3.262-.508s-2.227.078-3.262.508l-1.191.507-1.64-.469C16.913 73.301 10.82 66.212 9.57 57.52c-1.21-8.613 3.38-17.812 10.957-21.874l1.25-.665.117 1.407c.079.781.313 1.855.547 2.383zm23.75 4.981l1.563 1.563-1.23 1.21-1.212 1.23-1.601-1.6-1.621-1.622 1.172-1.172c.644-.644 1.21-1.172 1.27-1.172.058 0 .8.704 1.66 1.563zm11.621 17.188V62.5H35.938v-3.125h21.876v1.563zM33.927 78.769c1.328.684 2.324 1.7 2.91 2.95l.469.996-3.028.058c-1.66.02-4.394.02-6.054 0l-3.028-.058.47-.996c.722-1.582 2.187-2.813 4.023-3.418.976-.332 3.164-.078 4.238.468zM57.812 87.5v1.563H4.688v-3.126h53.126V87.5zM64.55 55.176c-.487.468-.487.508-.487 4.199s0 3.73.488 4.2c.254.273.605.487.761.487.254 0 .313 1.426.352 11.758l.059 11.778.449.879c.684 1.406 1.465 2.226 2.812 2.949 1.133.605 1.368.664 2.891.664s1.758-.059 2.89-.664c1.368-.742 1.954-1.348 2.735-2.832l.527-.996.059-5.528.058-5.507h6.212l.058 5.507c.059 5.274.078 5.567.508 6.407.684 1.406 1.465 2.226 2.812 2.949 1.133.605 1.368.664 2.891.664s1.758-.059 2.89-.664c1.368-.742 1.954-1.348 2.735-2.832l.527-.996.059-11.778c.039-10.332.098-11.757.352-11.757.156 0 .507-.215.761-.489.489-.468.489-.508.489-4.199s0-3.73-.489-4.2l-.468-.487H83.769l-.468.488c-.489.468-.489.508-.489 4.199s0 3.73.489 4.2c.254.273.605.487.781.487.234 0 .293.294.293 1.563v1.563h-6.25v-1.563c0-1.27.059-1.563.293-1.563.176 0 .527-.214.781-.488.489-.468.489-.508.489-4.199s0-3.73-.489-4.2l-.468-.487H65.019l-.468.488zm12.013 4.199v1.563h-9.376v-3.126h9.376v1.563zm18.75 0v1.563h-9.376v-3.126h9.376v1.563zM74.96 75.566c-.059 11.29-.059 11.524-.469 12.051-.761 1.035-1.386 1.348-2.617 1.348-1.23 0-1.856-.313-2.617-1.348-.41-.527-.41-.761-.469-12.05l-.039-11.504H75l-.04 11.503zm18.75 0c-.059 11.29-.059 11.524-.469 12.051-.761 1.035-1.386 1.348-2.617 1.348-1.23 0-1.856-.313-2.617-1.348-.41-.527-.41-.761-.469-12.05L87.5 64.062h6.25l-.04 11.503zm-9.336-3.691v1.563h-6.25v-3.126h6.25v1.563z" fill="#ECEDF2"/></svg>