<svg width="100" height="100" fill="none" xmlns="http://www.w3.org/2000/svg"><path d="M2.05 2.05c-.487.47-.487.509-.487 4.2 0 3.691 0 3.73.488 4.2.39.41.664.488 1.562.488h1.075v78.125H3.612c-.898 0-1.172.078-1.562.488-.489.468-.489.508-.489 4.199s0 3.73.489 4.2l.469.487h94.96l.47-.488c.487-.468.487-.508.487-4.199s0-3.73-.488-4.2c-.39-.41-.664-.487-1.562-.487h-1.075V68.144l.586.313c.82.43 1.504.371 2.051-.195.489-.469.489-.508.489-4.102 0-2.168-.079-3.789-.196-4.023-.136-.235-5.547-3.047-14.062-7.305l-13.868-6.934v-34.96h1.075c.898 0 1.172-.079 1.562-.489.489-.469.489-.508.489-4.199s0-3.73-.489-4.2l-.468-.487H2.52l-.47.488zm68.263 4.2v1.563H4.686V4.687h65.626V6.25zm-3.126 6.25v1.563H7.813v-3.126h59.376V12.5zm0 14.063v9.375H7.813V17.187h59.376v9.375zm-46.874 18.75v6.25h-12.5v-12.5h12.5v6.25zm15.625 0v6.25h-12.5v-12.5h12.5v6.25zm15.624 0v6.25h-12.5v-12.5h12.5v6.25zm15.626 0v6.25h-12.5v-12.5h12.5v6.25zM95.311 63.28v1.367l-12.5-6.25-12.5-6.25v-2.734l12.5 6.25 12.5 6.25v1.367zm-28.124.782v9.374H53.124v-3.125h1.074c.899 0 1.172-.078 1.563-.488.488-.468.488-.508.488-4.199s0-3.73-.488-4.2l-.469-.487H19.707l-.469.488c-.488.468-.488.508-.488 4.199s0 3.73.488 4.2c.39.41.664.487 1.563.487h1.074v3.126H7.813v-18.75h59.375v9.374zm25 13.769v11.23H70.311V55.664l10.938 5.469 10.938 5.469v11.23zM53.124 65.625v1.563h-31.25v-3.126h31.25v1.563zM35.937 79.688v9.374H25v-18.75H35.937v9.376zm14.063 0v9.374H39.063v-18.75H50v9.376zm-28.125 0v3.124H7.813v-6.25H21.875v3.126zm45.313 0v3.124H53.124v-6.25H67.188v3.126zM21.874 87.5v1.563H7.813v-3.126H21.875V87.5zm45.313 0v1.563H53.124v-3.126H67.188V87.5zm28.124 6.25v1.563H4.688v-3.126h90.626v1.563z" fill="#ECEDF2"/><path d="M18.753 19.004c-.957.312-2.597 1.992-2.89 2.988-.547 1.836-.156 3.301 1.23 4.668.996 1.016 1.992 1.465 3.203 1.465.82 0 1.582.742 1.582 1.563 0 .8-.761 1.562-1.562 1.562-.645 0-1.563-.742-1.563-1.27 0-.234-.293-.293-1.562-.293-1.309 0-1.563.06-1.563.313 0 2.11 2.442 4.375 4.688 4.375 2.422 0 4.687-2.266 4.687-4.688 0-2.402-2.265-4.687-4.668-4.687-.82 0-1.582-.742-1.582-1.563 0-.8.762-1.562 1.563-1.562.645 0 1.562.742 1.562 1.27 0 .234.293.293 1.563.293 1.758 0 1.758 0 1.328-1.446-.156-.508-.605-1.172-1.23-1.777-1.368-1.387-2.97-1.777-4.786-1.211zM26.563 26.563v7.812h3.125v-6.25h3.125v6.25h3.125V18.75h-3.126V25h-3.125v-6.25h-3.125v7.813zM41.135 19.063c-1.367.43-2.91 2.011-3.32 3.398-.43 1.465-.43 6.738 0 8.203.605 2.05 2.91 3.711 5.156 3.711 1.445 0 2.734-.547 3.828-1.64 1.426-1.426 1.64-2.266 1.64-6.172 0-3.907-.214-4.747-1.64-6.172-1.563-1.543-3.477-1.993-5.664-1.328zm3.476 3.574l.606.605v6.64l-.645.626c-.547.547-.762.644-1.601.644-.84 0-1.055-.097-1.602-.644l-.644-.625v-3.301c0-3.262 0-3.32.488-3.828.644-.703 1.113-.899 2.031-.8.528.058.957.273 1.367.683zM50.488 19.238l-.488.469v14.668h3.125V29.688h.742c2.969 0 5.508-2.52 5.508-5.47 0-1.445-.547-2.734-1.64-3.827-1.29-1.29-2.364-1.641-4.942-1.641-1.68 0-1.875.04-2.305.488zm5.059 3.399c.508.527.605.761.605 1.582 0 1.289-.78 2.148-2.129 2.285l-.898.117v-4.805l.898.118c.664.058 1.075.253 1.524.703zM73.926 61.426l-.489.468v23.087l.489.468.468.489h13.712l.468-.489.489-.468v-8.32c0-5.43-.079-8.458-.196-8.712-.273-.468-13.281-7.011-13.965-7.011-.273 0-.722.214-.976.488zm5.761 13.281v8.106h-3.125V65.038l1.563.781 1.563.782v8.105zm6.25 1.563v6.543h-3.125V68.163l1.563.781 1.563.782v6.542z" fill="#ECEDF2"/></svg>