<svg width="142" height="142" fill="none" xmlns="http://www.w3.org/2000/svg"><g opacity=".5" fill="#fff"><path d="M90.658 2.58c-1.355.443-3.676 2.828-4.09 4.243-.47 1.636-.47 33.53 0 35.167.442 1.525 2.736 3.827 4.256 4.271.746.222 3.234.333 7.13.333h5.971v5.963c0 5.99 0 5.99.691 6.656 1.326 1.359 1.575 1.193 11.083-5.963l8.817-6.656h4.588c5.583 0 6.606-.278 8.347-2.219.664-.721 1.355-1.83 1.521-2.44.469-1.554.469-33.504 0-35.057-.166-.61-.857-1.72-1.521-2.44-2.073-2.33-.856-2.22-24.792-2.191-14.483.027-21.338.11-22.001.332zm43.532 4.77l.691.665v32.782l-.691.666c-.663.693-.719.693-5.887.693h-5.224l-7.352 5.547-7.38 5.547v-4.853c0-4.798 0-4.882-.691-5.547l-.663-.694h-14.98l-.664-.693-.691-.666V8.015l.69-.665.664-.694h41.515l.663.694z"/><path d="M95.078 17.75v2.219H130.457V15.53H95.078v2.219zM95.078 26.625v2.219H130.457v-4.438H95.078v2.219zM37.728 20.218c-2.488.61-4.754 2.497-5.943 4.882l-.69 1.386-.084 11.288c-.083 11.094-.083 11.316-.636 11.316-.801 0-3.04 1.22-3.869 2.135-1.106 1.165-1.935 3.023-2.1 4.66-.47 4.437 3.178 8.459 7.71 8.459 1.023 0 1.051.028 1.051.943 0 1.608.746 4.992 1.603 7.155 1.078 2.801 2.902 5.492 5.28 7.794l1.962 1.913v6.601h-6.55c-7.187 0-10.145.333-13.572 1.498-4.34 1.497-7.767 3.633-11.083 6.878-3.317 3.328-5.583 6.933-7.104 11.371-1.299 3.883-1.492 6.074-1.492 18.471v11.454l.69.666.664.693H106.992l.663-.693.691-.666v-11.454c0-12.342-.193-14.588-1.465-18.388-1.603-4.687-3.924-8.32-7.573-11.815-2.543-2.413-3.98-3.467-6.716-4.853-5.086-2.552-8.43-3.162-17.468-3.162h-6.578v-6.6l1.962-1.915c2.377-2.301 4.201-4.992 5.279-7.793.857-2.163 1.603-5.547 1.603-7.155 0-.916.028-.943 1.05-.943 3.317 0 6.496-2.33 7.408-5.408.774-2.746.11-5.686-1.797-7.71-.829-.916-3.068-2.136-3.87-2.136-.552 0-.552-.25-.635-11.316l-.083-11.288-.94-1.747c-1.022-1.914-2.183-3.023-4.173-3.994l-1.244-.638-17.275-.055c-9.508-.028-17.634.055-18.103.166zm35.406 4.91a7.547 7.547 0 011.326 1.33c.553.722.58 1.138.664 11.566l.083 10.788h-2.654c-2.432 0-2.709-.055-3.316-.693-.664-.638-.691-.776-.691-4.853s-.028-4.216-.692-4.854c-.884-.915-1.437-.887-4.726.25l-2.764.915-1.022-.915-1.023-.943H43.366l-.663.693c-.664.638-.691.777-.691 4.854s-.028 4.215-.691 4.853c-.608.638-.885.694-3.317.694h-2.626V38.44c0-10.789.056-11.371 1.189-12.62 1.299-1.414 1.05-1.414 19.043-1.33 16.446.055 16.777.055 17.524.637zM57.656 43.265c1.41 1.303 1.824 1.33 4.477.443l1.99-.693v2.247c0 3.106.415 4.243 2.073 5.907 1.548 1.58 2.82 2.08 5.224 2.08h1.548v6.434c0 7.572-.277 9.264-1.99 12.703-2.322 4.631-7.02 8.265-12.106 9.319-7.656 1.608-15.893-2.358-19.32-9.347-1.686-3.44-1.963-5.13-1.963-12.675V53.25h1.548c2.405 0 3.676-.5 5.224-2.08 1.714-1.692 2.073-2.801 2.073-6.351v-2.663H56.467l1.189 1.11zm-24.489 13.34v3.383l-1.271-.166c-1.908-.194-3.013-1.414-3.013-3.217 0-2.025 1.299-3.3 3.4-3.328l.884-.028v3.356zm47.65-2.274c.719.748.857 1.081.857 2.246 0 1.83-1.105 3.05-3.013 3.245l-1.27.166v-6.822l1.27.166c.94.083 1.52.36 2.156.999zM51.354 86.143c3.676.693 7.932.36 11.332-.943l1.437-.555v5.409l-2.045 1.969c-2.626 2.551-4.036 3.245-6.8 3.245-2.763 0-4.173-.694-6.799-3.245l-2.045-1.97V84.645l1.465.555c.774.305 2.35.721 3.455.943zm-17.081 14.45c-5.777 7.71-6.081 8.264-5.03 9.457.248.305 3.454 1.83 7.103 3.384 3.648 1.553 6.716 2.884 6.827 2.967.11.056-.608 1.72-1.576 3.689-.995 1.969-1.797 3.827-1.797 4.105 0 .277.94 2.662 2.074 5.297 1.133 2.635 2.128 5.047 2.21 5.325.166.499-.331.527-18.628.527H6.633v-9.818c0-7.572.083-10.345.415-12.231 1.63-9.263 8.734-16.974 17.827-19.276 2.875-.72 3.013-.748 9.342-.804l5.584-.028-5.528 7.406zm49.612-6.99c9.204 1.61 16.612 8.487 19.265 17.889.553 1.942.608 2.857.719 12.98l.083 10.872H85.129c-18.325 0-18.822-.028-18.657-.527.084-.278 1.079-2.69 2.212-5.325 1.133-2.635 2.073-5.02 2.073-5.297 0-.278-.802-2.136-1.797-4.133l-1.824-3.605 1.05-.416c7.297-3.051 12.742-5.52 13.156-5.991 1.023-1.193.72-1.72-5.058-9.457l-5.527-7.406h5.362c3.565 0 6.163.14 7.766.416zM46.24 96.1c5.445 4.936 12.66 4.936 18.104-.028 1.493-1.331 1.797-1.526 2.1-1.193 1.383 1.47 9.564 12.841 9.37 12.98-.11.139-3.067 1.442-6.577 2.912-3.483 1.498-6.579 2.968-6.827 3.273-.277.305-.498.86-.498 1.22 0 .361.94 2.552 2.1 4.881l2.101 4.244-2.322 5.408-2.321 5.408H49.087l-2.321-5.408-2.322-5.408 2.1-4.244c1.161-2.329 2.101-4.52 2.101-4.881 0-.36-.221-.915-.47-1.248-.276-.305-3.4-1.803-6.965-3.328-3.538-1.525-6.523-2.829-6.578-2.912-.138-.111 9.563-13.202 9.784-13.202.083 0 .885.694 1.825 1.526z"/></g></svg>