<svg width="100" height="100" fill="none" xmlns="http://www.w3.org/2000/svg"><path d="M19.238 2.05c-.488.47-.488.509-.488 4.2 0 4.98-.273 4.688 4.395 4.688h3.418v3.125H2.52l-.47.488c-.487.469-.487.508-.487 4.199s0 3.73.488 4.2c.39.41.664.488 1.562.488h1.075v65.625H3.612c-.898 0-1.172.078-1.562.488-.489.468-.489.508-.489 4.199s0 3.73.489 4.2l.469.487h94.96l.47-.488c.487-.468.487-.508.487-4.199s0-3.73-.488-4.2c-.39-.41-.664-.487-1.562-.487h-1.075V23.436h1.075c.898 0 1.172-.078 1.562-.488.489-.469.489-.508.489-4.199s0-3.73-.489-4.2l-.468-.488H73.438v-3.125h3.418c4.667 0 4.394.293 4.394-4.687 0-3.691 0-3.73-.488-4.2l-.469-.487H19.707l-.469.488zm58.887 4.2v1.563h-56.25V4.687h56.25V6.25zM70.312 50v39.063h-3.125V52.519l-.488-.468-.468-.489H33.77l-.47.489-.487.468v36.543h-3.126V10.938h40.626V50zm-43.75-31.25v1.563H4.688v-3.126h21.876v1.563zm68.75 0v1.563H73.438v-3.126h21.876v1.563zm-68.75 37.5v32.813H7.813V23.436h18.75V56.25zm65.626 0v32.813h-18.75V23.436h18.75V56.25zm-43.75 15.625v17.188h-12.5V54.687h12.5v17.188zm15.624 0v17.188h-12.5V54.687h12.5v17.188zm31.25 21.875v1.563H4.688v-3.126h90.626v1.563z" fill="#ECEDF2"/><path d="M45.8 14.55c-.448.43-.487.626-.487 2.345v1.855h-1.856c-1.719 0-1.914.04-2.344.488-.488.469-.488.508-.488 4.2 0 3.69 0 3.73.488 4.199.43.449.625.488 2.344.488h1.855v1.855c0 1.72.04 1.915.489 2.344.468.489.508.489 4.199.489s3.73 0 4.2-.489c.448-.43.487-.625.487-2.343v-1.856h1.856c1.719 0 1.914-.04 2.344-.488.488-.469.488-.508.488-4.2 0-3.69 0-3.73-.488-4.199-.43-.449-.625-.488-2.344-.488h-1.855v-1.855c0-1.72-.04-1.915-.489-2.344-.468-.489-.508-.489-4.199-.489s-3.73 0-4.2.489zm5.763 4.493c0 1.719.039 1.914.488 2.344.43.449.625.488 2.343.488h1.856V25h-1.855c-1.72 0-1.915.04-2.344.488-.45.43-.489.625-.489 2.344v1.855h-3.125v-1.855c0-1.719-.039-1.914-.488-2.344-.43-.449-.625-.488-2.343-.488H43.75v-3.125h1.855c1.72 0 1.915-.04 2.344-.488.45-.43.489-.625.489-2.344v-1.855h3.125v1.855zM33.3 36.426l-.487.468V47.48l.488.47.468.487H47.48l.47-.488.487-.468V36.895l-.488-.47-.468-.487H33.77l-.47.488zm12.013 5.761v3.126h-9.376v-6.25h9.376v3.124zM52.05 36.426l-.487.468V47.48l.488.47.468.487h13.712l.468-.488.489-.468V36.895l-.489-.47-.468-.487H52.52l-.47.488zm12.013 5.761v3.126h-9.376v-6.25h9.376v3.124zM11.426 31.738l-.489.469v10.586l.489.469.469.488H22.48l.468-.488.488-.469V32.207l-.488-.469-.469-.488H11.894l-.468.488zm8.886 5.762v3.125h-6.25v-6.25H20.313V37.5zM11.426 50.488l-.489.469v10.586l.489.469.469.488H22.48l.468-.488.488-.469V50.957l-.488-.469L22.48 50H11.894l-.468.488zm8.886 5.762v3.125h-6.25v-6.25H20.313v3.125zM11.426 69.238l-.489.469v10.586l.489.469.469.488H22.48l.468-.488.488-.469V69.707l-.488-.469-.469-.488H11.894l-.468.488zM20.312 75v3.125h-6.25v-6.25H20.313V75zM77.05 31.738l-.487.469v10.586l.488.469.468.488h10.587l.468-.488.489-.469V32.207l-.489-.469-.468-.488H77.519l-.468.488zm8.888 5.762v3.125h-6.25v-6.25h6.25V37.5zM77.05 50.488l-.487.469v10.586l.488.469.468.488h10.587l.468-.488.489-.469V50.957l-.489-.469-.468-.488H77.519l-.468.488zm8.888 5.762v3.125h-6.25v-6.25h6.25v3.125zM77.05 69.238l-.487.469v10.586l.488.469.468.488h10.587l.468-.488.489-.469V69.707l-.489-.469-.468-.488H77.519l-.468.488zM85.939 75v3.125h-6.25v-6.25h6.25V75z" fill="#ECEDF2"/></svg>