<svg width="40" height="40" fill="none" xmlns="http://www.w3.org/2000/svg"><rect width="40" height="40" rx="10" fill="#fff"/><g clip-path="url(#clip0_237_638)"><path fill-rule="evenodd" clip-rule="evenodd" d="M12.984 25.35c.066-.062.134-.123.198-.186l9.647-9.598.223-.222h-7.63l.044-2.31.032-.033c.088.013.176.022.265.026h11.005c.075-.003.15-.012.223-.026v11.502h-2.23v-7.506c-.104.084-.144.108-.179.142-4.382 4.358-5.481 5.453-9.865 9.815a.847.847 0 00-.06.068c-.559-.56-1.118-1.114-1.673-1.672z" fill="#271291"/></g><defs><clipPath id="clip0_237_638"><path fill="#fff" transform="matrix(1 0 0 -1 13 27)" d="M0 0h14v14H0z"/></clipPath></defs></svg>