<svg width="60" height="60" fill="none" xmlns="http://www.w3.org/2000/svg"><path d="M8.152 4.043l-.293.281v25.101l.293.282c.375.387.914.387 1.29 0l.292-.281V17.813h8.778c4.828 0 8.87-.036 8.976-.07.235-.095.528-.645.528-1.009 0-.187-.82-1.078-2.836-3.105l-2.836-2.848 2.836-2.847c2.015-2.028 2.836-2.918 2.836-3.106 0-.363-.293-.914-.528-1.008-.105-.035-4.441-.07-9.62-.07H8.433l-.282.293zm14.262 3.96c-2.145 2.157-2.367 2.415-2.367 2.778 0 .364.223.621 2.367 2.778l2.367 2.379H9.734V5.625h15.047l-2.367 2.379zM40.49 30.164c-4.335.867-7.523 4.195-8.156 8.531-.386 2.672.668 5.555 3.68 10.055 1.887 2.8 5.543 7.336 6.024 7.453.55.14.82-.07 2.168-1.676 4.91-5.86 7.886-10.98 8.144-14.027.27-3.188-1.535-6.82-4.336-8.73-.785-.54-2.332-1.231-3.246-1.465-1.055-.27-3.246-.34-4.277-.141zm3.376 1.875c1.699.328 3.129 1.125 4.394 2.46 1.36 1.43 2.25 3.61 2.25 5.485 0 2.38-2.601 7.02-6.949 12.375-.633.785-1.207 1.43-1.254 1.43-.047 0-.621-.645-1.254-1.441-3.246-3.996-5.625-7.735-6.539-10.278-.644-1.804-.48-3.656.48-5.625.458-.926.727-1.289 1.56-2.12.831-.833 1.194-1.102 2.12-1.56 1.711-.843 3.364-1.066 5.192-.726z" fill="#271291"/><path d="M40.772 34.031c-3.703 1.032-5.144 5.754-2.683 8.86.878 1.101 2.613 1.875 4.206 1.875 3.446 0 5.825-2.766 5.391-6.27-.27-2.156-1.804-3.902-3.914-4.465-.727-.199-2.285-.187-3 0zm3.117 2.028c2.192 1.136 2.66 4.101.926 5.812-.691.68-1.266.938-2.273.996-1.125.059-1.97-.234-2.684-.937-1.5-1.465-1.5-3.762 0-5.227.727-.715 1.465-.973 2.625-.926.656.035 1.078.117 1.406.282zM8.113 31.957c-.246.094-.516.738-.445 1.043.046.152.187.387.328.516.246.234.386.234 7.3.234 7.524 0 7.723.012 8.86.598.703.351 1.488 1.125 1.84 1.804.304.563.316.657.351 2.871.035 2.098.024 2.344-.21 2.954-.622 1.675-2.544 2.789-4.817 2.789-.703 0-2.145.375-2.977.773-.996.469-2.086 1.547-2.578 2.555-1.664 3.422.399 7.148 4.418 7.968.774.165 2.168.188 9.797.188 8.766 0 8.895 0 9.14-.234.47-.446.434-1.09-.081-1.489-.14-.117-2.25-.14-8.989-.152-5.343 0-9.047-.047-9.422-.117-2.12-.399-3.55-1.922-3.562-3.762 0-.644.07-.914.387-1.559.703-1.44 1.91-2.109 4.16-2.308.715-.059 1.605-.188 1.992-.281 2.156-.551 4.055-2.403 4.512-4.407.199-.843.164-4.746-.047-5.554-.55-2.11-2.473-3.844-4.817-4.336-.656-.14-2.12-.176-7.898-.164-3.902 0-7.16.035-7.242.07z" fill="#271291"/></svg>