<svg width="60" height="60" fill="none" xmlns="http://www.w3.org/2000/svg"><path d="M21.973 5.742a24.157 24.157 0 00-11.953 4.793c-1.055.797-3.153 2.883-3.985 3.938-6.797 8.707-6.797 20.496 0 29.18.844 1.078 2.953 3.163 3.985 3.949 4.16 3.152 9.234 4.898 14.273 4.898 8.133 0 15.715-4.207 19.992-11.11.645-1.03 1.395-2.507 1.711-3.328l.211-.562h4.242c3.88 0 4.278-.023 4.5-.21.2-.153.68-1.7 2.18-6.962 1.066-3.726 1.934-6.867 1.934-6.996 0-.117-.106-.34-.223-.492l-.223-.281-5.883-.059-5.882-.059-.457-1.289C43.581 13.16 36.55 7.336 28.008 5.918c-1.336-.223-4.735-.316-6.035-.176zm5.8 2.028c3.2.55 6.036 1.687 8.684 3.468 3.633 2.438 6.434 5.965 8.027 10.114.223.562.399 1.054.399 1.09 0 .035-.446.058-.985.058h-.972l-.211-.563c-.363-.949-1.348-2.847-1.969-3.773a19.669 19.669 0 00-26.133-6.187c-4.992 2.835-8.437 7.675-9.597 13.476-.387 1.922-.387 5.32 0 7.219.843 4.195 2.789 7.77 5.742 10.594 7.64 7.3 19.605 7.289 27.246-.012 1.418-1.36 3.152-3.68 3.82-5.145l.282-.609h1.042c.563 0 1.032.023 1.032.059 0 .035-.258.586-.575 1.218-3.27 6.492-9.68 10.91-17.027 11.72-5.168.573-10.676-.927-14.93-4.044-4.523-3.316-7.523-8.168-8.554-13.816-.305-1.653-.305-5.496 0-7.149 1.254-6.925 5.46-12.597 11.636-15.691 2.215-1.113 4.747-1.863 7.301-2.18 1.196-.14 4.524-.047 5.742.153zm-4.382 7.195c-.035.082-.246.152-.48.152-1.056 0-3.388.668-4.806 1.383-2.648 1.324-4.945 3.61-6.27 6.234-1.85 3.668-2.003 8.051-.41 11.766.47 1.078 1.36 2.59 1.91 3.234.2.246.376.493.376.551 0 .047-.574.68-1.29 1.383l-1.288 1.277-.352-.398c-1.242-1.453-2.648-3.938-3.27-5.813-.679-2.027-.878-3.28-.878-5.613 0-3.035.433-5.062 1.64-7.664 1.43-3.059 4.16-6.035 7.114-7.77 1.98-1.16 4.84-2.097 6.96-2.285l1.032-.093.035 1.757c.012.961 0 1.817-.023 1.899zm4.148-3.399c1.348.223 3.164.797 4.535 1.442 1.09.504 2.953 1.699 3.727 2.379l.468.422-1.078 1.09c-.597.597-1.09 1.148-1.09 1.206 0 .13.868.997 1.16 1.172.106.059.481-.246 1.243-.996.598-.597 1.137-1.054 1.207-1.008.48.293 2.344 3.153 2.895 4.454l.328.773-.258.2c-.2.163-.668 1.663-2.18 6.972-1.066 3.726-1.934 6.879-1.934 7.008 0 .14.13.375.294.527.269.281.351.293 1.746.293h1.464l-.351.621c-.422.703-1.969 2.777-2.086 2.777-.035 0-.55-.48-1.125-1.054-.574-.586-1.102-1.055-1.16-1.055-.164 0-1.242 1.066-1.242 1.219 0 .07.492.62 1.09 1.219l1.078 1.09-.47.41c-.784.668-2.484 1.77-3.62 2.32-1.817.89-4.207 1.57-6.188 1.746l-.68.07v-3.738h-1.875V46.828l-.867-.082c-3.562-.34-7.101-1.887-9.972-4.348-.059-.058 2.496-2.707 6.304-6.515l6.41-6.41V11.25l.563.07c.305.035 1.055.14 1.664.246zm-8.227 21.211c-2.273 2.274-4.16 4.137-4.195 4.137-.14 0-.996-1.266-1.488-2.18a12.064 12.064 0 01-.832-9.422c.305-.949 1.113-2.578 1.664-3.328.55-.785 1.851-2.086 2.707-2.742 1.371-1.031 3.773-2.004 5.52-2.226l.69-.082.036 5.859.023 5.86-4.125 4.124zm31.63-6.234c-2.04 1.195-3.762 2.168-3.82 2.168-.083 0-2.895-3.2-3.634-4.137-.152-.187.14-.199 5.508-.199h5.66l-3.715 2.168zm-7.102 1.371c2.46 2.883 2.59 3.023 2.988 3.023.234 0 5.895-3.187 9.387-5.296.258-.153.363-.176.328-.07-.023.081-.586 2.027-1.23 4.312-.657 2.285-1.29 4.512-1.419 4.945l-.234.797h-7.43c-4.09 0-7.44-.035-7.44-.082 0-.129 2.858-10.113 2.894-10.113.011 0 .984 1.125 2.156 2.484z" fill="#271291"/><path d="M29.063 26.25v.938H37.5v-1.876H29.063v.938zM27.188 30v.938H33.75v-1.876H27.187V30zM35.625 30v.938H37.5v-1.876h-1.875V30zM29.063 33.75v.938H35.624v-1.876H29.062v.938z" fill="#271291"/></svg>