<svg width="20" height="20" fill="none" xmlns="http://www.w3.org/2000/svg"><g clip-path="url(#clip0_415_5891)" fill="#271291"><path d="M2.477.092C1.32.34.323 1.352.08 2.517c-.108.521-.108 13.517 0 14.038a3.192 3.192 0 001.66 2.148c.755.377.326.357 7.748.357 7.417 0 7.002.015 7.753-.352.81-.402 1.472-1.265 1.654-2.153.114-.536.109-7.138-.005-7.406a1.051 1.051 0 00-.958-.655c-.434 0-.75.189-.953.57-.108.2-.108.234-.133 3.701l-.025 3.502-.133.194a1.502 1.502 0 01-.321.317l-.183.124H2.793l-.183-.124a1.5 1.5 0 01-.321-.317l-.133-.194V2.8l.148-.213c.084-.114.247-.263.365-.328l.217-.114h5.428c3.995 0 5.486-.015 5.659-.06.326-.079.666-.43.745-.763a1.022 1.022 0 00-.543-1.18l-.261-.13-5.556.005c-4.563 0-5.62.015-5.881.075z"/><path d="M18.654 1.128c-.108.04-.207.075-.222.075-.015 0-2.03 2.014-4.479 4.474l-4.46 4.48L8.22 8.88c-.697-.699-1.348-1.31-1.442-1.359-.36-.188-.929-.08-1.22.238-.267.283-.34.829-.168 1.171.054.1.88.967 1.842 1.93 1.817 1.815 1.857 1.85 2.262 1.85.424 0 .242.173 5.447-5.05 3.975-3.993 4.938-4.985 5.002-5.154.119-.312.074-.709-.109-.972-.266-.382-.78-.56-1.18-.407z"/></g><defs><clipPath id="clip0_415_5891"><path fill="#fff" d="M0 0h20v20H0z"/></clipPath></defs></svg>