<svg width="60" height="60" fill="none" xmlns="http://www.w3.org/2000/svg"><path d="M21.148 1.066c-.316.07-1.007.329-1.535.575-2.261 1.09-3.68 3.41-3.68 6.058v.739h-.644c-.539 0-.703.046-.937.292-.282.27-.293.34-.293 1.875v1.582h-1.875v-.656c0-1.02-.211-1.558-.88-2.215-.738-.75-1.171-.879-2.87-.879-1.7 0-2.133.13-2.871.88-.668.656-.88 1.195-.88 2.203v.644l-.55.082c-1.207.176-2.297.984-2.848 2.11l-.293.585V46.934l.27.527c.41.844.879 1.336 1.664 1.746.61.328.89.398 1.71.457l.985.059v1.57c0 1.512.012 1.582.293 1.852l.281.292H16.296l.282-.292c.281-.27.293-.34.293-1.876v-1.581h6.55l.036 3.316c.035 3.152.047 3.328.305 3.832.41.844.879 1.336 1.687 1.77l.738.398H56.306l.738-.398c.82-.446 1.172-.81 1.64-1.7L59 56.31V39.316l-.398-.738c-.704-1.289-1.688-1.887-3.258-1.992l-.973-.059-.023-10.793-.035-10.793-.399-.738c-.598-1.113-1.535-1.781-2.742-1.957l-.55-.082v-.644c0-1.008-.212-1.547-.88-2.204-.738-.75-1.172-.879-2.87-.879-1.7 0-2.134.13-2.872.88-.668.656-.879 1.195-.879 2.214v.656h-1.875v-1.582c0-1.535-.012-1.605-.293-1.875-.234-.234-.398-.293-.914-.293h-.633l-.07-1.148c-.094-1.805-.691-3.176-1.887-4.394-.726-.739-1.394-1.16-2.52-1.594l-.773-.305-6.21-.023c-3.598-.012-6.458.035-6.798.093zm13.559 2.18c1.078.504 1.77 1.184 2.273 2.215.364.738.434.996.493 1.91l.058 1.066h-1.91v-.656c0-.949-.21-1.511-.785-2.156-.855-.95-.773-.938-7.16-.938-4.02 0-5.695.036-6.047.141-.645.188-1.617 1.16-1.805 1.805-.082.27-.14.785-.14 1.148v.657h-1.91l.058-1.043c.07-1.243.48-2.262 1.254-3.094.516-.563 1.582-1.184 2.309-1.36.257-.058 3.082-.105 6.492-.093l6.035.023.785.375zm-1.254 3.61c.246.234.293.398.293.937v.644h-.644c-.54 0-.704.047-.938.293-.281.27-.293.34-.293 1.875v1.582H23.434v-1.582c0-1.535-.012-1.605-.293-1.875-.235-.246-.399-.293-.938-.293h-.644v-.644c0-.54.046-.703.293-.938l.28-.293h11.04l.281.293zm-23.437 3.75c.246.234.293.398.293.937v.645h-3.75v-.645c0-.54.046-.703.293-.938.27-.28.363-.293 1.582-.293 1.218 0 1.312.012 1.582.293zm11.543.644v.938h-5.625v-1.876h5.625v.938zm17.812 0v.938h-5.625v-1.876h5.625v.938zm9.082-.645c.246.235.293.399.293.938v.645h-3.75v-.645c0-.54.047-.703.293-.938.27-.28.363-.293 1.582-.293s1.313.012 1.582.293zm-7.207 4.653v1.195l-1.406 1.418-1.406 1.43v7.312l.293.282.28.293h6.352l.282-.293.293-.282v-7.312l-1.407-1.43-1.406-1.418v-2.402l4.09.035c3.926.035 4.113.047 4.418.281.176.13.434.387.562.563.246.316.246.422.282 10.98l.023 10.652h-9.891L40.25 34.22c-2.098-2.086-2.402-2.344-2.742-2.344a.918.918 0 00-.656.293c-.293.281-.293.316-.293 2.332v2.05l-5.121.036-5.133.035-.645.305c-.586.281-1.64 1.183-1.64 1.418 0 .047-4.77.093-10.606.093H2.81V27.023c0-7.804.035-11.53.128-11.753.165-.434.551-.856.985-1.043.293-.13 3.691-.153 18.844-.165h18.48v1.196zm1.898 3.926l.915.914v1.464h-3.75v-1.464l.902-.903c.504-.504.937-.914.973-.914.023 0 .468.41.96.903zm.915 5.191v.938h-3.75v-1.876h3.75v.938zm4.793 14.063c6.984.058 7.148.058 7.464.304.176.13.434.387.563.563.246.316.246.422.246 8.508 0 8.085 0 8.19-.246 8.507a3.193 3.193 0 01-.563.563c-.316.246-.351.246-15.07.246-14.719 0-14.754 0-15.07-.246a3.193 3.193 0 01-.563-.563c-.246-.316-.246-.422-.246-8.508 0-8.085 0-8.19.246-8.507.13-.176.387-.434.563-.563.316-.234.492-.246 6.07-.304l5.742-.06.223-.28c.187-.235.223-.47.223-1.63v-1.37l1.64 1.64 1.64 1.64 7.138.06zM23.434 41.25v.938H2.809v-1.876h20.625v.938zm0 4.688v1.874l-9.715-.023c-9.61-.035-9.727-.035-10.043-.281-.703-.516-.809-.785-.844-2.168l-.047-1.278h20.649v1.876zm-8.438 4.687v.938h-7.5v-1.876h7.5v.938z" fill="#271291"/><path d="M29.035 44.613c-.82.82-1.5 1.547-1.488 1.617.012.06.305.376.645.692l.644.586.574-.574.586-.575v4.266h-1.875V52.5h5.625v-1.875h-1.875v-6.926l-.293-.281a.899.899 0 00-.656-.293c-.328 0-.586.2-1.887 1.488zM36.563 43.277c-.575.188-1.56 1.196-1.735 1.793-.094.305-.14 1.313-.14 2.743 0 2.707.07 3.011.878 3.808.856.867 1.77 1.078 2.907.692.668-.223 1.5-1.09 1.699-1.782.094-.28.14-1.312.14-2.718 0-1.407-.046-2.438-.14-2.72-.2-.69-1.031-1.558-1.7-1.78a3.131 3.131 0 00-1.91-.036zm1.581 2.016c.294.281.294.305.294 2.52 0 2.214 0 2.238-.294 2.52a.913.913 0 01-.644.292.913.913 0 01-.645-.293c-.292-.281-.292-.305-.292-2.52 0-2.214 0-2.238.292-2.519A.913.913 0 0137.5 45c.223 0 .469.105.645.293zM42.18 47.813V52.5h1.875v-1.758c0-.972.023-1.758.058-1.758.223 0 .797.41 1.137.82.48.563.68 1.15.68 2.04v.656H47.839l-.058-1.043c-.07-1.266-.492-2.262-1.289-3.105l-.527-.54.527-.539c.797-.843 1.219-1.84 1.29-3.105l.058-1.043h-1.911v.727c0 .832-.292 1.593-.796 2.12-.281.305-.844.669-1.02.669-.035 0-.058-.797-.058-1.758v-1.758H42.18v4.688zM51.563 43.277c-.575.188-1.56 1.196-1.735 1.793-.094.305-.14 1.313-.14 2.742 0 2.708.07 3.012.878 3.81 1.196 1.206 2.848 1.183 3.961-.06.657-.726.785-1.195.785-2.8 0-1.23-.011-1.325-.292-1.594-.258-.27-.376-.293-1.407-.293H52.5v1.875h.937v.645c0 .539-.046.703-.292.937-.376.387-.915.387-1.29 0-.292-.281-.292-.305-.292-2.52 0-2.214 0-2.238.292-2.519A.913.913 0 0152.5 45c.387 0 .938.445.938.762 0 .14.175.175.937.175.785 0 .938-.035.938-.187 0-.89-.938-2.133-1.84-2.438a3.131 3.131 0 00-1.91-.035z" fill="#271291"/></svg>