<svg width="63" height="34" fill="none" xmlns="http://www.w3.org/2000/svg"><g clip-path="url(#clip0_218_923)"><path d="M54.044 33.86c.185-.135.186-.164.012-.681-.1-.298-.266-.645-.37-.772-.164-.2-.17-.265-.046-.5.078-.15.19-.277.249-.285.06-.007.197-.019.307-.026.242-.016.361-.392.212-.667-.077-.142-.07-.245.021-.355.132-.157.128-.172-.222-.905-.104-.218-.107-.32-.013-.433.095-.114.087-.177-.037-.28a.556.556 0 01-.16-.381c0-.137-.037-.25-.081-.25-.093 0-.398.441-.371.537.01.035-.101.126-.246.203-.145.077-.29.249-.325.383-.034.134-.1.243-.148.243-.048 0-.156.069-.24.152-.223.22-.555.09-.768-.303-.133-.244-.266-.346-.463-.354-.151-.007-.457-.03-.678-.05-.222-.022-.426-.003-.454.041-.074.12-.458.023-.763-.192-.378-.265-.475-.32-.715-.404-.201-.07-.2-.078.036-.14l.248-.065-.274-.294c-.151-.161-.275-.338-.275-.393 0-.055-.05-.1-.11-.1-.062 0-.24-.12-.398-.267-.27-.251-.339-.265-1.083-.213-1.141.078-1.273.1-1.275.218 0 .058-.167.212-.37.342-.422.27-.465.442-.159.632.238.147.289.642.087.842-.069.068-.13.443-.135.835-.01.627-.046.749-.306 1.024l-.296.312-.47-.168c-.384-.136-.501-.142-.653-.032-.151.11-.238.107-.473-.014-.26-.132-.326-.125-.666.074-.208.121-.405.33-.439.462-.043.17-.164.261-.41.307-.19.035-.431.157-.535.27-.103.113-.237.176-.297.139-.06-.037-.383-.057-.719-.045-.508.018-.647-.017-.826-.207-.14-.15-.292-.21-.435-.173-.147.039-.254-.008-.327-.143-.136-.252-.887-.276-1.336-.044-.167.086-.392.157-.5.158-.222 0-.811-.578-.811-.796 0-.157-.525-.465-.791-.465-.263 0-.95-.403-1.03-.604-.06-.15-.075-.138-.081.063-.005.137-.127.389-.273.56-.276.325-.348.803-.151.998.082.081.036.191-.161.386-.223.221-.34.26-.618.208-.189-.035-.4-.109-.471-.163-.07-.055-.171-.073-.225-.04-.11.066-.376-.21-.479-.495-.05-.142-.157-.182-.414-.158-.19.018-.393-.023-.452-.093-.08-.096-.242-.075-.69.094-.32.12-.718.215-.884.208-.216-.008-.286.03-.246.134.063.163-.103.247-.663.334-.21.033-.414.08-.454.105-.04.024-.183-.072-.318-.214a1.027 1.027 0 00-.613-.291c-.313-.029-.383-.085-.466-.375-.055-.188-.163-.342-.242-.342-.09 0-.144-.12-.144-.317 0-.259-.069-.349-.373-.492-.265-.126-.405-.144-.486-.063-.18.178-.514.033-.686-.297-.167-.318-.47-.412-.47-.144a.159.159 0 01-.16.157c-.125 0-.16-.143-.16-.664 0-.365-.074-.913-.165-1.219-.092-.305-.145-.576-.118-.603.027-.027-.065-.17-.205-.32-.314-.337-.316-.407-.015-.503.207-.066.184-.086-.18-.156-.302-.059-.46-.041-.563.062-.145.143-.549.138-.91-.013-.152-.063-.164-.1-.054-.167.11-.068.096-.12-.07-.245-.117-.087-.27-.16-.341-.162-.072-.002-.102-.074-.069-.16.045-.116-.013-.158-.215-.158-.264 0-.37-.188-.2-.357.042-.041.087-.238.1-.437.02-.297-.014-.362-.183-.362-.113 0-.299-.092-.412-.205-.165-.163-.27-.186-.527-.113-.35.1-1.3-.068-2.396-.422-.35-.114-.705-.206-.788-.206-.083 0-.235-.076-.338-.168-.103-.092-.232-.14-.287-.107-.163.1-.223.63-.09.8.107.136.099.139-.056.019-.283-.22-.674-.119-.644.166.029.267-.258.327-.492.104-.113-.107-.128-.054-.08.29.128.919.127.938-.058.975-.1.02-.284-.081-.41-.225-.126-.144-.288-.24-.36-.212-.168.064-.346-.155-.392-.485-.023-.16-.118-.277-.248-.302a.669.669 0 01-.355-.244c-.082-.115-.214-.179-.302-.145-.086.032-.272.03-.413-.005-.196-.048-.257-.134-.257-.361 0-.364-.16-.486-.308-.234-.083.142-.1.066-.073-.316.028-.409-.003-.523-.167-.61-.11-.059-.194-.164-.185-.233.039-.31-.022-.4-.248-.369-.178.025-.247-.026-.272-.2-.03-.206-.08-.225-.451-.174-.245.034-.418.015-.418-.047 0-.057-.203-.094-.45-.082-.369.019-.457.064-.484.244-.018.122-.103.249-.19.281-.173.066-.308-.172-.223-.393.103-.266-.078-.372-.53-.312-.343.046-.453.11-.5.296-.062.244-.487.444-.487.23 0-.066-.076-.012-.168.119-.129.181-.14.272-.047.382.093.112.078.17-.07.252-.18.1-.177.12.055.336.17.157.229.3.188.453a1.84 1.84 0 00-.063.356c0 .072-.073.131-.16.131-.192 0-.213.375-.028.489.296.18-.411.204-.835.027-.384-.16-.475-.165-.724-.036-.156.08-.317.141-.357.136-.339-.047-.445.033-.423.32.013.167-.037.377-.111.465-.112.133-.1.18.07.27.113.06.235.078.272.042.037-.037.067-.011.067.056 0 .073-.17.123-.416.123-.45 0-.423-.044-.6.972-.052.298-.119.394-.276.394-.441 0-.617-.194-.617-.68 0-.255-.051-.495-.113-.533-.062-.038-.105-.194-.095-.348.047-.727-.004-.908-.308-1.079-.25-.14-.313-.26-.36-.68-.032-.28-.112-.527-.177-.548-.16-.053-.433-.59-.433-.85a.49.49 0 00-.2-.349c-.172-.119-.21-.326-.265-1.43L0 19.068l.256.274c.226.242.283.258.477.137.177-.11.263-.11.433-.005.19.118.212.105.212-.126 0-.142.048-.287.106-.322.059-.036.107-.027.107.02.001.085.497.347.657.347.16 0 .085-.304-.1-.407-.165-.092-.167-.111-.019-.168.209-.08.734.11.734.265 0 .153.452.012.563-.176a.312.312 0 01.238-.144c.085 0 .154-.042.154-.093 0-.05.096-.117.212-.148.262-.068.29-.609.053-1.057-.086-.165-.13-.409-.096-.541.051-.203.01-.253-.253-.31-.271-.06-.311-.112-.29-.383a.924.924 0 01.253-.524c.271-.25.276-.296.062-.599-.156-.22-.15-.24.103-.335a.584.584 0 00.34-.385c.06-.239.01-.342-.325-.645l-.397-.36.295-.305c.349-.36.424-.375.498-.095.04.154.145.21.39.21.218 0 .31-.04.262-.116-.102-.163.161-.94.414-1.222.115-.129.298-.262.405-.296.204-.064.276-.511.1-.62-.053-.031-.073-.147-.044-.256.029-.11 0-.23-.063-.269-.172-.105-.14-.373.046-.373.089 0 .216-.119.282-.263.067-.145.185-.263.263-.263.078 0 .142-.045.142-.101 0-.056.103-.156.229-.223.194-.103.218-.096.162.05-.088.226.092.216.266-.015.077-.101.368-.29.648-.421.553-.258.816-.21 1.03.187.19.352.325.239.252-.213-.047-.292-.03-.42.058-.42.07 0 .093-.052.053-.116-.047-.076-.003-.095.127-.055.421.132 1.362.276 1.797.276.455 0 .852-.234.73-.43-.113-.18.067-.502.302-.538.129-.02.222-.093.207-.164-.014-.07.07-.129.186-.129.131 0 .213-.07.213-.184 0-.177.428-.446.707-.446.075 0 .22-.13.323-.29.257-.398.462-.544.773-.55.371-.006.493-.11.575-.487.061-.277.132-.339.454-.39.28-.046.458-.008.67.141.158.112.31.18.34.151.029-.028.116.024.193.116.092.11.104.193.032.24-.142.092-.256.543-.136.543.05 0 .15.106.22.236.156.29.128 2.484-.034 2.678-.062.073-.29.186-.508.25-.327.098-.443.089-.656-.05-.387-.251-.732-1.316-.728-2.253 0-.3-.18-.207-.34.174-.152.362-.16.39-.175.692-.009.167-.096.28-.252.327-.41.124-.716.479-.716.833 0 .181-.057.386-.127.455-.084.083-.088.126-.013.126.063 0 .14.095.17.21.063.235.336.281.467.08.048-.073.086-.25.086-.393 0-.162.069-.274.183-.296.146-.028.18.036.17.32-.028.714.471 1.068.678.481.11-.316.115-.317.703-.244.358.044.643.142.721.247.073.097.086.189.03.208-.166.06.007.228.234.228.256 0 .48-.202.533-.48.022-.114.143-.218.275-.237.13-.018.327-.148.439-.29.128-.161.266-.232.373-.191.2.075.207.142.062.52-.081.212-.14.253-.244.168-.24-.196-.577-.025-.628.319-.061.41.175.653.546.561.663-.163 1.524-.09 1.788.154.132.122.253.166.291.105.036-.057.165-.104.287-.104.215 0 .216.007.032.208-.159.175-.167.236-.05.375.084.102.23.144.37.109a.406.406 0 01.404.13c.107.118.297.18.502.166.296-.02.323.002.267.223-.053.209-.026.242.18.22.351-.037.5-.153.5-.39 0-.376.295-.342.686.08.372.399.551.737.447.84-.03.03.039.146.152.258.114.113.235.345.27.517.035.171.123.312.196.312.218 0 .394-.29.318-.526-.039-.121-.013-.288.057-.372.09-.108.093-.153.009-.153-.187 0-.14-.309.093-.602.117-.147.212-.379.212-.516 0-.176.06-.248.207-.248.114 0 .434-.213.712-.473a8.26 8.26 0 01.53-.473c.012 0 .145.046.295.103.367.138.354.492-.037.952-.224.264-.294.438-.255.636a.486.486 0 01-.116.439c-.093.092-.169.209-.169.26 0 .05-.096.29-.214.532-.135.278-.19.536-.148.702.048.19.017.281-.11.33-.097.036-.15.133-.12.214.036.09-.043.185-.206.246-.144.055-.263.145-.263.2 0 .055-.154.176-.343.27-.319.157-.352.156-.477-.013-.074-.1-.134-.144-.134-.097 0 .047-.072.027-.16-.045-.096-.08-.159-.088-.159-.021 0 .267.158.46.49.597.323.134.405.128.836-.061.623-.273 1.056-.678 1.083-1.014.028-.353.142-.453.432-.378.271.07.43.516.25.696-.149.146-.159.601-.014.601.058 0 .206.1.329.221l.222.22-.079-.246a.844.844 0 00-.247-.369c-.154-.11-.153-.14.015-.323a.754.754 0 00.184-.43c0-.275-.398-.753-.629-.756a.685.685 0 01-.303-.087c-.171-.108-.009-.587.315-.93.156-.164.206-.33.175-.587-.042-.356.1-.6.35-.6.07 0 .228-.084.349-.185.215-.179.216-.178.056.027-.091.115-.178.363-.194.55-.023.277.022.363.245.463.15.068.273.163.273.212 0 .048.07.088.155.088.2 0 .09-.316-.175-.505-.233-.166-.254-.44-.033-.44.087 0 .159.047.159.104 0 .058.077.105.171.105.117 0 .155-.064.118-.202-.039-.149-.001-.2.14-.189.106.008.17.052.14.098-.028.046.022.083.112.083s.194.119.23.264c.04.16.167.288.32.327.31.076.328.206.042.28-.145.038-.212.144-.212.334 0 .176.043.253.116.207.07-.042.06.03-.022.178-.077.137-.124.297-.106.354.04.126.098.39.11.5.012.115.326.096.326-.02 0-.055-.046-.128-.102-.162-.065-.04-.065-.158 0-.328.056-.146.102-.408.102-.581 0-.174.052-.412.116-.53.084-.155.084-.246 0-.33a.435.435 0 01-.116-.266c0-.083-.071-.204-.158-.268-.113-.083-.14-.225-.094-.502l.065-.385.73.017c.515.013.73.058.73.153 0 .1.052.107.198.03.15-.08.193-.207.175-.524-.016-.281.025-.437.126-.476.083-.031.124-.1.092-.151-.084-.135.6-.433.993-.433.197 0 .357-.064.393-.157.068-.176.357-.218.357-.053 0 .058.086.105.19.105.238 0 .763-.235.764-.341 0-.044.112-.08.247-.08.212 0 .24-.042.203-.3-.057-.384.454-.923.69-.729.117.096.118.134.006.206-.11.07-.106.109.022.192a.676.676 0 00.291.105c.073 0 .133.096.133.212 0 .245.191.281.28.052.094-.244.563-.186.967.119.28.212.332.298.222.37-.116.076-.108.12.043.234.266.203.233.345-.185.782-.204.213-.37.436-.371.496 0 .06-.216.334-.479.61-.262.275-.476.557-.474.626.002.07.066.045.145-.058a.518.518 0 01.36-.184.31.31 0 00.29-.218c.041-.128.13-.194.216-.162.08.03.216-.013.301-.097.201-.2.555-.197.633.004.033.087.113.158.176.158.064 0 .09-.042.058-.094-.086-.137.418-.431.74-.431.151 0 .347.07.435.157.205.203.705.202 1.105-.003.269-.138.299-.192.203-.37-.156-.29-.043-.419.304-.35.196.039.34.003.433-.107.125-.15.169-.144.451.055.181.128.29.282.257.367-.032.083.01.145.1.145.177 0 .208.166.047.264-.155.095-.005.287.172.22.096-.037.148.017.148.153 0 .13.111.254.292.328.413.168.724.156.678-.026a4.802 4.802 0 01-.074-.494c-.03-.289-.01-.33.132-.25.244.135.564.023.564-.198 0-.242.199-.31.506-.173.305.136.604-.082.341-.248-.131-.084-.119-.112.074-.164.207-.056.218-.092.108-.342-.068-.153-.167-.309-.22-.346-.054-.038-.06-.156-.013-.263.047-.107.08-.222.075-.256-.006-.034.189-.163.434-.287.37-.187.45-.199.48-.07.04.19.226.207.24.024.007-.072.044-.013.085.132.114.407.273.31.31-.19.026-.37.08-.469.298-.55.39-.148.486-.125.414.099-.059.185-.03.192.382.1.245-.054.517-.072.604-.039.174.066.655-.326.655-.534 0-.072.124-.277.275-.455.228-.268.352-.323.731-.323.308 0 .477.051.518.158.131.34.956.08.91-.287-.036-.287.154-.627.402-.72.143-.055.315-.243.382-.419.087-.227.176-.306.308-.271.103.026.216.001.252-.056.036-.058.154-.082.262-.054a.342.342 0 00.319-.096c.176-.21-.062-.462-.435-.462-.418 0-.462-.251-.11-.625.167-.176.28-.32.254-.32-.027 0 .038-.152.143-.338.29-.511.701-.835 1.677-1.321.175-.088.399-.228.497-.311.099-.084.225-.125.28-.09.057.033.132-.014.168-.106.04-.103.131-.143.235-.104.126.048.152.02.102-.109-.059-.153.008-.167.572-.116.506.045.64.027.64-.09 0-.088-.11-.148-.266-.148-.308 0-.328-.058-.1-.284.09-.09.14-.226.111-.302-.03-.08.046-.17.18-.21A2.37 2.37 0 0057.63.14c.307-.214.295-.223.334.258a.332.332 0 00.117.21c.066.05.048.116-.05.178-.086.055-.13.124-.1.155.056.056.45.143.713.158.078.005.105.062.062.13-.051.084-.019.102.1.057.115-.044.177-.014.177.087 0 .085-.048.154-.107.154-.058 0-.096.036-.084.08.012.042-.12.225-.293.404-.254.263-.35.304-.496.212-.143-.089-.216-.069-.34.095a.885.885 0 00-.162.444c-.003.18-.066.237-.263.237-.142 0-.288-.048-.324-.106-.098-.156-.234-.127-.309.066-.082.212.239.472.49.398.13-.04.242.065.4.373.241.468.18.743-.208.95-.131.068-.182.17-.14.28.061.156.076.156.193-.003a.494.494 0 01.355-.172c.124 0 .227-.05.227-.112 0-.13.442-.019.543.137.042.065.093.06.137-.01.09-.145.834-.124.933.026.087.133-.313.59-.518.59-.175 0-.186.177-.014.234.078.026.137.331.154.808.016.422.08.92.142 1.108.063.188.133.437.155.553.023.117.09.384.148.594.1.36.093.38-.148.38-.316 0-.572.45-.596 1.046-.014.363-.039.405-.175.293-.138-.113-.151-.071-.099.317.044.325.023.447-.077.447-.228 0-.276.445-.078.718.1.137.302.469.447.736.265.486.637.715.637.392 0-.09.077-.165.171-.165.117 0 .155.064.119.202-.04.15.018.221.226.28.154.043.32.069.37.057a.769.769 0 01.292.042c.238.075.271.365.042.365-.088 0-.16.088-.16.196 0 .282.405.75.648.75.25 0 .384.281.216.448-.066.066-.12.292-.12.504 0 .283.066.434.254.574.242.18.247.209.11.592-.114.321-.116.404-.008.404.176 0 .598.964.598 1.367 0 .413-.273.418-.661.01a3.34 3.34 0 00-.74-.536c-.885-.457-2.524-1.956-2.524-2.308 0-.28-.222-.74-.356-.74-.067 0-.06-.05.017-.126.188-.187.164-1.29-.032-1.45a.479.479 0 01-.16-.322c0-.105-.05-.222-.11-.26-.078-.047-.078-.108 0-.201.08-.095.059-.274-.072-.624-.153-.408-.16-.527-.047-.706.154-.245.09-.368-.442-.844-.192-.172-.31-.382-.31-.552 0-.317-.153-.356-.356-.09-.197.256-.181.419.064.68.12.128.213.371.213.56 0 .185.029.48.064.656.053.259.031.316-.108.296-.096-.014-.247-.129-.336-.255-.188-.266-.363-.3-.363-.072 0 .086-.076.157-.169.157-.093 0-.194.095-.225.21-.03.116-.093.21-.14.21-.15 0-.235.63-.105.786.067.08.15.421.183.757.034.337.13.746.213.91.146.287.16.292.357.115.12-.107.204-.132.204-.06 0 .066-.119.224-.265.35-.146.125-.265.294-.265.374 0 .096-.07.124-.203.082-.112-.035-.232-.02-.266.035-.034.055-.157.075-.274.045-.147-.038-.212-.003-.212.115 0 .093-.036.164-.08.157-.315-.05-.462.043-.519.326-.065.322-.21.486-.606.687-.125.063-.22.197-.212.297.011.125-.022.15-.106.081-.083-.068-.248.014-.516.257-.595.54-.753.83-.677 1.235.037.193.03.386-.013.43-.044.043-.089.314-.1.601-.01.288-.07.584-.132.659-.062.074-.109.444-.103.82.006.378-.042.784-.107.904a1.2 1.2 0 00-.117.48c0 .146-.048.293-.107.33-.058.035-.106.156-.106.268 0 .156.074.204.312.204.172 0 .342-.047.377-.104.036-.058.18.024.322.184.205.23.256.252.259.104.004-.223.216-.25.216-.026a.159.159 0 00.318 0c0-.087.071-.158.159-.158.181 0 .216-.268.048-.37-.206-.127.13-.388.423-.33.643.13.971.232.968.304-.002.043.167.246.375.453.239.236.356.435.316.538-.084.216.137.927.362 1.166.099.105.307.443.463.75.283.559.284.566.236 2.466-.05 2.014-.079 2.362-.211 2.575-.046.072-.055.242-.02.377.08.317-.298 1.167-.664 1.493-.234.208-.355.24-.73.19l-.448-.06-.069.425c-.054.34-.113.427-.287.427-.209 0-.21-.007-.025-.14zm5.107-5.228c-.16-.178-.265-.39-.233-.473.032-.082.015-.15-.037-.15-.108 0-.429-.594-.429-.795 0-.073-.161-.232-.359-.352-.197-.121-.421-.373-.497-.56-.077-.188-.301-.554-.5-.814-.198-.26-.425-.627-.504-.815-.097-.227-.217-.341-.362-.341-.218 0-.642-.339-.642-.513 0-.05-.072-.15-.16-.223-.087-.072-.158-.204-.158-.294 0-.089-.082-.252-.182-.36-.141-.155-.151-.218-.047-.282.19-.116.036-.655-.203-.717-.11-.028-.166-.111-.133-.196.088-.229.241-.175.356.125.058.15.2.298.316.328.116.03.21.121.21.203 0 .082.084.178.186.214.325.115.46.263.356.389-.126.15.155.494.546.667.16.07.292.177.292.236 0 .06.052.108.116.108s.41.255.77.567c.358.312.82.639 1.023.727l.372.16-.508.008c-.617.01-.682.128-.447.813.236.689.563 1.192.778 1.196.097.002.27.073.383.158.114.085.285.13.38.1.23-.072.503.464.3.589-.074.045-.177.055-.23.023-.052-.033-.03-.1.048-.15.106-.066.11-.09.012-.091-.23-.003-.542.379-.44.537.262.41.002.395-.373-.022zm-.478-.35c-.005-.111.02-.174.055-.139.036.035.04.126.009.202-.034.084-.06.059-.064-.064zm2.962-.45c0-.299.052-.45.17-.495.147-.056.161-.007.099.33-.108.58-.27.678-.27.165zm.392-.73c-.15-.148-.08-1.064.085-1.127a.26.26 0 00.16-.221c0-.089.047-.161.105-.161.145 0 .134.12-.052.56-.087.205-.13.445-.097.531.071.184-.093.525-.201.418zm.57-2.107c-.004-.185.04-.365.099-.4.127-.078.127.232 0 .525-.077.177-.093.157-.1-.125zm.327-1.609c0-.145.025-.204.054-.131.03.072.03.19 0 .262-.03.073-.054.013-.054-.131zm-10.572-.526c-.036-.057-.015-.105.047-.105s.112.048.112.105c0 .058-.02.106-.047.106-.025 0-.076-.048-.112-.106zm10.181-1.37c-.097-.157-.02-.212.15-.108.092.056.102.11.031.153a.134.134 0 01-.18-.046zm-.156-.731a.106.106 0 01.212 0 .106.106 0 01-.212 0zm-.115-.578a.714.714 0 01-.002-.188c.008-.046-.032-.169-.088-.273-.07-.129-.064-.23.02-.311.152-.151.328-.16.235-.012-.037.06-.02.167.038.237.073.087.06.21-.04.39-.08.144-.154.214-.163.157zm-6.886-4.198c0-.025.047-.075.106-.111.058-.036.106-.015.106.046a.11.11 0 01-.106.112c-.059 0-.106-.021-.106-.047zM22.7 11.196c0-.174.048-.316.106-.316.059 0 .107.142.107.316 0 .173-.048.315-.107.315-.058 0-.106-.142-.106-.315zm14.701-.408c-.033-.053.012-.123.099-.156.087-.033.158-.017.158.035 0 .143-.188.231-.257.12zm-10.442-.423c-.107-.066-.112-.109-.02-.165.146-.09.255-.01.201.145-.022.063-.096.072-.181.02zm-4.713-.317c-.23-.27-.268-.38-.174-.492.159-.188.034-.672-.173-.672-.125 0-.137-.045-.052-.201.068-.126.182-.182.307-.15.12.032.314-.054.494-.219.34-.312.462-.33.748-.118.198.147.188.17-.257.566-.42.373-.47.47-.53 1.023l-.068.611-.295-.348zM19.59 9.97c-.124-.122-.078-.235.143-.352.17-.09.227-.078.28.06.089.228-.251.462-.424.292zm24.727-1.323c-.123-.33.173-.493.6-.33.24.091.208.2-.102.34-.344.155-.438.153-.498-.01zm-20.66-.499c-.078-.143-.08-.21-.005-.21.06 0 .098-.06.084-.132-.015-.073.055-.117.159-.1.102.017.185-.013.185-.066 0-.053.144-.156.319-.228.175-.071.318-.162.318-.2 0-.038.123-.08.274-.092.15-.012.35-.065.445-.117.102-.057.274-.057.425 0 .139.053.299.068.355.033.056-.034.172-.004.258.067.104.085.354.108.744.068.46-.047.6-.026.648.095.033.086.03.186-.008.222-.102.102-1.106.211-1.232.135-.06-.037-.359-.026-.664.025-.306.05-.691.105-.857.122-.166.016-.333.072-.371.125-.039.052-.19.108-.335.124-.146.015-.319.098-.383.184-.157.206-.224.196-.36-.055zm20.261.164c0-.026.048-.076.107-.111.058-.036.106-.015.106.046a.11.11 0 01-.106.111c-.059 0-.107-.02-.107-.046zM2.897 8.126a1.38 1.38 0 01-.173-.32c-.039-.107-.175-.183-.328-.183-.145 0-.293-.05-.33-.11-.045-.07.027-.085.205-.04.226.055.274.03.274-.143 0-.38.521-.376.529.004 0 .043.076.078.167.078.126 0 .158.093.133.394-.035.413-.277.576-.477.32zm40.095-.128c-.26-.119-.479-.606-.384-.851.072-.184.189-.195.478-.041.252.133.396.042.215-.137-.202-.2-.15-.239.344-.26.475-.022.785.163.648.383-.108.173-.458.129-.588-.074-.08-.124-.104-.133-.076-.026.023.087.146.21.275.274l.234.117-.295.196c-.163.107-.338.183-.389.168-.05-.016-.065.041-.033.125.078.201-.132.262-.429.126zm-8.523-.649c.12-.223.22-.466.22-.54 0-.072.048-.132.106-.132.058 0 .106.047.106.105 0 .058.051.105.114.105.184 0 .442.309.383.46-.03.078-.19.17-.355.205-.166.036-.412.097-.548.135l-.246.07.22-.408zm-.867-.417c-.363-.195-.39-.596-.056-.827.3-.21.44-.209.36 0-.049.125-.015.15.138.101.243-.076.376.096.267.344a.814.814 0 00-.056.363c.028.228-.25.236-.653.019zm10.916-.336c-.06-.1.15-.281.355-.307.088-.01.278-.054.424-.097.256-.076.259-.071.1.165-.159.238-.777.406-.879.24zm-11.562-.41c-.129-.127-.073-.24.089-.178.087.033.159.103.159.154 0 .11-.146.125-.248.024zm.21-.402c-.084-.217.102-.579.298-.579a.22.22 0 00.194-.13c.063-.176.151-.085.228.236.079.33-.026.49-.377.577-.203.05-.294.023-.343-.104zm18.709-.515c0-.022.071-.068.159-.102.087-.033.159-.014.159.042s-.072.102-.16.102c-.087 0-.158-.02-.158-.042zM28.159 3.83a.174.174 0 01.021-.206c.126-.124.402.057.31.204-.092.148-.24.15-.331.002zm.59.01c0-.059.098-.106.218-.106s.189.047.152.105c-.036.058-.134.105-.218.105-.084 0-.153-.047-.153-.105zm-.902-.735c-.037-.06.006-.077.1-.041.184.07.217.145.065.145-.055 0-.13-.047-.165-.104zm-1.274-.422c-.326-.082-.266-.118.232-.136.157-.006.304.046.327.115.047.138-.076.143-.559.021zm-.194-.385a.248.248 0 01-.07-.148c0-.1.41.005.485.126.066.107-.31.127-.415.022zm26.045-.405c-.177-.384-.156-.552.087-.681.234-.124.242-.108.214.42-.025.488-.148.594-.301.261z" fill="#271291"/></g><defs><clipPath id="clip0_218_923"><path fill="#fff" d="M0 0h63v34H0z"/></clipPath></defs></svg>