<svg width="17" height="17" fill="none" xmlns="http://www.w3.org/2000/svg"><g clip-path="url(#clip0_416_5973)" fill="#E20613"><path d="M2.105.026C1.123.235.275 1.085.07 2.064c-.092.437-.092 11.354 0 11.792.16.758.71 1.462 1.41 1.804.643.316.278.3 6.587.3 6.304 0 5.952.012 6.59-.296.688-.338 1.25-1.063 1.406-1.808.096-.45.092-5.996-.004-6.221a.894.894 0 00-.815-.55c-.369 0-.638.158-.81.479-.092.167-.092.196-.113 3.108l-.021 2.942-.113.162a1.267 1.267 0 01-.273.267l-.156.104H2.374l-.156-.104a1.268 1.268 0 01-.272-.266l-.114-.163V2.301l.126-.179c.072-.096.21-.22.31-.275l.185-.096h4.614c3.395 0 4.663-.012 4.81-.05.277-.066.567-.362.634-.641a.856.856 0 00-.462-.992l-.223-.108-4.722.004c-3.878 0-4.776.012-4.999.062z"/><path d="M15.854.897a1.788 1.788 0 01-.19.063c-.012 0-1.724 1.691-3.806 3.758l-3.79 3.763L6.983 7.41c-.591-.588-1.146-1.1-1.225-1.142-.307-.158-.79-.067-1.037.2-.227.238-.29.696-.143.983.046.084.747.813 1.566 1.621 1.545 1.525 1.578 1.554 1.922 1.554.361 0 .206.146 4.63-4.241 3.38-3.354 4.198-4.188 4.252-4.33a.918.918 0 00-.092-.816c-.227-.32-.663-.47-1.003-.342z"/></g><defs><clipPath id="clip0_416_5973"><path fill="#fff" d="M0 0h17v17H0z"/></clipPath></defs></svg>