<svg width="36" height="34" fill="none" xmlns="http://www.w3.org/2000/svg"><g clip-path="url(#clip0_409_2807)" fill="#271291"><path d="M4.466.163C2.386.606.59 2.413.154 4.493c-.195.93-.195 24.128 0 25.057.338 1.612 1.503 3.108 2.987 3.834 1.36.673.587.638 13.947.638 13.35 0 12.604.026 13.955-.629 1.458-.717 2.65-2.258 2.978-3.843.205-.956.196-12.74-.009-13.219a1.892 1.892 0 00-1.724-1.169c-.782 0-1.351.337-1.716 1.018-.195.355-.195.417-.24 6.606l-.044 6.25-.24.346a2.689 2.689 0 01-.578.567l-.329.221H5.034l-.328-.221a2.69 2.69 0 01-.578-.567l-.24-.345V4.998l.266-.381a2.42 2.42 0 01.658-.584l.391-.204h9.77c7.19 0 9.875-.027 10.186-.106.587-.142 1.2-.77 1.342-1.364a1.82 1.82 0 00-.978-2.107l-.47-.23-10 .009C6.838.03 4.936.057 4.465.163z"/><path d="M33.575 2.014c-.196.07-.374.133-.4.133-.027 0-3.654 3.594-8.063 7.986l-8.026 7.995-2.294-2.275c-1.253-1.249-2.426-2.338-2.595-2.426-.65-.337-1.671-.142-2.196.425-.48.505-.613 1.478-.302 2.09.098.177 1.582 1.726 3.316 3.444 3.27 3.24 3.342 3.302 4.07 3.302.765 0 .436.31 9.805-9.013 7.156-7.128 8.889-8.899 9.005-9.2.213-.558.133-1.266-.196-1.735-.48-.682-1.404-1-2.124-.726z"/></g><defs><clipPath id="clip0_409_2807"><path fill="#fff" d="M0 0h36v34H0z"/></clipPath></defs></svg>