<svg width="60" height="60" fill="none" xmlns="http://www.w3.org/2000/svg"><path d="M39.435 6.738a10.413 10.413 0 00-7.735 6.293c-.164.399-.293.785-.293.88 0 .116-.539.152-2.754.152h-2.765l-.282.292-.293.282v6.925h-5.812c-4.23 0-5.953.036-6.305.141-.644.188-1.617 1.16-1.804 1.805-.329 1.101-.094 1.969.738 2.812.363.364.75.633.972.692.211.035.375.105.375.129 0 .023-.632 1.312-1.406 2.859l-1.406 2.813H7.021c-2.532 0-3.797.046-4.137.14-.645.188-1.617 1.16-1.805 1.805-.2.68-.2 8.554 0 9.234.188.645 1.16 1.617 1.805 1.805.34.094 1.676.14 4.453.14h3.973l-.036.797c-.082 1.735.61 3.47 1.91 4.77 1.348 1.348 2.743 1.934 4.63 1.934 1.886 0 3.292-.586 4.628-1.934 1.301-1.3 1.993-3.035 1.91-4.77l-.035-.797h14.18l-.035.797c-.082 1.735.61 3.47 1.91 4.77 1.348 1.348 2.742 1.934 4.629 1.934 1.887 0 3.293-.586 4.629-1.934 1.3-1.3 1.992-3.035 1.91-4.77l-.035-.797h2.566c1.664 0 2.73-.046 3.047-.14.645-.188 1.617-1.16 1.805-1.805.187-.644.187-4.828 0-5.46-.164-.563-.89-1.419-1.383-1.618l-.352-.14V14.636l-.293-.282-.28-.293h-5.473l-.153-.515c-.375-1.29-1.699-3.317-2.812-4.313-2.367-2.12-5.684-3.058-8.742-2.496zm3.984 1.98c1.875.493 3.785 1.887 4.875 3.563 1.418 2.168 1.77 4.852.937 7.242-.468 1.383-.984 2.192-2.062 3.27-1.078 1.078-1.887 1.594-3.27 2.063-1.78.62-3.867.574-5.718-.13-1.746-.656-3.563-2.296-4.418-4.007-.715-1.442-.89-2.227-.88-3.961.012-1.254.06-1.606.317-2.402.445-1.348 1.055-2.333 2.133-3.399 1.313-1.312 2.754-2.098 4.441-2.402.82-.14 2.79-.059 3.645.164zm-12.48 8.087c0 2.754 1.09 5.39 3.046 7.336a10.22 10.22 0 0014.532 0 10.33 10.33 0 003.046-7.336v-.867h3.75v16.875H27.19V15.936h3.75v.868zm-5.625 7.57v.938H13.7l-.281-.293a.913.913 0 01-.293-.645c0-.223.105-.469.293-.645l.281-.293h11.613v.938zM19.689 30v2.813h-6.915L14.181 30l1.406-2.813h4.102V30zm5.625 5.625v8.438l-.786-.012h-.797l-.527-.832c-.797-1.242-1.91-2.075-3.515-2.625-.891-.305-2.848-.305-3.75 0-1.594.539-3.012 1.64-3.704 2.87l-.34.599H3.389l-.282-.294c-.28-.269-.293-.34-.293-1.874v-1.583h1.618c2.027 0 2.507-.14 3.222-.937.668-.75.785-1.184.785-3.094v-1.593H20.99l.281-.294.294-.28v-6.926h3.75v8.437zm-18.75.645c0 1.535-.012 1.605-.293 1.874-.27.282-.34.294-1.875.294H2.813v-1.583c0-1.535.012-1.605.293-1.874.27-.282.34-.294 1.875-.294h1.582v1.583zm48.75-.645v.938H27.188v-1.876h28.125v.938zm1.581 3.105c.293.282.293.305.293 2.52s0 2.238-.293 2.52l-.28.292-2.848-.011h-2.848l-.527-.832c-.797-1.242-1.91-2.075-3.516-2.625-.89-.305-2.848-.305-3.75 0-1.594.539-3.012 1.64-3.703 2.87l-.34.599H27.188v-5.626h29.427l.28.294zm-37.16 3.903c1.067.492 1.746 1.172 2.274 2.226.41.844.433.95.433 2.016s-.023 1.172-.433 2.016c-.528 1.066-1.207 1.722-2.297 2.238-.715.34-.89.375-1.898.375s-1.184-.035-1.899-.375c-1.09-.516-1.77-1.172-2.297-2.238-.41-.844-.433-.95-.433-2.004 0-1.02.035-1.196.375-1.91.468-.996 1.136-1.723 2.015-2.18.914-.492 1.43-.61 2.496-.563.715.035 1.078.13 1.664.399zm27.188 0c1.066.492 1.746 1.172 2.273 2.226.41.844.434.95.434 2.016s-.024 1.172-.434 2.016c-.527 1.066-1.207 1.722-2.297 2.238-.714.34-.89.375-1.898.375s-1.184-.035-1.898-.375c-1.09-.516-1.77-1.172-2.297-2.238-.41-.844-.434-.95-.434-2.004 0-1.02.035-1.196.375-1.91.469-.996 1.137-1.723 2.016-2.18.914-.492 1.43-.61 2.496-.563.715.035 1.078.13 1.664.399z" fill="#271291"/><path d="M41.993 13.852l-2.602 2.601-.762-.726c-1.101-1.067-1.207-1.043-2.73.48-1.7 1.7-1.758 1.465.937 4.148 1.946 1.957 2.18 2.145 2.543 2.145.375 0 .692-.293 4.418-4.02 3.715-3.714 4.02-4.043 4.02-4.418 0-.351-.14-.539-1.207-1.605-1.723-1.723-1.395-1.816-4.617 1.395zm3.304-.024c.223.246.188.27-2.847 3.317l-3.07 3.07-1.196-1.195-1.207-1.207.258-.258.258-.258.761.726c1.196 1.149 1.032 1.22 4.114-1.851 1.418-1.418 2.613-2.578 2.648-2.578.035 0 .164.105.281.234zM15 37.5v.938h5.625v-1.876H15v.938z" fill="#271291"/></svg>