<svg width="14" height="14" fill="none" xmlns="http://www.w3.org/2000/svg"><g clip-path="url(#clip0_131_801)"><path fill-rule="evenodd" clip-rule="evenodd" d="M-.016 12.35c.067-.062.134-.123.198-.186L9.83 2.566l.222-.222h-7.63l.044-2.31.032-.033c.088.013.176.022.265.026h11.006c.074-.003.149-.012.222-.026v11.502h-2.23V3.996c-.104.084-.144.108-.179.142C7.2 8.497 6.101 9.592 1.717 13.954a.857.857 0 00-.06.068c-.558-.56-1.118-1.114-1.673-1.672z" fill="#271291"/></g><defs><clipPath id="clip0_131_801"><path fill="#fff" transform="matrix(1 0 0 -1 0 14)" d="M0 0h14v14H0z"/></clipPath></defs></svg>