<svg width="60" height="60" fill="none" xmlns="http://www.w3.org/2000/svg"><g clip-path="url(#clip0_185_376)" fill="#271291"><path d="M3.422 1.043C2.297 1.43 1.312 2.449.996 3.574.844 4.102.82 4.898.844 8.695l.035 4.489.328.656c.375.773 1.16 1.547 1.934 1.898.527.246.714.258 5.496.293l4.945.035-.246.668c-.223.586-.258.985-.305 3.422l-.047 2.754-.562.504a4.18 4.18 0 00-.902 1.172c-.434.89-.47 2.355-.07 3.21a3.987 3.987 0 003.257 2.298l.762.058.386.703c.434.832 1.372 1.887 2.204 2.497l.585.421-.035.95-.035.949-3.222.55c-1.77.294-3.457.633-3.75.75-.82.329-2.051 1.184-2.579 1.794-.656.773-1.265 1.992-1.464 2.918-.258 1.183-.258 12.117 0 13.078.55 2.133 2.109 3.691 4.242 4.242.996.258 20.402.258 21.398 0 2.133-.55 3.692-2.11 4.242-4.242.246-.95.258-11.895.012-13.055-.434-2.039-1.945-3.832-3.937-4.676-.41-.175-1.805-.468-3.868-.82l-3.222-.54-.035-.948-.035-.95.585-.433c.82-.586 1.793-1.688 2.227-2.508l.363-.68.762-.058a3.852 3.852 0 002.52-1.219c.761-.832.996-1.441.996-2.625-.012-.855-.059-1.09-.352-1.688-.188-.375-.574-.89-.879-1.148l-.527-.469-.059-2.59c-.058-2.554-.07-2.613-.387-3.257-.386-.797-1.183-1.559-1.957-1.887-.48-.2-.597-.316-.796-.797-.329-.773-1.09-1.57-1.887-1.957l-.656-.328-3.247-.035-3.246-.035-.035-4.184-.035-4.184-.328-.656c-.375-.773-1.16-1.547-1.934-1.898-.539-.258-.668-.258-6.996-.282-6-.035-6.492-.011-7.066.188zm13.336 2.121c.89.457.867.293.949 6.738.035 3.153.105 5.871.164 6.024.082.246-.023.199-.797-.352-.504-.351-1.23-.855-1.617-1.136l-.715-.493H9.527c-4.98 0-5.215-.011-5.66-.234a1.57 1.57 0 01-.703-.703c-.223-.434-.234-.68-.234-4.594.011-4.664.011-4.676.89-5.203l.457-.281h6.012c5.79 0 6.024.011 6.469.234zm9.375 11.25c.527.27.937.938.937 1.524 0 .503.551 1.054 1.055 1.054.586 0 1.254.41 1.523.938.2.398.235.691.235 2.168v1.699l-2.11-1.582c-2.214-1.652-2.484-1.781-3.023-1.395-.14.094-.387.457-.563.809-.164.351-.503.82-.773 1.043-.832.715-1.172.773-4.664.773-2.625 0-3.152.024-3.375.188l-.258.176v-1.77c0-1.652.14-2.742.352-2.871.058-.035.949.55 1.992 1.289 2.121 1.512 2.355 1.582 2.941 1.008.188-.188.34-.457.34-.598 0-.129-.21-1.078-.469-2.11-.257-1.03-.468-2.027-.468-2.226v-.351h2.93c2.718 0 2.976.023 3.398.234zm.855 7.852l1.02.75v2.308c0 1.266-.059 2.59-.117 2.93-.41 2.191-2.309 4.008-4.57 4.36-2.31.35-4.712-.891-5.72-2.966-.515-1.043-.609-1.699-.609-4.054v-2.04h2.496c3.41 0 4.266-.245 5.59-1.581.375-.375.68-.598.762-.551.082.047.598.422 1.148.844zM14.883 26.25c0 1.219-.035 1.758-.13 1.758-.316 0-1.03-.54-1.265-.938-.316-.562-.316-1.078.012-1.652.223-.387.96-.926 1.3-.926.048 0 .083.785.083 1.758zm16.078-1.453c.387.2.797.95.797 1.465 0 .527-.422 1.207-.938 1.5-.246.129-.504.246-.574.246-.094 0-.129-.551-.129-1.77V24.48l.27.082c.14.036.398.153.574.235zm-8.05 9.973c.515-.036 1.03-.094 1.148-.141.175-.07.199 0 .199.656v.75l-.88.574-.878.563-.867-.563-.88-.574v-.715l-.01-.715.62.106c.328.07 1.032.094 1.547.059zm-2.684 3.398l.644.422-.504.515c-.27.282-.539.504-.586.504-.047 0-.398-.386-.797-.855-.68-.809-.703-.844-.445-.926.633-.176 1.031-.094 1.688.34zm6.234-.34c.258.082.234.117-.445.926-.399.469-.75.855-.797.855-.035 0-.293-.222-.575-.492l-.503-.492.68-.445c.656-.446 1.03-.516 1.64-.352zm-9.059 2.32c.832 1.008 1.617 1.899 1.746 1.993.551.375.856.234 2.133-1.032l1.219-1.195 1.219 1.195c1.277 1.266 1.582 1.407 2.133 1.032.128-.094.914-.985 1.746-1.993.832-1.007 1.593-1.828 1.687-1.828.727 0 3.106.528 3.715.82.867.422 1.71 1.29 2.133 2.204l.316.668.035 5.894c.035 6.551.024 6.692-.715 7.664-.386.516-1.382 1.266-1.675 1.266-.14 0-.164-.773-.164-4.7 0-3.984-.035-4.804-.188-5.413l-.199-.727.61-1.195.597-1.207-.938-.469-.937-.469-.422.844c-.234.469-.445.867-.457.89-.012.024-.351-.07-.75-.21-.68-.223-.96-.235-7.746-.235-6.785 0-7.066.012-7.746.235-.399.14-.738.234-.75.21-.012-.023-.223-.421-.457-.89l-.422-.844-.938.469-.937.469.598 1.207.609 1.195-.2.727c-.152.609-.187 1.43-.187 5.414 0 3.925-.023 4.699-.164 4.699-.293 0-1.289-.75-1.676-1.266-.738-.972-.75-1.113-.714-7.664l.035-5.894.316-.668c.422-.914 1.266-1.782 2.133-2.203.645-.317 2.672-.774 3.586-.809.246-.012.562.305 1.816 1.816zm12.48 6.141c.305.152.552.398.704.703.223.434.234.68.234 5.274v4.804H14.18v-4.804c0-4.594.011-4.84.234-5.274.14-.281.41-.55.68-.691.422-.223.691-.235 7.383-.246 6.738 0 6.96.011 7.406.234z"/><path d="M5.625 8.438v1.054H7.5V7.383H5.625v1.054zM9.375 8.438v1.054h1.875V7.383H9.375v1.054zM13.125 8.438v1.054H15V7.383h-1.875v1.054zM20.625 51.563v1.054h3.75v-2.109h-3.75v1.054zM42.41 1.16c-.316.328-.34.399-.34 1.278v.937l-.48.188-.48.199-.68-.657c-.586-.55-.75-.644-1.137-.644-.422 0-.563.105-2.707 2.262-2.133 2.132-2.25 2.273-2.25 2.695 0 .387.094.55.645 1.137l.656.68-.2.48-.187.48h-.938c-.878 0-.949.024-1.277.34l-.34.34v6.375l.34.34c.328.316.399.34 1.278.34h.937l.188.492.199.48-.657.668c-.574.586-.667.739-.667 1.114 0 .421.128.574 2.261 2.707 2.157 2.168 2.297 2.273 2.719 2.273.387 0 .55-.094 1.137-.645l.68-.656.48.2.48.187v6.176l-.504.351c-.89.61-1.91 1.805-2.425 2.848-1.09 2.227-1.09 4.523.011 6.773.692 1.407 2.016 2.73 3.399 3.399 2.285 1.09 4.535 1.09 6.785-.012 2.027-.996 3.633-3.094 4.043-5.297.223-1.172.223-1.851 0-2.988-.352-1.77-1.629-3.738-3.059-4.723l-.515-.351V24.75l.492-.188.48-.199.657.645c.586.574.726.656 1.125.656.445 0 .55-.082 2.718-2.25 2.157-2.145 2.262-2.285 2.262-2.707 0-.387-.094-.55-.668-1.148l-.656-.692.21-.469.212-.468h.925c.88 0 .95-.024 1.278-.34l.34-.34v-6.375l-.34-.34c-.328-.316-.399-.34-1.278-.34h-.937l-.188-.492-.199-.48.657-.668c.574-.586.667-.739.667-1.114 0-.421-.128-.574-2.261-2.707-2.157-2.168-2.297-2.273-2.719-2.273-.387 0-.55.094-1.137.644l-.68.657-.48-.2-.48-.187v-.938c0-.878-.024-.949-.34-1.277l-.34-.34H42.75l-.34.34zm5.285 2.473c0 1.078.223 1.383 1.29 1.699.163.047.62.246 1.019.422 1.008.48 1.219.445 1.957-.246l.61-.574 1.253 1.253 1.242 1.254-.574.61c-.633.644-.761 1.136-.422 1.617.082.129.293.598.47 1.055.585 1.5.667 1.582 1.827 1.582h.703V15.82h-.703c-1.16 0-1.242.082-1.828 1.582-.176.446-.387.926-.469 1.055-.328.48-.21.961.422 1.629l.574.61-1.254 1.253-1.253 1.242-.61-.574c-.656-.633-1.09-.738-1.676-.41a2.176 2.176 0 01-.375.176c-.058 0-.093-.399-.093-.88v-.866l.515-.352c1.395-.96 2.696-2.941 3.059-4.652.644-3.035-.668-6.223-3.258-7.91-.797-.528-1.336-.692-1.746-.551-.621.223-.68.527-.68 3.316v2.52H44.18v-2.52c0-2.789-.059-3.093-.68-3.316-1.043-.363-3.422 1.57-4.371 3.539-1.078 2.238-1.066 4.523.012 6.726.515 1.043 1.535 2.239 2.425 2.848l.504.352v.867c0 .48-.023.879-.047.879-.023 0-.234-.082-.457-.176-.714-.293-.984-.234-1.64.41l-.61.574-1.254-1.242-1.253-1.254.574-.61c.691-.737.726-.948.246-1.956-.176-.399-.375-.856-.422-1.02-.316-1.066-.621-1.289-1.7-1.289h-.702V12.305h.703c1.078 0 1.383-.223 1.699-1.29.047-.163.246-.62.422-1.019.48-1.008.445-1.23-.246-1.945l-.574-.61 1.242-1.253 1.254-1.254.61.574c.737.691.948.726 1.956.246.398-.176.856-.375 1.02-.422 1.066-.316 1.289-.621 1.289-1.7V2.93H47.695v.703zm-5.238 11.203l.328.281h6.34l.34-.34.34-.34v-2.156l.011-2.144.352.41c.48.539.89 1.371 1.102 2.191.609 2.332-.516 4.91-2.66 6.117-.352.2-.704.504-.774.668-.2.422-.2 12.094 0 12.516.07.164.422.469.773.668 2.157 1.219 3.27 3.785 2.66 6.14-.773 2.93-3.773 4.735-6.656 3.985-1.476-.387-2.824-1.418-3.504-2.707a5.501 5.501 0 012.157-7.418c.351-.2.703-.504.773-.668.2-.422.2-12.094 0-12.516-.07-.164-.422-.468-.785-.668-2.953-1.675-3.715-5.566-1.606-8.25l.364-.457.058 2.204.059 2.203.328.28z"/><path d="M44.667 33.844c-1.653.597-2.707 2.226-2.578 3.949a3.902 3.902 0 002.191 3.188c.563.28.797.328 1.652.328.856 0 1.09-.047 1.653-.328.773-.376 1.547-1.16 1.898-1.934.399-.856.364-2.32-.07-3.2-.375-.785-1.172-1.546-1.934-1.898-.773-.34-2.015-.386-2.812-.105zm2.086 2.133c.527.27.937.937.937 1.523 0 .89-.867 1.758-1.758 1.758-.585 0-1.253-.41-1.523-.938-.293-.586-.293-1.054 0-1.64.434-.856 1.453-1.16 2.344-.703z"/></g><defs><clipPath id="clip0_185_376"><path fill="#fff" d="M0 0h60v60H0z"/></clipPath></defs></svg>