<svg width="60" height="60" fill="none" xmlns="http://www.w3.org/2000/svg"><g clip-path="url(#clip0_185_333)" fill="#271291"><path d="M5.379 4.98a1.29 1.29 0 00-.445.493c-.094.246-.13 4.382-.106 16.008l.035 15.69.328.282c.329.281.352.281 2.907.281h2.566V39.727h-2.59c-1.441 0-2.672.046-2.789.117-.117.058-.305.34-.422.61C4.301 41.87 0 54.058 0 54.257c0 .117.129.375.281.55l.281.329h58.876l.28-.328c.153-.176.282-.434.282-.551 0-.2-4.3-12.387-4.863-13.805-.117-.27-.305-.55-.422-.61-.117-.07-1.348-.116-2.79-.116h-2.59V37.734h2.567c2.555 0 2.578 0 2.907-.28l.328-.282.035-15.691c.023-11.649-.012-15.762-.106-16.008-.293-.715 1.465-.668-25.09-.668-20.753.011-24.34.035-24.597.175zm47.824 16.348V35.86H6.797V6.797h46.406v14.531zm-5.766 17.367l-.035.973H12.598l-.036-.973-.035-.96h34.946l-.035.96zm6.75 4.77c.364 1.031.657 1.898.657 1.933 0 .036-11.18.07-24.856.07-19.84 0-24.843-.034-24.808-.152.035-.07.34-.949.68-1.933l.632-1.781H53.52l.667 1.863zm2.426 6.844l1.008 2.836-13.805.035c-7.605.011-20.027.011-27.632 0l-13.805-.035 1.008-2.836 1.008-2.848h51.21l1.008 2.848z"/><path d="M23.644 10.828c-.363.27-.445.774-.445 2.777 0 2.637.058 2.754 1.406 2.825l.527.035.036.96.035.973H20.01l-.34.34c-.28.293-.34.434-.34.938v.597H17.48l-.047-.668c-.047-.539-.117-.714-.375-.937-.305-.258-.375-.27-2.566-.27-2.356.012-2.485.036-2.754.551-.176.328-.2 11.942-.024 12.399.2.515.715.644 2.72.644 2.19 0 2.624-.105 2.859-.644.093-.223.164-.621.164-.88V30h1.875v.527c0 .703.258 1.172.715 1.336.527.188 19.37.188 19.898 0 .457-.164.715-.633.715-1.336V30h1.875v.469c0 .258.07.656.164.879.234.539.668.644 2.86.644 2.003 0 2.519-.129 2.718-.644.176-.457.152-12.07-.023-12.399-.27-.515-.399-.539-2.754-.55-2.192 0-2.262.011-2.567.269-.258.223-.328.398-.375.938l-.047.667H40.66v-.597c0-.504-.059-.645-.34-.938l-.34-.34H34.79l.035-.972.035-.961.527-.035c1.348-.07 1.407-.188 1.407-2.825 0-2.003-.082-2.507-.446-2.777-.293-.223-12.41-.223-12.703 0zM34.8 13.535v.996h-9.609V12.54H34.8v.996zm-1.898 3.89l.035.973h-5.871v-.914c0-.504.035-.96.082-1.007.047-.036 1.348-.059 2.895-.047l2.824.035.035.96zm-17.438 7.712V30H13.59v-9.727h1.876v4.864zm23.204 0V30H21.324v-9.727h17.344v4.864zm7.734 0V30h-1.875v-9.727h1.875v4.864zm-27.07 0v2.87h-1.875v-5.741h1.875v2.87zm23.203 0v2.87H40.66v-5.741h1.875v2.87zM23.203 50.332v.996h13.594v-1.992H23.203v.996z"/></g><defs><clipPath id="clip0_185_333"><path fill="#fff" d="M0 0h60v60H0z"/></clipPath></defs></svg>