<svg width="60" height="60" fill="none" xmlns="http://www.w3.org/2000/svg"><path d="M8.438 6.563v5.625h-7.5v1.875h24.375v9.375H.936v1.875h7.5v2.085l-.351.141c-.797.328-1.524 1.512-1.524 2.461 0 .95.727 2.133 1.524 2.46l.351.142v10.734l-.351.14c-.797.329-1.524 1.512-1.524 2.462 0 .949.727 2.132 1.524 2.46l.351.141v10.523h1.876V48.75h9.375V59.063h1.875V48.538l.351-.14c.797-.329 1.523-1.512 1.523-2.462 0-.949-.726-2.132-1.523-2.46l-.352-.141V32.602l.352-.141c.797-.328 1.523-1.512 1.523-2.461 0-.95-.726-2.133-1.523-2.46l-.352-.142v-2.086h1.875c1.618 0 1.875.024 1.875.176 0 .106.13.317.293.469.282.293.305.293 2.52.293 3.012 0 2.813-.2 2.813 2.813 0 2.214 0 2.238.293 2.519.152.164.363.293.468.293.153 0 .176.398.176 3.27v3.27l-.293.07c-.645.163-.68.374-.61 3.667.036 2.192.106 3.293.247 3.996 1.136 5.567 5.039 10.102 10.324 11.977 2.039.715 2.86.844 6.234.902 3.375.07 3.575.035 3.739-.609l.07-.293h7.477V56.25h-7.5v-9.375h7.5V45h-3.75c-3.305 0-3.75-.023-3.75-.176 0-.105-.13-.316-.294-.468-.28-.294-.304-.294-2.519-.294-2.215 0-2.238 0-2.52-.292-.292-.282-.292-.305-.292-2.52s0-2.238-.294-2.52c-.152-.164-.363-.292-.468-.292-.153 0-.176-.399-.176-3.27v-3.27l.293-.07c.645-.164.68-.363.61-3.738-.06-3.375-.188-4.195-.903-6.235-1.629-4.582-5.379-8.273-9.96-9.785-1.864-.61-2.708-.726-5.942-.785-3.375-.07-3.575-.035-3.739.61l-.07.293h-3.726V.936h-1.876v11.25h-9.375V.939H8.438v5.625zm24.609 6.89a14.313 14.313 0 019.539 7.488c1.031 2.063 1.36 3.54 1.441 6.622l.07 2.437H32.814v-1.594c0-1.992-.106-2.39-.88-3.152-.761-.774-1.16-.879-3.152-.879h-1.593V13.102l2.437.058c1.828.047 2.672.117 3.422.293zM19.687 26.25v.938h-9.375v-1.876h9.376v.938zm1.582 3.105a.913.913 0 01.294.645.913.913 0 01-.293.645l-.282.293H9.012l-.282-.293A.913.913 0 018.437 30c0-.223.106-.469.293-.645l.282-.293h11.976l.282.293zm21.856 5.801v3.282H33.75V31.874h9.375v3.281zM19.687 37.97v5.156h-9.375V32.812h9.376v5.157zm24.375 3.937c0 1.992.106 2.39.88 3.153.761.773 1.16.879 3.152.879h1.593v11.285l-2.425-.07c-1.547-.047-2.73-.141-3.235-.247-4.945-1.125-8.906-4.64-10.453-9.258-.55-1.64-.656-2.367-.726-4.91l-.059-2.425h11.273v1.593zM21.27 45.293a.913.913 0 01.293.645.913.913 0 01-.293.644l-.282.293H9.012l-.282-.293a.913.913 0 01-.293-.645c0-.222.106-.468.293-.644L9.012 45h11.976l.282.293zM38.473 4.36c.058 3.785.164 4.523.902 6.597a15.903 15.903 0 009.668 9.668c2.11.738 2.824.844 6.598.902l3.422.059V19.71l-3.364-.059c-2.496-.047-3.586-.105-4.172-.246-4.98-1.16-8.906-4.64-10.453-9.258-.61-1.804-.668-2.285-.726-5.847L40.289.937h-1.875l.059 3.422zM51.563 3.469c0 3.011.058 3.27.878 4.09.82.82 1.078.878 4.09.878h2.532V6.563h-2.52c-3.375 0-3.105.27-3.105-3.105V.937h-1.876V3.47z" fill="#271291"/></svg>