<svg width="70" height="70" fill="none" xmlns="http://www.w3.org/2000/svg"><g clip-path="url(#clip0_218_735)" fill="#271291"><path d="M32.044.328c-.342.287-.383.438-.451 1.381l-.082 1.053-.82.314c-.452.164-.985.383-1.19.479-.355.164-.41.136-1.135-.534-.628-.56-.86-.697-1.257-.697-.452 0-.657.164-2.16 1.64l-1.655 1.641h-5.496l-.164-.41c-.246-.601-1.258-1.435-1.982-1.64-2.215-.616-4.307.93-4.307 3.213 0 2.324 2.133 3.869 4.402 3.185.657-.191 1.654-1.039 1.887-1.613l.164-.41h5.524l.396.41.396.41-.369.78c-.191.437-.45 1.025-.56 1.298l-.205.52h-1.012c-1.313 0-1.6.246-1.6 1.408v.78h-9.255l-.41-.67c-1.04-1.669-3.446-2.038-4.936-.753-1.9 1.614-1.518 4.567.71 5.606 1.56.724 3.337.205 4.253-1.258l.383-.602H20.367v.752c0 .63.055.82.342 1.094.287.3.451.342 1.34.342h.998l.26.71c.137.397.369.958.506 1.245l.26.533-.684.725c-.793.834-.944 1.244-.656 1.79.123.22 1.039 1.218 2.05 2.202 2.229 2.215 2.284 2.229 3.514 1.053l.793-.752.67.328c.355.191.916.41 1.217.506l.574.177.055 1.067c.04.902.095 1.121.355 1.38.3.302.383.315 3.035.315 2.639 0 2.735-.014 3.035-.3.247-.247.315-.52.37-1.354l.082-1.053 1.23-.506 1.23-.506.78.739c1.19 1.12 1.285 1.093 3.39-.985l1.723-1.709h5.195l.465.711c.301.438.739.875 1.149 1.135.588.355.806.41 1.64.41.725-.014 1.108-.082 1.532-.3.71-.383 1.517-1.3 1.695-1.942.643-2.31-.889-4.43-3.186-4.43-1.285 0-2.529.766-2.994 1.846l-.177.383H46.809L46.36 21l-.452-.465.342-.656c.192-.37.41-.93.506-1.258l.178-.574h1.011c.89 0 1.053-.041 1.34-.342.288-.273.342-.465.342-1.094v-.752h9.256l.383.602c1.531 2.434 5.113 1.969 6.03-.78.423-1.27.013-2.652-1.067-3.568-1.49-1.285-3.897-.916-4.936.752l-.41.67h-9.256v-.793c0-1.148-.287-1.394-1.627-1.394h-.984l-.205-.52c-.11-.273-.37-.861-.56-1.299l-.37-.779.738-.752c.616-.629.739-.834.739-1.244 0-.451-.164-.643-1.983-2.461-1.818-1.805-2.023-1.969-2.474-1.969-.41 0-.643.123-1.272.697-.724.67-.78.698-1.135.534a18.817 18.817 0 00-1.19-.479l-.82-.314-.081-1.053c-.069-.943-.11-1.094-.452-1.38C37.595.013 37.513 0 34.997 0c-2.515 0-2.597.014-2.953.328zm4.074 2.885c.069 1.121.246 1.299 1.614 1.709.56.164 1.476.533 2.023.834 1.326.71 1.64.697 2.502-.11l.684-.642.875.875.888.875-.601.629c-.889.902-.903 1.135-.178 2.556.342.657.738 1.641.902 2.188.37 1.217.602 1.408 1.75 1.408h.862v2.324h-.93c-1.162 0-1.408.22-1.736 1.504-.123.479-.506 1.422-.848 2.092-.725 1.408-.71 1.6.164 2.543l.602.643-.875.875-.875.875-.684-.643c-.848-.793-1.19-.82-2.406-.164-.506.26-1.422.629-2.051.834-.629.191-1.258.479-1.38.629-.165.178-.26.547-.302 1.148l-.054.875H33.93l-.055-.875c-.068-1.12-.273-1.34-1.49-1.722-.52-.15-1.504-.56-2.201-.889-.82-.41-1.354-.588-1.531-.533-.165.04-.575.369-.944.71l-.642.63-.89-.875-.874-.875.602-.643c.888-.957.902-1.135.095-2.762-.383-.765-.752-1.709-.848-2.078-.246-1.066-.546-1.299-1.668-1.299h-.93v-2.324h.862c1.176 0 1.367-.164 1.805-1.572.191-.629.601-1.613.902-2.201.67-1.244.643-1.49-.232-2.38l-.602-.628.875-.861.889-.875.697.628c.438.397.848.643 1.04.643.19 0 .806-.246 1.394-.533.588-.3 1.531-.67 2.078-.834 1.367-.41 1.545-.602 1.613-1.71l.055-.888h2.133l.054.889zM15.091 5.797c.588.246.807.807.547 1.422-.328.793-1.299.888-1.846.191-.506-.656-.082-1.6.807-1.79.014-.015.246.067.492.177zm-6.713 7.888c.656.301.82 1.135.342 1.682-.67.738-1.887.328-1.887-.642 0-.916.738-1.409 1.545-1.04zm54.55.274c.124.164.233.492.233.725 0 1.011-1.19 1.449-1.873.683-.341-.383-.382-.697-.164-1.203.301-.67 1.313-.78 1.805-.205zm-6.903 7.78c.41.382.492.847.246 1.34-.233.45-.465.573-1.026.573-.957 0-1.353-1.216-.615-1.886.424-.37.998-.383 1.395-.028z"/><path d="M32.995 7.041c-3.951 1.066-6.535 5.14-5.742 9.023.587 2.872 2.583 5.182 5.263 6.112.752.26 1.203.314 2.488.314 1.286 0 1.737-.054 2.489-.314 2.68-.93 4.675-3.24 5.263-6.111.793-3.924-1.818-7.985-5.797-9.024-.97-.26-3.021-.246-3.964 0zm2.966 2.12c2.885.546 4.786 2.98 4.622 5.892-.192 3.254-3.2 5.674-6.426 5.168-2.598-.41-4.58-2.57-4.73-5.168-.137-2.338 1.107-4.485 3.144-5.414 1.258-.575 2.201-.711 3.39-.479zM.396 29.654l-.328.26-.04 14.027L0 57.982l.328.328.342.342h7.684l.328-.342c.287-.273.341-.464.341-1.093v-.752h8.996l.096.642c.287 2.01 1.791 3.514 3.787 3.801.63.096.63.096.725.725.287 1.982 1.832 3.54 3.787 3.8l.629.083.137.793c.273 1.53 1.107 2.625 2.474 3.267.616.287.971.356 1.791.356 1.245 0 2.12-.356 2.98-1.204l.575-.56.588.56c.847.848 1.722 1.204 2.967 1.204 2.2 0 3.869-1.409 4.265-3.623l.137-.793.629-.082c1.955-.26 3.5-1.819 3.787-3.787.096-.643.096-.643.725-.725 1.968-.26 3.5-1.819 3.787-3.815l.096-.642H60.977v.752c0 .629.054.82.341 1.093l.329.342h7.683l.342-.342.328-.328-.027-14.04-.041-14.028-.329-.26c-.3-.246-.574-.26-4.142-.26h-3.814l-.329.342c-.287.274-.341.465-.341 1.094v.752H47.359c-9.72 0-13.699.041-13.904.15-.164.082-.656.506-1.094.916l-.779.766-.889-.875-.902-.889-10.377-.04-10.39-.028v-.766c0-.615-.055-.806-.342-1.08l-.328-.341H4.539c-3.568 0-3.842.013-4.143.26zM6.81 44.051l.027 12.414H2.324V31.582l2.229.027 2.215.041.04 12.4zm60.867-.028v12.442h-4.512V44.119c0-6.795.041-12.4.096-12.441.04-.055 1.066-.096 2.256-.096h2.16v12.441zm-36.408-7.765c2.816 2.857 3.021 3.281 2.228 4.58-.52.861-1.873 1.162-2.762.602-.246-.15-1.49-1.327-2.775-2.598l-2.324-2.338-.78.78-.793.779.438.45.438.452-5.346 5.373c-5.77 5.77-5.838 5.852-6.002 7.437-.069.602-.014.971.191 1.573l.274.793H9.023V33.906H28.93l2.338 2.352zm29.709 7.765v10.118h-5.032l.274-.793c.205-.602.26-.971.191-1.573-.15-1.517-.369-1.804-4.156-5.605-4.033-4.047-4.43-4.334-6.057-4.334-2.297 0-4.074 1.531-4.347 3.746l-.082.697-.698.082a4.243 4.243 0 00-3.732 3.733l-.082.697-.697.082c-1.956.246-3.473 1.723-3.72 3.65l-.095.78-.697.082c-1.928.232-3.432 1.681-3.719 3.568-.137.889 0 1.86.356 2.57l.26.534-.424.396c-.588.56-.93.711-1.614.711-1.449 0-2.406-1.436-1.886-2.816.082-.205.765-.998 1.503-1.764l1.368-1.38-.793-.78-.78-.78-1.299 1.313c-1.476 1.49-1.804 1.695-2.624 1.695-1.135 0-2.024-.902-2.024-2.05 0-.78.137-.985 1.723-2.598l1.285-1.299-.793-.793-.78-.78-1.298 1.313c-1.477 1.49-1.805 1.696-2.625 1.696-1.49 0-2.516-1.682-1.832-2.98.11-.206 2.515-2.68 5.332-5.483l5.127-5.127 1.408 1.367c1.777 1.723 2.365 2.037 3.87 2.037.915 0 1.216-.055 1.859-.383 1.613-.779 2.529-2.351 2.42-4.129-.083-1.285-.438-1.941-1.792-3.308L33.168 35l.533-.547.533-.547H60.977v10.117zm-14.041.22c.52.259 6.726 6.384 7.013 6.917.274.533.246 1.463-.082 1.996-.547.889-1.818 1.258-2.707.793-.533-.287-6.658-6.494-6.918-7.014-.82-1.64 1.053-3.513 2.694-2.693zm-4.58 4.497c.519.219 6.097 5.633 6.876 6.686.998 1.34.041 3.226-1.627 3.226-.328 0-.752-.082-.957-.191-.205-.11-1.859-1.695-3.664-3.527-3.486-3.514-3.609-3.664-3.418-4.69.164-.861 1.121-1.695 1.97-1.709.163 0 .532.096.82.205zm-4.512 4.526c.615.246 6.754 6.316 7.068 6.972.643 1.367-.314 2.926-1.818 2.926-.328 0-.752-.082-.957-.191-.205-.11-1.86-1.696-3.664-3.528-3.487-3.513-3.61-3.664-3.418-4.69.164-.86 1.12-1.695 1.968-1.708.164 0 .534.096.82.219zm-4.512 4.511c.615.246 6.754 6.317 7.068 6.973.78 1.64-.67 3.309-2.488 2.871-.246-.068-1.545-1.258-3.773-3.473-3.596-3.582-3.787-3.841-3.596-4.867.164-.875 1.121-1.709 1.969-1.722.164 0 .533.095.82.218zm-1.34 7.37l1.422 1.421-.328.37c-.56.587-1.053.779-1.873.71-1.805-.15-2.434-2.2-1.108-3.636.165-.164.329-.301.37-.301.054 0 .724.642 1.517 1.436z"/></g><defs><clipPath id="clip0_218_735"><path fill="#fff" d="M0 0h70v70H0z"/></clipPath></defs></svg>