<svg width="70" height="70" fill="none" xmlns="http://www.w3.org/2000/svg"><g clip-path="url(#clip0_218_693)" fill="#271291"><path d="M17.561.164c-.396.232-.52.492-.697 1.504-.219 1.203-.657 2.064-1.463 2.789-.684.602-1.873 1.148-2.543 1.148-.56 0-1.23.26-1.38.547-.179.328-.179.903 0 1.217.15.3.683.52 1.544.615 2.01.246 3.623 1.942 3.87 4.06.067.602.177.89.437 1.15.738.738 1.709.232 1.873-.971.355-2.653 1.709-3.938 4.593-4.362.793-.123 1.121-.656.903-1.476-.11-.424-.766-.78-1.436-.78-1.066 0-2.639-.957-3.322-2.023-.424-.67-.588-1.162-.738-2.27-.15-1.066-.875-1.585-1.641-1.148zm1.38 5.674l.944.93-.916.916-.93.916-.888-.903-.889-.916.82-.806c.452-.452.82-.862.82-.93 0-.205.07-.15 1.04.793zM37.867.424c0 .26.041.78.082 1.162l.082.697 2.352.082c1.504.055 2.83.178 3.719.356a23.721 23.721 0 0112.947 7.355c4.047 4.47 6.111 9.858 6.111 15.846-.013 6.098-2.037 11.43-6.043 15.873-1.258 1.395-2.639 2.611-4.744 4.129-.766.56-1.736 1.394-2.16 1.846-.861.93-2.283 3.035-2.516 3.732l-.15.451H31.496l-.369-.766c-1.08-2.2-2.42-3.732-4.799-5.51-3.158-2.35-4.812-4.019-6.494-6.507-2.42-3.596-3.746-7.643-3.951-12.031l-.096-1.914-1.135-.041-1.12-.041v.888c0 2.42.546 5.715 1.353 8.149 1.736 5.181 4.867 9.42 9.584 12.933 1.968 1.463 3.513 3.008 4.142 4.143l.383.697h-3.021v2.188H29.91l.218.943c.328 1.463.383 1.38-.875 1.38H28.16V58.653h2.324v1.9c0 2.366.069 2.503 1.395 2.612l.861.068.082.752c.424 3.965 4.444 6.795 8.23 5.81 1.641-.423 3.09-1.407 3.98-2.706.587-.861 1.175-2.365 1.175-3.035 0-.807.082-.889.957-.889.697 0 .834-.04 1.08-.355.26-.328.287-.547.287-2.256v-1.9h2.325v-2.188H48.64l.095-.656c.041-.356.15-.875.22-1.162l.136-.506h3.951v-2.188h-1.504c-.82 0-1.504-.04-1.504-.082 0-.232 1.326-2.037 1.955-2.666.397-.383 1.545-1.326 2.557-2.078 5.797-4.334 9.256-9.817 10.555-16.748.396-2.12.423-6.385.054-8.367-.355-1.955-.847-3.787-1.367-5.155C60.945 9.393 54.998 3.72 47.533 1.313 45.06.52 42.885.15 40.096.04l-2.229-.082v.465zm8.778 53.785c.04.041.027.342-.042.656-.054.315-.136.807-.19 1.08l-.083.52H32.672l-.055-.315c-.04-.164-.11-.547-.15-.847-.055-.301-.123-.684-.164-.862l-.069-.3h7.164c3.952 0 7.205.027 7.246.068zm-.329 5.633l.041 1.135H32.81v-2.325l6.74.028 6.726.04.041 1.122zm-2.351 3.965c-.192 1.435-1.162 2.789-2.488 3.459-.575.287-.862.341-1.97.341-1.107 0-1.394-.054-1.94-.328-1.34-.683-2.297-2.01-2.502-3.472l-.096-.643h9.091l-.095.643z"/><path d="M32.97 5.742c-.315.069-.902.301-1.285.506-.63.342-.944.643-1.723 1.654-.205.274-.287.301-.615.178-.506-.191-1.64-.191-2.338.014-.766.219-1.887.97-2.352 1.572-.752.984-1.052 2.352-.82 3.678l.096.56-.725.41c-.943.547-1.873 1.545-2.365 2.57-.547 1.15-.63 2.776-.219 4.02.164.479.287.875.26.889-.027.027-.328.191-.67.396-.78.452-1.299 1.026-1.723 1.97-.67 1.448-.52 2.993.41 4.36.397.575 1.395 1.422 1.887 1.587.096.027.055.328-.137.888-.505 1.49-.314 3.281.479 4.635.424.724 1.49 1.723 2.229 2.105.546.274.574.315.478.725-.52 2.379.861 4.703 3.213 5.387.71.205 1.955.191 2.488-.028.164-.054.356.11.697.588 2.297 3.186 7.301 2.024 8.04-1.873.218-1.176.177-32.252-.041-33.332-.493-2.351-2.913-3.937-5.264-3.459zM35.103 8.3c.191.137.478.437.628.642.288.37.288.452.329 16.735.027 11.224 0 16.515-.11 16.87-.178.616-.93 1.3-1.572 1.423-.998.178-2.01-.287-2.46-1.162-.165-.342-.151-.452.286-1.3.287-.587.465-1.134.465-1.462v-.533h-2.16l-.082.478c-.055.26-.246.657-.451.889-1.518 1.818-4.389.478-3.951-1.846.15-.806 1.12-1.709 1.859-1.709.26 0 .273-.082.273-1.162 0-1.039-.027-1.162-.246-1.162-.478 0-1.558.383-2.105.752l-.547.37-.766-.397c-2.515-1.272-2.53-4.676-.027-5.961 1.955-1.012 4.32.136 4.785 2.324l.15.724h2.215l-.082-.765c-.04-.41-.26-1.149-.492-1.627-1.367-2.926-4.744-4.115-7.588-2.666-.957.492-1.312.506-1.996.123-.984-.547-1.367-1.887-.875-2.94.438-.93 1.723-1.476 2.365-1.025 1.45 1.026 3.746 1.162 5.483.328 1.572-.765 2.884-2.597 3.09-4.32l.095-.78h-2.228l-.082.547c-.137.862-.848 1.915-1.586 2.366-.506.314-.861.424-1.572.465-.834.054-1.012.027-1.682-.329-2.502-1.312-2.488-4.716.027-5.96l.766-.397.547.37c.492.314 1.722.751 2.187.751.123 0 .164-.328.164-1.162 0-1.08-.013-1.162-.273-1.162-.738 0-1.71-.902-1.86-1.71-.218-1.161.561-2.419 1.655-2.665 1.148-.26 2.406.478 2.693 1.586l.164.601h2.133v-.533c0-.328-.178-.875-.465-1.449-.342-.684-.437-1.012-.355-1.217.136-.369.793-.984 1.23-1.162.506-.219 1.6-.096 2.024.219zM44.32 5.742c-1.805.37-3.227 1.832-3.583 3.678-.191 1.012-.191 32.102 0 33.113.739 3.883 5.729 5.072 8.012 1.9.438-.615.533-.67.848-.574.205.055.806.096 1.326.096 2.789-.014 4.84-2.625 4.265-5.414-.095-.492-.095-.506.616-.916.943-.533 1.873-1.531 2.365-2.557.547-1.134.629-2.898.219-4.087-.164-.452-.274-.82-.26-.835.027-.013.328-.177.67-.382.78-.451 1.299-1.026 1.722-1.97.985-2.132.124-4.702-1.927-5.741-.233-.11-.438-.233-.465-.246-.027-.028.096-.424.26-.903.396-1.216.328-2.87-.178-3.978-.451-.985-1.463-2.065-2.406-2.612-.684-.382-.725-.423-.63-.834a4.527 4.527 0 00-1.872-4.757c-1.08-.739-2.283-.944-3.828-.63-.123.028-.465-.273-.82-.71-1.053-1.285-2.817-1.942-4.335-1.64zm1.736 2.406c.328.123.683.424.916.752l.369.534-.438.82c-.246.451-.478 1.121-.52 1.504l-.081.683h2.173l.165-.601c.287-1.08 1.545-1.846 2.638-1.6.711.164 1.162.533 1.504 1.217.356.711.301 1.64-.11 2.201-.368.492-1.107.97-1.49.97-.314 0-.328.028-.328 1.163 0 .834.041 1.162.178 1.162.451 0 1.682-.437 2.16-.752l.547-.355.643.287c1.627.724 2.379 2.31 1.887 3.978-.274.971-.862 1.655-1.805 2.12-.643.314-.861.355-1.6.3-1.722-.136-2.761-1.134-3.158-3.021-.082-.37-.096-.37-1.176-.37h-1.093v.37c0 1.175.71 2.68 1.695 3.65 1.75 1.736 4.224 2.12 6.494.998.998-.492 1.367-.492 2.078-.027 1.572 1.025 1.066 3.691-.752 3.992-.342.055-.683-.041-1.326-.355-2.215-1.08-4.566-.766-6.344.834-1.025.93-1.832 2.625-1.845 3.828v.383h1.093c1.203 0 1.067.095 1.3-1.012.04-.178.259-.615.505-.985 1.531-2.255 5.045-1.722 5.92.903.547 1.654-.233 3.377-1.873 4.101l-.643.287-.547-.355c-.533-.37-1.627-.752-2.091-.752-.22 0-.246.123-.246 1.162 0 1.08.013 1.162.273 1.162.424 0 1.012.342 1.408.82.889 1.053.52 2.708-.752 3.364-.533.273-1.463.273-1.996 0-.533-.274-1.094-.998-1.203-1.559l-.082-.437h-2.201l.082.697c.054.396.273 1.025.506 1.435.478.862.423 1.135-.328 1.805-.82.725-1.9.752-2.79.082-.902-.697-.847.356-.847-17.54 0-11.184.04-16.38.15-16.653.438-1.176 1.723-1.695 2.98-1.19zM10.619 11.512c-.274.218-.506.82-.506 1.34 0 .697-.56 1.941-1.176 2.597-.725.78-1.572 1.217-2.762 1.422-.506.082-1.011.219-1.134.287-.602.37-.643 1.408-.083 1.777.165.11.725.26 1.245.342 1.203.192 1.914.547 2.707 1.395.67.697 1.203 1.846 1.203 2.584 0 1.039.78 1.79 1.545 1.504.492-.192.656-.479.779-1.367.246-1.791 1.354-3.282 2.816-3.829.41-.164.89-.287 1.053-.287 1.012 0 1.736-.52 1.736-1.244 0-.656-.382-.943-1.53-1.148-2.202-.383-3.76-1.832-4.007-3.733-.136-1.052-.205-1.257-.478-1.53-.315-.315-1.053-.37-1.408-.11zm1.572 5.646l.916.889-.916.93-.902.916-.93-.93-.93-.944.383-.3c.205-.15.615-.547.902-.862.301-.328.547-.587.547-.587.014 0 .438.396.93.888z"/></g><defs><clipPath id="clip0_218_693"><path fill="#fff" d="M0 0h70v70H0z"/></clipPath></defs></svg>