<svg width="70" height="70" fill="none" xmlns="http://www.w3.org/2000/svg"><path d="M12.373 1.436c-.328.314-.342.396-.342 2.187v1.846H1.764l-.328.342-.342.328V63.86l.342.328.328.342h33.701l.957.656c2.543 1.75 5.414 2.885 8.531 3.391 1.86.3 4.936.26 6.809-.082 8.476-1.531 14.902-7.834 16.761-16.447.424-1.996.424-5.961 0-7.97-.629-2.9-1.914-5.866-3.554-8.19-1.053-1.463-3.254-3.637-4.785-4.717-3.364-2.365-7.041-3.623-11.13-3.787l-2.023-.082V6.139l-.341-.328-.329-.342H36.094V3.623c0-1.791-.014-1.873-.342-2.187l-.328-.342H12.7l-.328.342zm21.533 5.126v3.282H14.22V3.282H33.906v3.28zm-21.875 2.94c0 1.791.014 1.873.342 2.187l.328.342h22.723l.328-.342c.328-.314.342-.396.342-2.187V7.656h8.75v19.92l-.78.164c-.437.082-.93.192-1.093.233l-.315.082V14.889l-.341-.329-.329-.341H6.14l-.328.341-.342.329v42.41l.342.328.328.342h23.734l.383.683c.342.616 1.45 2.133 2.365 3.24l.37.452H3.28V7.656h8.75v1.846zM40.47 22.586v6.193l-1.04.465c-1.353.615-3.144 1.736-4.388 2.762l-.998.806H20.781V35h11.197l-.779 1.094-.78 1.093h-9.638v2.188h4.252c3.35 0 4.238.041 4.184.164-.574 1.38-.834 2.064-1.108 3.008l-.328 1.135-3.5.04-3.5.028V45.937h6.741l-.096.424a7.79 7.79 0 00-.082 1.094v.67H20.782V50.312h6.63l.3 1.532c.165.847.48 2.078.712 2.734l.396 1.203H7.656V16.406H40.47v6.18zm10.636 7.15c4.635.752 9.038 3.405 11.868 7.164 1.08 1.422 2.529 4.307 2.98 5.92 1.86 6.535.178 13.33-4.512 18.157-2.078 2.132-4.525 3.718-7.246 4.662-3.842 1.326-8.244 1.34-12.086.027-9.379-3.213-14.56-13.22-11.812-22.846.451-1.613 1.9-4.484 2.98-5.92 2.803-3.718 7.123-6.343 11.772-7.15 1.476-.26 4.484-.26 6.056-.014z" fill="#271291"/><path d="M16.406 6.563v1.093h2.188V5.47h-2.188v1.093zM29.531 6.563v1.093h2.188V5.47H29.53v1.093zM17.91 19.893l-.875.888h-6.521l-.329.342-.341.328v7.41l.341.328.329.342h7.41l.328-.341.342-.329V22.34l.888-.875c.493-.479.89-.944.89-1.026 0-.177-1.259-1.435-1.45-1.435-.069 0-.533.396-1.012.889zm-3.732 3.732c-.356.355-.643.71-.63.78.014.081.356.437.753.806l.752.684.67-.67.683-.67V27.344h-4.375v-4.375H14.82l-.642.656zM20.781 22.969v1.093h17.5V21.875h-17.5v1.094zM20.781 27.344v1.093h13.125V26.25H20.781v1.094zM36.094 27.344v1.093H38.28V26.25H36.094v1.094zM17.91 30.83l-.875.889h-6.521l-.329.341-.341.329v7.41l.341.328.329.342h7.41l.328-.342.342-.328v-6.522l.888-.875c.493-.478.89-.943.89-1.025 0-.178-1.259-1.436-1.45-1.436-.069 0-.533.397-1.012.89zm-3.732 3.733c-.356.355-.643.71-.63.779.014.082.356.437.753.806l.752.684.67-.67.683-.67V38.281h-4.375v-4.375H14.82l-.642.657zM17.91 41.768l-.875.888h-6.521l-.329.342-.341.328v7.41l.341.329.329.341h7.41l.328-.341.342-.329v-6.521l.888-.875c.493-.479.89-.944.89-1.026 0-.177-1.259-1.435-1.45-1.435-.069 0-.533.396-1.012.889zM14.178 45.5c-.356.355-.643.71-.63.78.014.081.356.437.753.806l.752.684.67-.67.683-.67V49.219h-4.375v-4.375H14.82l-.642.656zM37.028 36.873c-1.64 1.64-3.022 3.117-3.063 3.281a1.34 1.34 0 00.014.615c.11.356 4.895 5.25 5.729 5.866.464.355.642.396 1.504.396.97 0 .997.014 1.517.547l.533.547-.588.602-.574.588-1.285-.069c-1.025-.055-1.45-.014-2.201.219-3.336 1.025-5.346 4.484-4.498 7.752.273 1.011.642 1.435 1.258 1.435.41 0 .656-.177 1.941-1.435l1.477-1.436h1.681v1.709l-1.435 1.436c-1.285 1.285-1.436 1.476-1.436 1.927 0 .725.424 1.04 1.723 1.313 4.129.834 7.97-2.598 7.67-6.877-.082-1.053-.069-1.135.26-1.436l.328-.314 4.347 4.32c2.72 2.721 4.47 4.362 4.703 4.416.192.055.493.014.684-.068.41-.219 4.129-3.87 4.635-4.566.218-.288.396-.698.396-.889 0-.274-.916-1.258-4.402-4.758l-4.402-4.416.369-.383c.369-.383.396-.383 1.175-.26.998.165 2.598-.136 3.692-.683 2.639-1.34 4.088-4.498 3.363-7.355-.137-.52-.342-.93-.56-1.135-.643-.56-.916-.438-2.584 1.203l-1.518 1.504H55.786v-1.682l1.435-1.477c1.34-1.367 1.436-1.503 1.436-2.023 0-.41-.082-.602-.342-.82-.766-.602-3.008-.739-4.47-.287-2.968.916-4.8 3.636-4.567 6.78l.082 1.095-.615.601-.615.602-.547-.533-.547-.534V39.99l-3.05-3.035c-2.774-2.789-3.075-3.049-3.513-3.049-.424 0-.724.26-3.445 2.967zm17.418.096l-.848.875v4.02l.397.396.396.396h1.9c2.12 0 2.092 0 3.214-1.066l.642-.63-.137.548c-.246.875-.615 1.463-1.285 2.092-1.148 1.052-2.516 1.422-3.937 1.039-.438-.11-.889-.205-.998-.205-.123 0-.575.341-1.026.765-.697.67-.875.78-1.353.793-.479.014-.63-.068-1.121-.56l-.56-.575.983-1.052.998-1.04-.081-.71c-.247-1.9-.247-2.106-.028-2.858a5.005 5.005 0 01.67-1.353c.67-.875 1.969-1.682 2.816-1.737.11-.013-.191.383-.642.862zm-11.758 1.818l2.16 2.16v.957c0 .67.069 1.067.219 1.3.123.19 1.121 1.243 2.228 2.364l1.997 2.01-.848.848-.861.861-2.229-2.228-2.228-2.215H40.952l-2.188-2.188-2.187-2.187 1.914-1.914c1.053-1.053 1.941-1.914 1.982-1.914.041 0 1.04.97 2.215 2.146zm12.893 13.986l4.101 4.102-1.408 1.395-1.395 1.408-4.128-4.13-4.143-4.142 1.367-1.367c.752-.752 1.395-1.367 1.436-1.367.04 0 1.914 1.846 4.17 4.101zm-10.05-2.529c.384.397.48.602.48 1.066.013.52-.069.657-.739 1.354l-.738.78.11.792c.327 2.256.013 3.514-1.177 4.621-.683.643-1.613 1.149-2.105 1.163-.219 0-.164-.11.287-.588 1.012-1.053 1.012-1.04 1.012-3.213 0-1.887-.014-1.969-.342-2.284-.315-.328-.383-.341-2.393-.341h-2.078l-.889.847c-.82.807-.875.834-.792.452.177-.78.765-1.819 1.298-2.311.971-.875 1.559-1.094 2.871-1.094.643 0 1.45.055 1.791.11l.643.109.998-.97c.56-.52 1.08-.971 1.162-.971.069 0 .342.218.602.478z" fill="#271291"/></svg>