<svg width="70" height="70" fill="none" xmlns="http://www.w3.org/2000/svg"><path d="M10.185 1.436c-.341.328-.341.355-.341 2.939s0 2.611.341 2.94c.274.287.465.341 1.094.341h.752V31.718h-.752c-.629 0-.82.055-1.094.342-.341.329-.341.356-.341 2.94s0 2.611.341 2.94c.274.287.465.341 1.094.341h.752V62.343h-.752c-.629 0-.82.055-1.094.342-.341.329-.341.356-.341 2.94s0 2.611.341 2.94l.329.341h16.16l.328-.342c.342-.328.342-.355.342-2.939s0-2.611-.342-2.94c-.273-.287-.465-.341-1.094-.341h-.752V38.282h.752c.63 0 .82-.055 1.094-.342.342-.329.342-.356.342-2.94s0-2.611-.342-2.94c-.273-.287-.465-.341-1.094-.341h-.752V7.657h.752c.63 0 .82-.055 1.094-.343.342-.328.342-.355.342-2.939s0-2.611-.342-2.94l-.328-.341h-16.16l-.329.342zm14.971 2.939v1.094H12.031V3.28h13.125v1.094zM22.97 8.75v1.094h-8.75V7.656h8.75V8.75zm0 10.938v7.656h-8.75V12.03h8.75v7.656zm0 10.937v1.094h-8.75V29.53h8.75v1.094zM25.156 35v1.094H12.031v-2.188h13.125V35zm-2.187 4.375v1.094h-8.75V38.28h8.75v1.094zm0 10.938v7.656h-8.75V42.656h8.75v7.657zm0 10.937v1.094h-8.75v-2.188h8.75v1.094zm2.187 4.375v1.094H12.031V64.53h13.125v1.094zM53.935 7.998c-.287.273-.341.465-.341 1.094v.752h-3.787c-2.092 0-4.225.068-4.758.136-3.418.493-6.412 1.983-8.819 4.375-2.392 2.407-3.882 5.4-4.374 8.819-.069.52-.137 2.666-.137 4.744v3.8h-.752c-.63 0-.82.055-1.094.342-.342.329-.342.356-.342 2.94s0 2.611.342 2.94c.273.287.465.341 1.094.341h.752V62.343h-.752c-.63 0-.82.055-1.094.342-.342.329-.342.356-.342 2.94s0 2.611.342 2.94l.328.341h16.16l.329-.342c.341-.328.341-.355.341-2.939s0-2.611-.341-2.94c-.274-.287-.465-.341-1.094-.341h-.752V38.282h.752c.629 0 .82-.055 1.094-.342.341-.329.341-.356.341-2.94s0-2.611-.341-2.94c-.274-.287-.465-.341-1.094-.341h-.752v-2.953c0-3.514.068-3.815 1.025-4.772.957-.957 1.258-1.025 4.772-1.025h2.953v.752c0 .629.054.82.341 1.093.329.342.356.342 2.94.342s2.611 0 2.94-.342l.341-.328V8.326l-.341-.328c-.329-.342-.356-.342-2.94-.342s-2.611 0-2.94.342zm4.034 8.408v6.563H55.78V9.844h2.188v6.562zm-8.75-.013v4.347l-1.217.069c-2.188.123-3.815 1.175-4.744 3.062-.424.861-.506 1.162-.574 2.229l-.069 1.244h-8.75l.082-2.16c.137-4.02 1.258-6.713 3.91-9.325 2.092-2.078 4.416-3.226 7.534-3.732.191-.027 1.12-.068 2.091-.082l1.737-.014v4.362zm4.375.013v4.375h-2.188v-8.75h2.188v4.375zM42.656 30.625v1.094h-8.75V29.53h8.75v1.094zM44.844 35v1.094H31.719v-2.188h13.125V35zm-2.188 4.375v1.094h-8.75V38.28h8.75v1.094zm0 10.938v7.656h-8.75V42.656h8.75v7.657zm0 10.937v1.094h-8.75v-2.188h8.75v1.094zm2.188 4.375v1.094H31.719V64.53h13.125v1.094z" fill="#271291"/></svg>