<svg width="70" height="70" fill="none" xmlns="http://www.w3.org/2000/svg"><path d="M1.438 11.28c-.342.327-.342.355-.342 2.939s0 2.611.342 2.94c.273.286.465.341 1.094.341h.752V45.937h-.752c-.63 0-.82.055-1.094.342-.342.328-.342.356-.342 2.94 0 3.5-.205 3.281 3.104 3.281h2.433l.164.71c.288 1.177 1.094 2.626 1.983 3.528 2.516 2.543 6.33 3.008 9.46 1.176 1.464-.861 2.886-2.762 3.323-4.484l.233-.93h24.213l.163.725c.288 1.162 1.094 2.61 1.983 3.513 2.515 2.543 6.33 3.008 9.46 1.176 1.464-.861 2.886-2.762 3.323-4.484l.232-.93h7.069l.328-.342.342-.328V32.512l-5.004-8.354c-2.762-4.607-5.127-8.476-5.278-8.613-.26-.219-.793-.232-7.027-.232h-6.754v-1.846c0-1.791-.013-1.873-.342-2.188l-.328-.341H1.766l-.328.341zm41.22 2.939v1.094H3.285v-2.188h39.375v1.094zm-35 17.5v14.218H5.472V17.5H7.66v14.219zm4.376-.889c0 11.457-.028 13.33-.192 13.33-.109 0-.601.205-1.093.465l-.903.478V17.5h2.188v13.33zm4.375-.055v13.276l-.315-.082c-.177-.041-.67-.11-1.094-.164l-.779-.096V17.5h2.188v13.275zm4.375.944v14.218h-.588c-.451 0-.697-.095-1.094-.423l-.506-.41V17.5h2.188v14.219zm4.375 0v14.218H22.97V17.5h2.188v14.219zm4.375 0v14.218h-2.188V17.5h2.188v14.219zm4.375 0v14.218H31.72V17.5h2.188v14.219zm4.375 0v14.218h-2.188V17.5h2.188v14.219zm4.375 0v14.218H40.47V17.5h2.188v14.219zm15.34-13.166l.628 1.066-5.537.069-5.537.068-.26.328c-.246.3-.26.615-.26 6.74v6.412l.343.328.328.342H66.72v7.656h-1.846c-1.79 0-1.873.014-2.187.342-.328.315-.342.397-.342 2.188v1.846H58.97l-.67-.534c-1.435-1.135-2.761-1.586-4.703-1.586-1.941 0-3.267.452-4.703 1.586l-.67.533h-3.377V17.5h12.51l.643 1.053zm4.935 8.244l2.953 4.922H49.221v-9.844h10.76l2.953 4.922zm3.787 18.047v1.093H64.534V43.75H66.72v1.094zm-50.258 1.613c1.245.574 2.037 1.367 2.653 2.598.478.984.506 1.107.506 2.351s-.028 1.367-.506 2.352c-.616 1.244-1.408 2.01-2.68 2.611-.834.397-1.039.438-2.215.438-1.175 0-1.38-.041-2.215-.438-1.271-.601-2.064-1.367-2.68-2.611-.478-.985-.505-1.108-.505-2.338 0-1.19.04-1.395.437-2.229.547-1.162 1.327-2.01 2.352-2.543 1.066-.574 1.668-.71 2.912-.656.834.041 1.258.15 1.941.465zm39.375 0c1.245.574 2.038 1.367 2.653 2.598.478.984.506 1.107.506 2.351s-.028 1.367-.506 2.352c-.615 1.244-1.408 2.01-2.68 2.611-.834.397-1.039.438-2.215.438-1.175 0-1.38-.041-2.215-.438-1.271-.601-2.064-1.367-2.68-2.611-.478-.985-.505-1.108-.505-2.338 0-1.19.04-1.395.437-2.229.547-1.162 1.326-2.01 2.352-2.543 1.066-.574 1.668-.71 2.912-.656.834.041 1.258.15 1.941.465zm-48.63 1.832c-.041.096-.178.588-.315 1.094l-.246.93H3.284v-2.188H5.28c1.531 0 1.982.041 1.928.164zm39.416-.123c0 .027-.123.41-.274.848-.15.437-.273.902-.273 1.052 0 .233-.438.246-12.168.246-11.73 0-12.168-.013-12.168-.246 0-.15-.123-.615-.274-1.052-.15-.438-.273-.82-.273-.848 0-.014 5.728-.041 12.715-.041 7 0 12.715.027 12.715.041zm20.097 1.053v1.093h-2.803c-2.638 0-2.802-.013-2.802-.246 0-.15-.123-.615-.274-1.052-.15-.438-.273-.82-.273-.848 0-.014 1.38-.041 3.076-.041h3.076v1.094z" fill="#271291"/><path d="M47.031 37.188v1.093h4.375V36.094h-4.375v1.093zM13.127 48.303c-.67.219-1.818 1.394-2.023 2.092-.383 1.285-.11 2.31.861 3.267 1.381 1.395 3.131 1.395 4.512 0 1.34-1.326 1.38-3.035.11-4.443-.89-.985-2.16-1.326-3.46-.916zm1.846 2.351c.219.205.342.492.342.752s-.123.547-.342.752a1.066 1.066 0 01-.752.342c-.26 0-.547-.123-.752-.342a1.066 1.066 0 01-.342-.752c0-.26.123-.547.342-.752.205-.219.492-.342.752-.342s.547.123.752.342zM52.502 48.303c-.67.219-1.818 1.394-2.023 2.092-.383 1.285-.11 2.31.861 3.267 1.381 1.395 3.131 1.395 4.512 0 1.34-1.326 1.38-3.035.11-4.443-.89-.985-2.16-1.326-3.46-.916zm1.846 2.351c.684.67.205 1.846-.752 1.846-.56 0-1.094-.533-1.094-1.094 0-.56.534-1.093 1.094-1.093.26 0 .547.122.752.341z" fill="#271291"/></svg>