<svg width="70" height="70" fill="none" xmlns="http://www.w3.org/2000/svg"><g clip-path="url(#clip0_218_714)" fill="#271291"><path d="M.602 4.676c-.164.068-.37.287-.452.465C.041 5.387 0 11.826 0 28.314V51.16l.396.397.397.396h29.695v4.512h-6.084c-3.841 0-6.33.054-6.795.15-.396.082-1.244.397-1.886.697-2.57 1.231-4.375 3.993-4.375 6.713 0 .657.054.848.341 1.121l.329.342h45.964l.328-.341c.288-.274.342-.465.342-1.122 0-3.308-2.666-6.562-6.029-7.355-.71-.164-2.023-.205-6.986-.205h-6.125v-4.512h29.695l.397-.396.396-.397V28.315c0-16.448-.041-22.928-.15-23.16-.082-.192-.301-.41-.493-.493-.45-.205-68.332-.191-68.755.014zm67.074 23.556V49.63H2.324V6.836h65.352v21.396zm-30.38 25.936l-.04 2.229h-4.512l-.04-2.229-.028-2.215h4.648l-.027 2.215zm14.302 4.621c2.187.355 4.06 1.983 4.662 4.06l.082.315H13.658l.082-.314c.588-2.01 2.475-3.706 4.54-4.06.956-.151 32.333-.165 33.318 0z"/><path d="M5.117 9.188c-.164.068-.369.287-.451.464-.11.246-.15 5.496-.15 18.663v18.333l.396.397.397.396h59.39l.397-.396.396-.397V28.314c0-13.138-.04-18.416-.15-18.648-.082-.191-.301-.41-.492-.492-.452-.205-59.309-.192-59.733.014zm58.051 19.044v16.885H6.84V11.348h56.328v16.884z"/><path d="M17.09 18.115c-4.102 2.516-7.588 4.73-7.752 4.936-.315.342-.315.355-.315 5.181 0 4.827 0 4.84.315 5.182.396.451 14.902 9.365 15.38 9.461.302.068 1.655-.725 7.944-4.58 4.17-2.57 7.656-4.772 7.752-4.908.15-.178.178-1.3.191-5.196V23.23l-.328-.301c-.177-.164-2.925-1.9-6.111-3.856-8.476-5.209-9.023-5.537-9.338-5.537-.164 0-3.637 2.065-7.738 4.58zm20.138 5.524c.096.095-4.921 3.254-5.085 3.199-.041-.014-1.45-.861-3.118-1.887l-3.048-1.873v-6.385l5.578 3.432c3.062 1.887 5.605 3.459 5.673 3.514zm-13.603-3.65l-.041 3.171-2.94 1.819c-1.613.998-3.021 1.818-3.117 1.818-.328 0-5.209-3.076-5.045-3.172 8.983-5.55 10.979-6.781 11.075-6.795.054-.014.082 1.408.068 3.158zm3.855 6.671c1.245.766 2.311 1.436 2.366 1.504.095.082-4.512 3.049-4.936 3.186-.123.027-5.236-3.077-5.168-3.159.027-.027 1.19-.738 2.557-1.585 1.736-1.08 2.584-1.518 2.72-1.45.124.069 1.231.739 2.462 1.504zm-14.123.342c1.04.643 1.873 1.203 1.86 1.244-.027.082-3.719 2.379-3.815 2.379-.027 0-.054-1.08-.054-2.393 0-1.312.027-2.392.068-2.392.027 0 .902.52 1.941 1.162zm25.061 1.244c0 2.05-.027 2.393-.191 2.338-.616-.232-3.774-2.338-3.678-2.434.178-.177 3.65-2.31 3.773-2.31.055 0 .096 1.08.096 2.406zm-17.896 3.172l3.062 1.887.041 3.185c.014 1.75-.014 3.158-.082 3.131-.068-.014-2.611-1.586-5.674-3.459l-5.55-3.418.505-.3c.274-.165 1.436-.89 2.557-1.6 1.135-.711 2.064-1.3 2.064-1.3.014-.013 1.409.835 3.076 1.874zm14.396-.191c1.326.82 2.365 1.53 2.31 1.585-.218.192-11.074 6.836-11.17 6.836-.04 0-.068-1.421-.054-3.158l.04-3.158 3.077-1.887c1.695-1.039 3.145-1.845 3.227-1.804.082.054 1.23.765 2.57 1.586zM48.053 13.7c-.615.327-.615.259-.615 6.63v6.07l.341.329.328.341h6.07c5.784 0 6.098-.013 6.4-.26l.327-.26.041-6.11.041-6.098-.41-.397-.396-.41h-5.934c-4.02.014-6.002.055-6.193.164zm10.595 6.671v4.512l-4.47-.027-4.485-.042-.04-4.484-.028-4.47h9.023v4.511z"/><path d="M56.287 16.912c-.178.287-.78 1.272-1.326 2.201l-.998 1.682-.629-.615-.643-.63-.779.794-.78.793 1.272 1.258c1.121 1.093 1.354 1.257 1.764 1.257.26 0 .56-.082.684-.177.287-.22 3.664-5.852 3.595-5.975-.068-.11-1.681-1.094-1.79-1.094-.028 0-.192.233-.37.506zM47.78 29.736l-.343.328v6.057c.014 4.54.055 6.111.178 6.276.397.519.63.533 6.658.533h5.907l.396-.397.397-.396V30.064l-.342-.328-.328-.341H48.107l-.328.341zm10.868 6.358v4.511h-9.023v-9.023h9.023v4.512z"/><path d="M55.629 33.81c-.547.917-1.135 1.9-1.326 2.202l-.328.52-.602-.589-.601-.587-.82.82-.835.82 1.217 1.176c1.299 1.271 1.764 1.504 2.338 1.19.232-.124.998-1.259 2.092-3.063.957-1.586 1.736-2.899 1.75-2.94 0-.04-.424-.328-.944-.642l-.943-.56-.998 1.654z"/></g><defs><clipPath id="clip0_218_714"><path fill="#fff" d="M0 0h70v70H0z"/></clipPath></defs></svg>