<svg width="36" height="36" viewBox="0 0 36 36" fill="none" xmlns="http://www.w3.org/2000/svg">
<circle cx="18" cy="18" r="18" fill="#29A71A"/>
<path d="M18.0117 8C12.5057 8 8.02348 12.4784 8.02148 17.9844C8.02048 19.7444 8.48147 21.4626 9.35547 22.9766L8 28L13.2324 26.7637C14.6914 27.5597 16.3339 27.9775 18.0059 27.9785H18.0098C23.5148 27.9785 27.995 23.4991 27.998 17.9941C28 15.3251 26.9622 12.8157 25.0762 10.9277C23.1902 9.04073 20.6837 8.001 18.0117 8ZM18.0098 10C20.1458 10.001 22.1531 10.8338 23.6621 12.3418C25.1711 13.8518 26 15.8582 25.998 17.9922C25.996 22.3962 22.4138 25.9785 18.0078 25.9785C16.6748 25.9775 15.3544 25.6428 14.1914 25.0078L13.5176 24.6406L12.7734 24.8164L10.8047 25.2812L11.2852 23.4961L11.502 22.6953L11.0879 21.9766C10.3899 20.7686 10.0205 19.3874 10.0215 17.9844C10.0235 13.5824 13.6068 10 18.0098 10ZM14.4766 13.375C14.3096 13.375 14.0395 13.4375 13.8105 13.6875C13.5815 13.9365 12.9355 14.5396 12.9355 15.7676C12.9355 16.9956 13.8301 18.1826 13.9551 18.3496C14.0791 18.5156 15.6818 21.1152 18.2188 22.1152C20.3267 22.9462 20.7549 22.7822 21.2129 22.7402C21.6709 22.6992 22.6904 22.1377 22.8984 21.5547C23.1064 20.9717 23.1069 20.4702 23.0449 20.3672C22.9829 20.2632 22.8164 20.2012 22.5664 20.0762C22.3174 19.9512 21.0903 19.3486 20.8613 19.2656C20.6323 19.1826 20.4648 19.1406 20.2988 19.3906C20.1328 19.6406 19.6558 20.2012 19.5098 20.3672C19.3638 20.5342 19.2188 20.5566 18.9688 20.4316C18.7188 20.3056 17.9149 20.0414 16.9609 19.1914C16.2189 18.5304 15.7183 17.7148 15.5723 17.4648C15.4273 17.2158 15.5586 17.0791 15.6836 16.9551C15.7956 16.8431 15.9316 16.6636 16.0566 16.5176C16.1806 16.3716 16.2236 16.2676 16.3066 16.1016C16.3896 15.9356 16.3472 15.7891 16.2852 15.6641C16.2232 15.5391 15.7376 14.3065 15.5156 13.8125C15.3286 13.3975 15.1311 13.3879 14.9531 13.3809C14.8081 13.3749 14.6426 13.375 14.4766 13.375Z" fill="white"/>
</svg>
