<svg width="36" height="36" viewBox="0 0 36 36" fill="none" xmlns="http://www.w3.org/2000/svg">
<g clip-path="url(#clip0_218_820)">
<path d="M36 18C36 8.05887 27.9411 0 18 0C8.05887 0 0 8.05887 0 18C0 27.9411 8.05887 36 18 36C27.9411 36 36 27.9411 36 18Z" fill="#05A0EB"/>
<path d="M16.6284 19.3984L16.3903 22.5312C16.7299 22.5312 16.878 22.3952 17.0547 22.2288L18.6461 20.8008L21.945 23.068C22.5504 23.384 22.9759 23.2184 23.1395 22.5448L25.3061 13.0192C25.4992 12.1824 24.9837 11.8536 24.3946 12.0616L11.6662 16.6376C10.7973 16.9528 10.8112 17.408 11.5173 17.6136L14.7712 18.5624L22.3303 14.1224C22.6863 13.9016 23.0086 14.0224 22.7419 14.2456L16.6301 19.3992L16.6284 19.3984Z" fill="white"/>
</g>
<defs>
<clipPath id="clip0_218_820">
<rect width="36" height="36" fill="white"/>
</clipPath>
</defs>
</svg>
