<svg width="164" height="45" viewBox="0 0 164 45" fill="none" xmlns="http://www.w3.org/2000/svg">
<g clip-path="url(#clip0_417_6172)">
<path d="M49.1094 10.0649H51.4345L58.712 19.7062L65.7492 10.0649H68.0122V29.239H65.4857V14.3663L58.9445 23.186H58.3399L51.605 14.3663V29.239H49.1094V10.0649Z" fill="white"/>
<path d="M78.9949 10.0107H80.9712L89.3802 29.239H86.7761L84.637 24.3874H75.2437L73.1357 29.239H70.5859L78.9949 10.0107ZM76.1738 22.2018H83.707L79.9326 13.4906L76.1738 22.2018Z" fill="white"/>
<path d="M107.29 26.1152C105.841 28.138 102.966 29.4865 99.8424 29.4865C93.7894 29.4865 89.9531 25.6114 89.9531 19.6515C89.9531 14.1488 93.7042 9.81641 99.6486 9.81641C103.098 9.81641 105.725 11.2657 107.019 12.994L105.399 14.5441C104.668 13.7755 103.783 13.1709 102.801 12.77C101.819 12.3692 100.763 12.1814 99.7029 12.219C95.2387 12.219 92.5572 15.3191 92.5572 19.667C92.5572 24.0149 95.541 27.115 100.005 27.115C101.111 27.143 102.209 26.927 103.222 26.4822C104.235 26.0375 105.137 25.375 105.864 24.5419L107.29 26.1152Z" fill="white"/>
<path d="M125.962 26.1152C124.513 28.138 121.638 29.4865 118.514 29.4865C112.462 29.4865 108.625 25.6114 108.625 19.6515C108.625 14.1488 112.376 9.81641 118.321 9.81641C121.77 9.81641 124.405 11.2657 125.691 12.994L124.071 14.5441C123.34 13.7755 122.455 13.1709 121.473 12.77C120.491 12.3692 119.435 12.1814 118.375 12.219C113.911 12.219 111.229 15.3191 111.229 19.667C111.229 24.0149 114.213 27.115 118.677 27.115C119.783 27.1441 120.882 26.9285 121.895 26.4837C122.907 26.0389 123.81 25.3758 124.536 24.5419L125.962 26.1152Z" fill="white"/>
<path d="M135.167 10.0107H137.143L145.521 29.239H142.917L140.778 24.3874H131.416L129.308 29.239H126.758L135.167 10.0107ZM132.346 22.2018H139.879L136.097 13.4906L132.346 22.2018Z" fill="white"/>
<path d="M148.148 29.239V10.0649H155.596C162.005 10.0649 163.462 13.165 163.462 16.0868C163.462 19.1869 161.432 22.1708 155.572 22.1708H150.643V29.239H148.148ZM150.643 12.39V19.8689H155.518C159.269 19.8689 160.881 18.3189 160.881 16.0636C160.881 13.9245 159.517 12.39 155.704 12.39H150.643Z" fill="white"/>
<path d="M54.9013 37.4929H50.3984V44.8401H49.4219V36.5474H55.9398V44.8401H54.9323L54.9013 37.4929Z" fill="#E20613"/>
<path d="M57.2578 36.5474H64.0703V37.4929H61.1639V44.8401H60.1564V37.4929H57.2578V36.5474Z" fill="#E20613"/>
<path d="M71.2124 44.0339C70.4888 44.6684 69.555 45.011 68.5928 44.9949C68.0283 45.0235 67.4642 44.9323 66.9374 44.7273C66.4107 44.5223 65.9333 44.2082 65.5366 43.8056C65.1398 43.4031 64.8328 42.9211 64.6355 42.3914C64.4383 41.8617 64.3554 41.2963 64.3922 40.7323C64.3538 40.1735 64.4333 39.6129 64.6254 39.0867C64.8176 38.5606 65.1181 38.0807 65.5075 37.6781C65.897 37.2755 66.3666 36.9592 66.8861 36.7497C67.4056 36.5402 67.9633 36.4422 68.523 36.4619C69.43 36.4162 70.3242 36.6906 71.0496 37.237L70.5846 38.012C69.9906 37.5841 69.2699 37.3685 68.5385 37.3997C68.1125 37.3987 67.6908 37.4855 67.2998 37.6546C66.9088 37.8238 66.5569 38.0718 66.266 38.383C65.9751 38.6943 65.7515 39.0622 65.6091 39.4637C65.4667 39.8653 65.4086 40.2918 65.4384 40.7168C65.4073 41.1538 65.4691 41.5925 65.6198 42.0038C65.7705 42.4152 66.0067 42.7899 66.3128 43.1034C66.6189 43.4168 66.988 43.6618 67.3957 43.8222C67.8034 43.9826 68.2404 44.0547 68.678 44.0339C69.4468 44.0381 70.1937 43.7782 70.7939 43.2976L71.2124 44.0339Z" fill="#E20613"/>
<path d="M75.4688 44.8401V36.5474H76.4764V43.1816L81.514 36.5474H82.4053V44.8401H81.3978V38.2059L76.3601 44.8401H75.4688Z" fill="#E20613"/>
<path d="M90.4475 41.12H85.8904V44.8401H84.8828V36.5474H85.8904V40.1357H90.4475V36.5474H91.455V44.8401H90.4475V41.12Z" fill="#E20613"/>
<path d="M93.0615 36.5474H94.2395L97.5179 40.5155L94.1078 44.8401H92.9297L96.4174 40.5155L93.0615 36.5474ZM97.7116 36.5474H98.7192V44.8401H97.7116V36.5474ZM100.036 40.5L103.516 44.8401H102.354L98.9439 40.5155L102.222 36.5474H103.392L100.036 40.5Z" fill="#E20613"/>
<path d="M104.992 44.8401V36.5474H105.992V43.1816L111.03 36.5474H111.913V44.8401H110.906V38.2059L105.876 44.8401H104.992Z" fill="#E20613"/>
<path d="M119.947 41.12H115.383V44.8401H114.375V36.5474H115.383V40.1357H119.947V36.5474H120.955V44.8401H119.947V41.12Z" fill="#E20613"/>
<path d="M123.469 44.8401V36.5474H124.477V43.1816L129.514 36.5474H130.398V44.8401H129.39V38.2059L124.36 44.8401H123.469Z" fill="#E20613"/>
<path d="M132.875 44.8401V36.5474H135.045C137.416 36.5474 138.145 37.8339 138.145 39.1204C138.145 40.407 137.184 41.7323 135.161 41.7323C134.828 41.7323 134.332 41.7323 133.913 41.6858V44.8401H132.875ZM133.882 37.4929V40.6937C134.285 40.6937 134.657 40.748 135.091 40.748C136.316 40.748 137.044 40.1202 137.044 39.0817C137.044 38.0432 136.455 37.4696 135.138 37.4696C134.812 37.4696 134.278 37.4774 133.898 37.4929H133.882Z" fill="#E20613"/>
<path d="M139.938 44.8401V36.5474H140.945V43.1816L145.982 36.5474H146.874V44.8401H145.867V38.2059L140.867 44.8401H139.938Z" fill="#E20613"/>
<path d="M154.917 41.12H150.36V44.8401H149.391V36.5474H150.399V40.1357H154.956V36.5474H155.964V44.8401H154.956L154.917 41.12Z" fill="#E20613"/>
<path d="M158.406 36.5474H163.056V37.4929H159.437V44.8401H158.429L158.406 36.5474Z" fill="#E20613"/>
<path d="M27.5138 26.4152C30.4237 28.0953 34.1437 27.0998 35.8226 24.1917C37.5016 21.2837 36.5037 17.5643 33.5938 15.8843L11.3506 3.04214C8.44067 1.36211 4.72066 2.35761 3.0417 5.26566C1.36274 8.17371 2.36061 11.8931 5.27051 13.5731L27.5138 26.4152Z" fill="url(#paint0_linear_417_6172)"/>
<path d="M5.37989 28.7178C2.46999 30.3978 1.47212 34.1172 3.15108 37.0252C4.83004 39.9333 8.55005 40.9288 11.4599 39.2488L33.5958 26.4686C36.5057 24.7886 37.5035 21.0692 35.8246 18.1612C34.1456 15.2531 30.4256 14.2576 27.5157 15.9377L5.37989 28.7178Z" fill="#E20613"/>
<path d="M8.27099 40.2055C11.661 40.2055 14.4091 37.4574 14.4091 34.0673C14.4091 30.6773 11.661 27.9292 8.27099 27.9292C4.88097 27.9292 2.13281 30.6773 2.13281 34.0673C2.13281 37.4574 4.88097 40.2055 8.27099 40.2055Z" fill="#271291"/>
</g>
<defs>
<linearGradient id="paint0_linear_417_6172" x1="2.22836" y1="14.7289" x2="36.6394" y2="14.7289" gradientUnits="userSpaceOnUse">
<stop stop-color="#E20613"/>
<stop offset="0.14" stop-color="#C0082A"/>
<stop offset="0.44" stop-color="#7F0C56"/>
<stop offset="0.7" stop-color="#4F0F76"/>
<stop offset="0.89" stop-color="#32118A"/>
<stop offset="1" stop-color="#271291"/>
</linearGradient>
<clipPath id="clip0_417_6172">
<rect width="164" height="45" fill="white"/>
</clipPath>
</defs>
</svg>
