<svg width="120" height="34" viewBox="0 0 120 34" fill="none" xmlns="http://www.w3.org/2000/svg">
<path d="M35.1172 7.56104H36.7798L41.9838 14.3249L47.0159 7.56104H48.6342V21.0126H46.8275V10.5787L42.15 16.7661H41.7177L36.9017 10.5787V21.0126H35.1172V7.56104Z" fill="#271291"/>
<path d="M56.4818 7.52295H57.895L63.9081 21.0125H62.046L60.5164 17.6089H53.7994L52.2921 21.0125H50.4688L56.4818 7.52295ZM54.4645 16.0756H59.8514L57.1524 9.96427L54.4645 16.0756Z" fill="#271291"/>
<path d="M76.7175 18.8211C75.6813 20.2402 73.6255 21.1862 71.3919 21.1862C67.0636 21.1862 64.3203 18.4677 64.3203 14.2865C64.3203 10.4261 67.0026 7.38672 71.2533 7.38672C73.7199 7.38672 75.5984 8.40344 76.5237 9.61593L75.3653 10.7034C74.8425 10.1642 74.2097 9.74003 73.5075 9.45878C72.8053 9.1776 72.0502 9.04585 71.2922 9.07223C68.0999 9.07223 66.1824 11.2471 66.1824 14.2974C66.1824 17.3476 68.3161 19.5225 71.5081 19.5225C72.299 19.5421 73.0842 19.3906 73.8085 19.0786C74.5329 18.7666 75.1779 18.3018 75.6978 17.7173L76.7175 18.8211Z" fill="#271291"/>
<path d="M90.077 18.8211C89.0408 20.2402 86.985 21.1862 84.7511 21.1862C80.4234 21.1862 77.6797 18.4677 77.6797 14.2865C77.6797 10.4261 80.3619 7.38672 84.6131 7.38672C87.0794 7.38672 88.9636 8.40344 89.8832 9.61593L88.7248 10.7034C88.2021 10.1642 87.5692 9.74003 86.867 9.45878C86.1648 9.1776 85.4097 9.04585 84.6517 9.07223C81.4596 9.07223 79.5418 11.2471 79.5418 14.2974C79.5418 17.3476 81.6755 19.5225 84.8676 19.5225C85.6585 19.5429 86.4444 19.3917 87.1688 19.0796C87.8924 18.7676 88.5381 18.3024 89.0573 17.7173L90.077 18.8211Z" fill="#271291"/>
<path d="M96.6537 7.52295H98.0667L104.058 21.0125H102.196L100.666 17.6089H93.9714L92.4641 21.0125H90.6406L96.6537 7.52295ZM94.6365 16.0756H100.023L97.3187 9.96427L94.6365 16.0756Z" fill="#271291"/>
<path d="M105.938 21.0126V7.56104H111.263C115.846 7.56104 116.888 9.73591 116.888 11.7857C116.888 13.9606 115.437 16.0539 111.246 16.0539H107.722V21.0126H105.938ZM107.722 9.19221V14.439H111.208C113.89 14.439 115.043 13.3516 115.043 11.7694C115.043 10.2687 114.067 9.19221 111.341 9.19221H107.722Z" fill="#271291"/>
<path d="M39.2541 26.803H36.0342V31.9574H35.3359V26.1396H39.9967V31.9574H39.2763L39.2541 26.803Z" fill="#E20613"/>
<path d="M40.9453 26.1396H45.8168V26.803H43.7385V31.9574H43.018V26.803H40.9453V26.1396Z" fill="#E20613"/>
<path d="M50.9228 31.3922C50.4053 31.8374 49.7376 32.0777 49.0495 32.0664C48.6459 32.0865 48.2425 32.0225 47.8658 31.8787C47.4892 31.7349 47.1478 31.5145 46.8641 31.2321C46.5804 30.9497 46.3609 30.6116 46.2198 30.2399C46.0788 29.8683 46.0195 29.4717 46.0458 29.076C46.0183 28.684 46.0752 28.2907 46.2125 27.9215C46.35 27.5524 46.5649 27.2158 46.8433 26.9333C47.1218 26.6509 47.4576 26.429 47.8291 26.282C48.2006 26.135 48.5994 26.0663 48.9996 26.0801C49.6482 26.048 50.2876 26.2406 50.8063 26.6239L50.4738 27.1676C50.0491 26.8674 49.5337 26.7161 49.0107 26.738C48.7061 26.7373 48.4045 26.7982 48.1249 26.9168C47.8454 27.0355 47.5937 27.2095 47.3857 27.4279C47.1777 27.6462 47.0178 27.9043 46.916 28.186C46.8141 28.4678 46.7726 28.767 46.7939 29.0651C46.7717 29.3717 46.8159 29.6795 46.9236 29.968C47.0314 30.2566 47.2003 30.5195 47.4192 30.7394C47.6381 30.9593 47.902 31.1312 48.1935 31.2437C48.4851 31.3562 48.7975 31.4068 49.1105 31.3922C49.6602 31.3952 50.1943 31.2129 50.6235 30.8757L50.9228 31.3922Z" fill="#E20613"/>
<path d="M53.9609 31.9574V26.1396H54.6815V30.7939L58.2837 26.1396H58.9211V31.9574H58.2006V27.3032L54.5983 31.9574H53.9609Z" fill="#E20613"/>
<path d="M64.6745 29.3475H61.4158V31.9574H60.6953V26.1396H61.4158V28.657H64.6745V26.1396H65.3949V31.9574H64.6745V29.3475Z" fill="#E20613"/>
<path d="M66.5396 26.1396H67.3819L69.7262 28.9235L67.2877 31.9574H66.4453L68.9393 28.9235L66.5396 26.1396ZM69.8647 26.1396H70.5853V31.9574H69.8647V26.1396ZM71.5272 28.9126L74.0157 31.9574H73.1848L70.7459 28.9235L73.0904 26.1396H73.927L71.5272 28.9126Z" fill="#E20613"/>
<path d="M75.0781 31.9574V26.1396H75.7932V30.7939L79.3958 26.1396H80.0272V31.9574H79.3071V27.3032L75.7103 31.9574H75.0781Z" fill="#E20613"/>
<path d="M85.7735 29.3475H82.5099V31.9574H81.7891V26.1396H82.5099V28.657H85.7735V26.1396H86.4943V31.9574H85.7735V29.3475Z" fill="#E20613"/>
<path d="M88.2812 31.9574V26.1396H89.0021V30.7939L92.6039 26.1396H93.236V31.9574H92.5152V27.3032L88.9184 31.9574H88.2812Z" fill="#E20613"/>
<path d="M95.0156 31.9574V26.1396H96.5674C98.2628 26.1396 98.7841 27.0422 98.7841 27.9447C98.7841 28.8473 98.0969 29.7771 96.6503 29.7771C96.4122 29.7771 96.0575 29.7771 95.7579 29.7445V31.9574H95.0156ZM95.7357 26.803V29.0485C96.0239 29.0485 96.2899 29.0866 96.6002 29.0866C97.4762 29.0866 97.9968 28.6461 97.9968 27.9176C97.9968 27.189 97.5756 26.7866 96.6338 26.7866C96.4007 26.7866 96.0189 26.7921 95.7472 26.803H95.7357Z" fill="#E20613"/>
<path d="M100.07 31.9574V26.1396H100.791V30.7939L104.393 26.1396H105.031V31.9574H104.31V27.3032L100.735 31.9574H100.07Z" fill="#E20613"/>
<path d="M110.78 29.3475H107.521V31.9574H106.828V26.1396H107.549V28.657H110.808V26.1396H111.528V31.9574H110.808L110.78 29.3475Z" fill="#E20613"/>
<path d="M113.273 26.1396H116.599V26.803H114.011V31.9574H113.29L113.273 26.1396Z" fill="#E20613"/>
<path d="M19.6761 19.0313C21.7569 20.2099 24.417 19.5115 25.6175 17.4714C26.8181 15.4313 26.1046 12.8219 24.0237 11.6433L8.11813 2.63389C6.03732 1.45527 3.37723 2.15366 2.17664 4.1938C0.976052 6.23394 1.68961 8.84329 3.77041 10.0219L19.6761 19.0313Z" fill="url(#paint0_linear_405_1207)"/>
<path d="M3.84854 20.6472C1.76773 21.8258 1.05418 24.4351 2.25476 26.4752C3.45535 28.5154 6.11545 29.2138 8.19624 28.0352L24.0251 19.0692C26.1059 17.8906 26.8194 15.2813 25.6189 13.2412C24.4183 11.201 21.7582 10.5026 19.6774 11.6813L3.84854 20.6472Z" fill="#E20613"/>
<path d="M5.91271 28.7062C8.33685 28.7062 10.302 26.7783 10.302 24.3999C10.302 22.0217 8.33685 20.0938 5.91271 20.0938C3.48859 20.0938 1.52344 22.0217 1.52344 24.3999C1.52344 26.7783 3.48859 28.7062 5.91271 28.7062Z" fill="#271291"/>
<defs>
<linearGradient id="paint0_linear_405_1207" x1="1.59504" y1="10.8327" x2="26.2016" y2="10.8327" gradientUnits="userSpaceOnUse">
<stop stop-color="#E20613"/>
<stop offset="0.14" stop-color="#C0082A"/>
<stop offset="0.44" stop-color="#7F0C56"/>
<stop offset="0.7" stop-color="#4F0F76"/>
<stop offset="0.89" stop-color="#32118A"/>
<stop offset="1" stop-color="#271291"/>
</linearGradient>
</defs>
</svg>
