<?xml version="1.0" encoding="utf-8"?><svg xmlns="http://www.w3.org/2000/svg" xmlns:xlink="http://www.w3.org/1999/xlink"><symbol fill="none" viewBox="0 0 28 28" id="clock" xmlns="http://www.w3.org/2000/svg"><path d="M14 .667c7.364 0 13.334 5.97 13.334 13.333 0 7.364-5.97 13.333-13.334 13.333S.667 21.364.667 14h2.667c0 5.89 4.776 10.667 10.666 10.667 5.891 0 10.667-4.776 10.667-10.667 0-5.89-4.776-10.667-10.667-10.667a10.645 10.645 0 0 0-8.18 3.82L8.667 10h-8V2L3.93 5.261A13.306 13.306 0 0 1 14 .667Zm1.334 6.666v6.114l4.324 4.324-1.887 1.886-5.104-5.106V7.333h2.667Z" fill="#27AE60"/></symbol><symbol fill="none" viewBox="0 0 25 24" id="men" xmlns="http://www.w3.org/2000/svg"><path d="M18.986 6.763h5.556v2.223h-5.556V6.763Zm-2.222 5.556h7.778v2.222h-7.778V12.32Zm3.334 5.556h4.444v2.222h-4.445v-2.222Zm-20 5.555a8.89 8.89 0 0 1 17.777 0h-2.222a6.667 6.667 0 0 0-13.333 0H.098Zm8.888-10A6.665 6.665 0 0 1 2.32 6.763 6.665 6.665 0 0 1 8.986.097a6.665 6.665 0 0 1 6.667 6.666 6.665 6.665 0 0 1-6.667 6.667Zm0-2.222a4.443 4.443 0 0 0 4.445-4.445A4.443 4.443 0 0 0 8.986 2.32a4.443 4.443 0 0 0-4.444 4.444 4.443 4.443 0 0 0 4.444 4.445Z" fill="#27AE60"/></symbol><symbol fill="none" viewBox="0 0 32 32" id="stars" xmlns="http://www.w3.org/2000/svg"><path d="M4.14 30.82a1.299 1.299 0 0 1-1.27-1.52l.46-2.66-1.94-1.88a1.3 1.3 0 0 1 .72-2.21l2.67-.39L6 19.75a1.3 1.3 0 0 1 2.32 0l1.19 2.42 2.67.39a1.3 1.3 0 0 1 .72 2.21l-1.93 1.88.46 2.66a1.3 1.3 0 0 1-1.88 1.37l-2.42-1.27-2.38 1.26c-.188.1-.397.15-.61.15Zm2.99-3.5c.21 0 .415.052.6.15l1.45.76-.28-1.62a1.29 1.29 0 0 1 .37-1.15l1.17-1.14-1.62-.24a1.29 1.29 0 0 1-1-.71L7.1 21.9l-.73 1.47a1.29 1.29 0 0 1-1 .71l-1.62.24L5 25.47a1.29 1.29 0 0 1 .37 1.15l-.28 1.61 1.45-.76c.182-.096.384-.147.59-.15Zm18.65-5.06a1.6 1.6 0 0 1-.72-.18l-5.15-2.71-5.15 2.71a1.58 1.58 0 0 1-2.28-1.69l1-5.71-.77-.75a1 1 0 0 1 0-1.41 1 1 0 0 1 1.41 0l.94.91a1.56 1.56 0 0 1 .44 1.43l-.86 5.07 4.59-2.42a1.58 1.58 0 0 1 1.48 0l4.59 2.42-.88-5.12a1.57 1.57 0 0 1 .47-1.41l3.68-3.6L23.4 9a1.59 1.59 0 0 1-1.2-.88l-2.29-4.6-2.29 4.65a1.63 1.63 0 0 1-1.18.83l-5.15.74.34.34a1 1 0 1 1-1.42 1.41l-.93-.92A1.59 1.59 0 0 1 8.9 9a1.57 1.57 0 0 1 1.26-1.07l5.76-.83 2.58-5.23a1.58 1.58 0 0 1 2.83 0l2.57 5.22 5.74.84A1.55 1.55 0 0 1 30.92 9a1.58 1.58 0 0 1-.4 1.64l-4.15 4.06 1 5.72a1.59 1.59 0 0 1-1.57 1.86l-.02-.02Z" fill="#27AE60"/></symbol><symbol fill="none" viewBox="0 0 28 28" id="target" xmlns="http://www.w3.org/2000/svg"><path d="M14 24.667c5.89 0 10.666-4.776 10.666-10.667S19.89 3.333 13.999 3.333C8.11 3.333 3.333 8.11 3.333 14s4.775 10.667 10.666 10.667Zm0 2.666C6.635 27.333.665 21.363.665 14 .666 6.636 6.636.667 13.999.667c7.364 0 13.334 5.97 13.334 13.333 0 7.364-5.97 13.333-13.334 13.333Zm0-8a5.333 5.333 0 1 0 0-10.666 5.333 5.333 0 0 0 0 10.666ZM14 22a8 8 0 1 1 0-16 8 8 0 0 1 0 16Zm0-5.333a2.667 2.667 0 1 1 0-5.333 2.667 2.667 0 0 1 0 5.333Z" fill="#27AE60"/></symbol></svg>